<svg width="173" height="352" viewBox="0 0 173 352" fill="none" xmlns="http://www.w3.org/2000/svg">
<g opacity="0.5" clip-path="url(#clip0_8_3900)">
<path d="M10.4203 6.18429C10.2193 7.19949 9.72216 8.13277 8.99133 8.86687C8.26051 9.60098 7.32861 10.1032 6.31271 10.3104C5.2968 10.5176 4.2422 10.4205 3.28137 10.0315C2.32055 9.64238 1.49636 8.9786 0.912346 8.12352C0.328329 7.26843 0.0105287 6.26018 -0.00113204 5.2254C-0.0127927 4.19063 0.282206 3.17549 0.846807 2.30752C1.41141 1.43954 2.22043 0.757431 3.17224 0.346882C4.12405 -0.0636678 5.1762 -0.184349 6.19652 -2.42766e-06C6.88175 0.127231 7.53501 0.388452 8.1187 0.768627C8.70238 1.1488 9.20497 1.64042 9.59754 2.2152C9.99011 2.78998 10.2649 3.43656 10.4061 4.11774C10.5473 4.79892 10.5522 5.50124 10.4203 6.18429V6.18429Z" fill="#AED1EF"/>
<path d="M51.04 6.18425C50.8354 7.19144 50.3377 8.11604 49.6093 8.84238C48.8808 9.56873 47.9539 10.0646 46.9445 10.2678C45.9352 10.4711 44.8881 10.3729 43.9344 9.98529C42.9807 9.59774 42.1627 8.93811 41.5828 8.08894C41.0028 7.23978 40.6866 6.23878 40.6737 5.21119C40.6609 4.18359 40.952 3.17504 41.5105 2.31169C42.0691 1.44835 42.8704 0.768563 43.8141 0.357377C44.7578 -0.0538092 45.802 -0.178133 46.8162 -4.16971e-05C47.5014 0.127192 48.1547 0.388413 48.7383 0.768587C49.322 1.14876 49.8246 1.64038 50.2172 2.21516C50.6098 2.78994 50.8845 3.43652 51.0258 4.1177C51.167 4.79888 51.1718 5.5012 51.04 6.18425V6.18425Z" fill="#AED1EF"/>
<path d="M91.6596 6.1842C91.454 7.19206 90.9548 8.11693 90.2248 8.84291C89.4948 9.5689 88.5663 10.0637 87.5557 10.2653C86.5451 10.467 85.4973 10.3664 84.5437 9.97634C83.5901 9.58626 82.7731 8.92398 82.195 8.07248C81.6169 7.22099 81.3035 6.21816 81.294 5.18967C81.2846 4.16117 81.5794 3.15276 82.1417 2.2908C82.704 1.42883 83.5087 0.751663 84.4549 0.344141C85.4012 -0.0633815 86.4469 -0.183127 87.4611 -9.06883e-05C88.144 0.130037 88.7945 0.393354 89.3754 0.774777C89.9562 1.1562 90.456 1.64824 90.846 2.2227C91.236 2.79717 91.5086 3.44278 91.6482 4.12256C91.7878 4.80234 91.7917 5.50293 91.6596 6.1842V6.1842Z" fill="#AED1EF"/>
<path d="M132.279 6.1842C132.074 7.19206 131.574 8.11693 130.844 8.84291C130.114 9.5689 129.186 10.0637 128.175 10.2653C127.165 10.467 126.117 10.3664 125.163 9.97634C124.21 9.58626 123.393 8.92398 122.815 8.07248C122.237 7.22099 121.923 6.21816 121.914 5.18967C121.904 4.16117 122.199 3.15276 122.761 2.2908C123.324 1.42883 124.128 0.751663 125.075 0.344141C126.021 -0.0633815 127.067 -0.183127 128.081 -9.06883e-05C128.765 0.126916 129.418 0.388266 130 0.768807C130.583 1.14935 131.084 1.64151 131.474 2.21677C131.865 2.79202 132.137 3.43892 132.275 4.11996C132.413 4.80101 132.415 5.50265 132.279 6.1842V6.1842Z" fill="#AED1EF"/>
<path d="M172.899 6.1842C172.693 7.19206 172.194 8.11693 171.464 8.84291C170.734 9.5689 169.805 10.0637 168.795 10.2653C167.784 10.467 166.736 10.3664 165.783 9.97634C164.829 9.58626 164.012 8.92398 163.434 8.07248C162.856 7.22099 162.543 6.21816 162.533 5.18967C162.524 4.16117 162.819 3.15276 163.381 2.2908C163.943 1.42883 164.748 0.751663 165.694 0.344141C166.64 -0.0633815 167.686 -0.183127 168.7 -9.06883e-05C169.385 0.126916 170.037 0.388266 170.62 0.768807C171.202 1.14935 171.703 1.64151 172.094 2.21677C172.484 2.79202 172.757 3.43892 172.895 4.11996C173.033 4.80101 173.034 5.50265 172.899 6.1842V6.1842Z" fill="#AED1EF"/>
<path d="M10.4204 40.3872C10.2331 41.4089 9.74645 42.3522 9.02193 43.0977C8.29741 43.8433 7.3676 44.3577 6.35012 44.5758C5.33263 44.7939 4.27319 44.7059 3.30582 44.3229C2.33845 43.94 1.50661 43.2794 0.91553 42.4245C0.32445 41.5697 0.000688838 40.5591 -0.0147981 39.5206C-0.030285 38.4821 0.263199 37.4624 0.828526 36.5904C1.39385 35.7184 2.20563 35.0333 3.16115 34.6218C4.11668 34.2103 5.17302 34.0909 6.19656 34.2787C7.56483 34.5364 8.77594 35.3226 9.56681 36.4663C10.3577 37.6101 10.6644 39.0191 10.4204 40.3872Z" fill="#AED1EF"/>
<path d="M51.04 40.3872C50.8491 41.4009 50.3619 42.3356 49.6397 43.0734C48.9174 43.8112 47.9926 44.3192 46.9816 44.5334C45.9706 44.7475 44.9187 44.6582 43.9584 44.2768C42.9982 43.8953 42.1725 43.2388 41.5855 42.3898C40.9985 41.5409 40.6764 40.5375 40.6597 39.5062C40.6431 38.4749 40.9327 37.4617 41.492 36.5943C42.0514 35.727 42.8554 35.0442 43.8029 34.6321C44.7503 34.2201 45.7988 34.097 46.8162 34.2786C48.1845 34.5364 49.3956 35.3225 50.1865 36.4663C50.9773 37.61 51.2841 39.019 51.04 40.3872Z" fill="#AED1EF"/>
<path d="M91.6596 40.3872C91.4676 41.4016 90.9789 42.3366 90.2551 43.074C89.5313 43.8115 88.6048 44.3185 87.5925 44.531C86.5803 44.7434 85.5277 44.6519 84.5675 44.2679C83.6073 43.8839 82.7826 43.2247 82.1975 42.3734C81.6124 41.5221 81.2931 40.5169 81.2798 39.4846C81.2666 38.4524 81.5601 37.4393 82.1231 36.5734C82.6862 35.7074 83.4937 35.0273 84.4437 34.6189C85.3937 34.2105 86.4437 34.0921 87.461 34.2786C88.8246 34.5422 90.0295 35.3307 90.8152 36.4738C91.6009 37.6169 91.9042 39.0227 91.6596 40.3872V40.3872Z" fill="#AED1EF"/>
<path d="M132.279 40.3872C132.087 41.4016 131.599 42.3366 130.875 43.074C130.151 43.8115 129.224 44.3185 128.212 44.531C127.2 44.7434 126.147 44.6519 125.187 44.2679C124.227 43.8839 123.402 43.2247 122.817 42.3734C122.232 41.5221 121.913 40.5169 121.899 39.4846C121.886 38.4524 122.18 37.4393 122.743 36.5734C123.306 35.7074 124.113 35.0273 125.063 34.6189C126.013 34.2105 127.063 34.0921 128.081 34.2786C129.447 34.5361 130.657 35.3233 131.443 36.468C132.23 37.6128 132.531 39.0219 132.279 40.3872V40.3872Z" fill="#AED1EF"/>
<path d="M172.899 40.3872C172.707 41.4016 172.218 42.3366 171.494 43.074C170.771 43.8115 169.844 44.3185 168.832 44.531C167.82 44.7434 166.767 44.6519 165.807 44.2679C164.847 43.8839 164.022 43.2247 163.437 42.3734C162.852 41.5221 162.532 40.5169 162.519 39.4846C162.506 38.4524 162.799 37.4393 163.362 36.5734C163.925 35.7074 164.733 35.0273 165.683 34.6189C166.633 34.2105 167.683 34.0921 168.7 34.2786C170.067 34.5361 171.276 35.3233 172.063 36.468C172.85 37.6128 173.15 39.0219 172.899 40.3872V40.3872Z" fill="#AED1EF"/>
<path d="M10.4204 74.4893C10.2378 75.513 9.75464 76.4596 9.03227 77.209C8.3099 77.9584 7.38083 78.4768 6.36286 78.6985C5.34488 78.9203 4.28386 78.8353 3.31432 78.4545C2.34478 78.0737 1.51038 77.4141 0.916932 76.5594C0.323482 75.7046 -0.00229481 74.6933 -0.0190915 73.6536C-0.0358882 72.6139 0.257051 71.5926 0.822585 70.7192C1.38812 69.8459 2.20077 69.1598 3.15751 68.7479C4.11425 68.3361 5.17197 68.2171 6.19658 68.4059C7.55967 68.6639 8.76651 69.4463 9.55671 70.5844C10.3469 71.7225 10.6571 73.125 10.4204 74.4893Z" fill="#AED1EF"/>
<path d="M51.04 74.4891C50.7885 75.8548 50.0037 77.0648 48.8582 77.853C47.7127 78.6412 46.3004 78.943 44.9319 78.6919C43.5635 78.4409 42.3511 77.6576 41.5613 76.5144C40.7716 75.3711 40.4692 73.9617 40.7208 72.596C40.8453 71.9197 41.1021 71.2746 41.4765 70.6974C41.8508 70.1203 42.3355 69.6223 42.9026 69.2321C43.4698 68.8418 44.1085 68.5668 44.7822 68.4229C45.4558 68.279 46.1513 68.2689 46.8289 68.3932C47.5064 68.5175 48.1528 68.7738 48.7312 69.1474C49.3095 69.521 49.8084 70.0046 50.1995 70.5707C50.5905 71.1368 50.866 71.7742 51.0103 72.4465C51.1545 73.1188 51.1646 73.8129 51.04 74.4891V74.4891Z" fill="#AED1EF"/>
<path d="M91.6596 74.4893C91.4723 75.5058 90.9871 76.4441 90.2654 77.1854C89.5437 77.9267 88.6179 78.4377 87.6051 78.6538C86.5924 78.8699 85.5381 78.7814 84.5758 78.3995C83.6134 78.0175 82.7862 77.3594 82.1987 76.5082C81.6113 75.6569 81.2899 74.651 81.2754 73.6175C81.2609 72.584 81.5538 71.5694 82.1171 70.7021C82.6804 69.8348 83.4888 69.1537 84.4401 68.745C85.3913 68.3363 86.4426 68.2183 87.4611 68.406C88.8195 68.6696 90.0201 69.4545 90.8052 70.5919C91.5902 71.7293 91.8969 73.1286 91.6596 74.4893Z" fill="#AED1EF"/>
<path d="M132.279 74.4893C132.092 75.5058 131.607 76.4441 130.885 77.1854C130.163 77.9267 129.238 78.4377 128.225 78.6538C127.212 78.8699 126.158 78.7814 125.195 78.3995C124.233 78.0175 123.406 77.3594 122.818 76.5082C122.231 75.6569 121.91 74.651 121.895 73.6175C121.881 72.584 122.173 71.5694 122.737 70.7021C123.3 69.8348 124.108 69.1537 125.06 68.745C126.011 68.3363 127.062 68.2183 128.081 68.406C129.442 68.6636 130.647 69.4471 131.433 70.5861C132.219 71.7252 132.523 73.1278 132.279 74.4893V74.4893Z" fill="#AED1EF"/>
<path d="M172.899 74.4893C172.711 75.5058 172.226 76.4441 171.504 77.1854C170.783 77.9267 169.857 78.4377 168.844 78.6538C167.832 78.8699 166.777 78.7814 165.815 78.3995C164.853 78.0175 164.025 77.3594 163.438 76.5082C162.85 75.6569 162.529 74.651 162.515 73.6175C162.5 72.584 162.793 71.5694 163.356 70.7021C163.92 69.8348 164.728 69.1537 165.679 68.745C166.63 68.3363 167.682 68.2183 168.7 68.406C170.062 68.6636 171.267 69.4471 172.053 70.5861C172.839 71.7252 173.143 73.1278 172.899 74.4893V74.4893Z" fill="#AED1EF"/>
<path d="M10.4204 108.541C10.2378 109.565 9.75464 110.511 9.03227 111.261C8.3099 112.01 7.38083 112.528 6.36286 112.75C5.34488 112.972 4.28386 112.887 3.31432 112.506C2.34478 112.125 1.51038 111.466 0.916932 110.611C0.323482 109.756 -0.00229481 108.745 -0.0190915 107.705C-0.0358882 106.665 0.257051 105.644 0.822585 104.771C1.38812 103.897 2.20077 103.211 3.15751 102.799C4.11425 102.388 5.17197 102.269 6.19658 102.457C7.55967 102.715 8.76651 103.498 9.55671 104.636C10.3469 105.774 10.6571 107.176 10.4204 108.541Z" fill="#AED1EF"/>
<path d="M51.04 108.541C50.9155 109.217 50.6587 109.862 50.2843 110.439C49.9099 111.016 49.4253 111.514 48.8581 111.905C48.2909 112.295 47.6523 112.57 46.9786 112.714C46.305 112.858 45.6095 112.868 44.9319 112.743C44.2543 112.619 43.6079 112.363 43.0296 111.989C42.4513 111.616 41.9523 111.132 41.5613 110.566C41.1702 110 40.8947 109.362 40.7505 108.69C40.6063 108.018 40.5962 107.324 40.7207 106.647C40.9723 105.282 41.7571 104.072 42.9026 103.284C44.0481 102.495 45.4604 102.194 46.8288 102.445C48.1973 102.696 49.4097 103.479 50.1995 104.622C50.9892 105.765 51.2916 107.175 51.04 108.541V108.541Z" fill="#AED1EF"/>
<path d="M91.6596 108.541C91.4723 109.557 90.9871 110.496 90.2654 111.237C89.5437 111.978 88.6179 112.489 87.6051 112.705C86.5924 112.921 85.5381 112.833 84.5758 112.451C83.6134 112.069 82.7862 111.411 82.1987 110.56C81.6113 109.708 81.2899 108.702 81.2754 107.669C81.2609 106.636 81.5538 105.621 82.1171 104.754C82.6804 103.886 83.4888 103.205 84.4401 102.797C85.3913 102.388 86.4426 102.27 87.4611 102.457C88.8195 102.721 90.0201 103.506 90.8052 104.643C91.5902 105.781 91.8969 107.18 91.6596 108.541Z" fill="#AED1EF"/>
<path d="M132.279 108.541C132.092 109.557 131.607 110.496 130.885 111.237C130.163 111.978 129.238 112.489 128.225 112.705C127.212 112.921 126.158 112.833 125.195 112.451C124.233 112.069 123.406 111.411 122.818 110.56C122.231 109.708 121.91 108.702 121.895 107.669C121.881 106.636 122.173 105.621 122.737 104.754C123.3 103.886 124.108 103.205 125.06 102.797C126.011 102.388 127.062 102.27 128.081 102.457C129.442 102.715 130.647 103.499 131.433 104.638C132.219 105.777 132.523 107.179 132.279 108.541V108.541Z" fill="#AED1EF"/>
<path d="M172.899 108.541C172.711 109.557 172.226 110.496 171.504 111.237C170.783 111.978 169.857 112.489 168.844 112.705C167.832 112.921 166.777 112.833 165.815 112.451C164.853 112.069 164.025 111.411 163.438 110.56C162.85 109.708 162.529 108.702 162.515 107.669C162.5 106.636 162.793 105.621 163.356 104.754C163.92 103.886 164.728 103.205 165.679 102.797C166.63 102.388 167.682 102.27 168.7 102.457C170.062 102.715 171.267 103.499 172.053 104.638C172.839 105.777 173.143 107.179 172.899 108.541V108.541Z" fill="#AED1EF"/>
<path d="M10.4204 142.794C10.2378 143.818 9.75464 144.765 9.03227 145.514C8.3099 146.263 7.38083 146.782 6.36286 147.003C5.34488 147.225 4.28386 147.14 3.31432 146.759C2.34478 146.379 1.51038 145.719 0.916932 144.864C0.323482 144.01 -0.00229481 142.998 -0.0190915 141.959C-0.0358882 140.919 0.257051 139.898 0.822585 139.024C1.38812 138.151 2.20077 137.465 3.15751 137.053C4.11425 136.641 5.17197 136.522 6.19658 136.711C7.55967 136.969 8.76651 137.751 9.55671 138.889C10.3469 140.027 10.6571 141.43 10.4204 142.794Z" fill="#AED1EF"/>
<path d="M51.04 142.794C50.7885 144.16 50.0037 145.37 48.8582 146.158C47.7127 146.946 46.3004 147.248 44.9319 146.997C43.5635 146.746 42.3511 145.963 41.5613 144.819C40.7716 143.676 40.4692 142.267 40.7208 140.901C40.9723 139.535 41.7571 138.325 42.9026 137.537C43.4698 137.147 44.1085 136.872 44.7822 136.728C45.4558 136.584 46.1513 136.574 46.8289 136.698C47.5064 136.822 48.1528 137.079 48.7312 137.452C49.3095 137.826 49.8084 138.31 50.1995 138.876C50.5905 139.442 50.866 140.079 51.0103 140.751C51.1545 141.424 51.1646 142.118 51.04 142.794V142.794Z" fill="#AED1EF"/>
<path d="M91.6596 142.794C91.4723 143.811 90.9871 144.749 90.2654 145.49C89.5437 146.232 88.6179 146.743 87.6051 146.959C86.5924 147.175 85.5381 147.086 84.5758 146.704C83.6134 146.322 82.7862 145.664 82.1987 144.813C81.6113 143.962 81.2899 142.956 81.2754 141.922C81.2609 140.889 81.5538 139.874 82.1171 139.007C82.6804 138.14 83.4888 137.459 84.4401 137.05C85.3913 136.641 86.4426 136.523 87.4611 136.711C88.8195 136.975 90.0201 137.759 90.8052 138.897C91.5902 140.034 91.8969 141.434 91.6596 142.794V142.794Z" fill="#AED1EF"/>
<path d="M132.279 142.794C132.092 143.811 131.607 144.749 130.885 145.49C130.163 146.232 129.238 146.743 128.225 146.959C127.212 147.175 126.158 147.086 125.195 146.704C124.233 146.322 123.406 145.664 122.818 144.813C122.231 143.962 121.91 142.956 121.895 141.922C121.881 140.889 122.173 139.874 122.737 139.007C123.3 138.14 124.108 137.459 125.06 137.05C126.011 136.641 127.062 136.523 128.081 136.711C129.442 136.969 130.647 137.752 131.433 138.891C132.219 140.03 132.523 141.433 132.279 142.794V142.794Z" fill="#AED1EF"/>
<path d="M172.899 142.794C172.711 143.811 172.226 144.749 171.504 145.49C170.783 146.232 169.857 146.743 168.844 146.959C167.832 147.175 166.777 147.086 165.815 146.704C164.853 146.322 164.025 145.664 163.438 144.813C162.85 143.962 162.529 142.956 162.515 141.922C162.5 140.889 162.793 139.874 163.356 139.007C163.92 138.14 164.728 137.459 165.679 137.05C166.63 136.641 167.682 136.523 168.7 136.711C170.062 136.969 171.267 137.752 172.053 138.891C172.839 140.03 173.143 141.433 172.899 142.794V142.794Z" fill="#AED1EF"/>
<path d="M10.4204 176.947C10.2378 177.97 9.75464 178.917 9.03227 179.666C8.3099 180.416 7.38083 180.934 6.36286 181.156C5.34488 181.378 4.28386 181.293 3.31432 180.912C2.34478 180.531 1.51038 179.871 0.916932 179.017C0.323482 178.162 -0.00229481 177.151 -0.0190915 176.111C-0.0358882 175.071 0.257051 174.05 0.822585 173.176C1.38812 172.303 2.20077 171.617 3.15751 171.205C4.11425 170.793 5.17197 170.674 6.19658 170.863C7.55967 171.121 8.76651 171.904 9.55671 173.042C10.3469 174.18 10.6571 175.582 10.4204 176.947V176.947Z" fill="#AED1EF"/>
<path d="M51.04 176.947C50.7885 178.312 50.0037 179.522 48.8582 180.311C47.7127 181.099 46.3004 181.4 44.9319 181.149C43.5635 180.898 42.3511 180.115 41.5613 178.972C40.7716 177.829 40.4692 176.419 40.7208 175.053C40.9723 173.688 41.7571 172.478 42.9026 171.69C43.4698 171.299 44.1085 171.024 44.7822 170.88C45.4558 170.736 46.1513 170.726 46.8289 170.851C47.5064 170.975 48.1528 171.231 48.7312 171.605C49.3095 171.979 49.8084 172.462 50.1995 173.028C50.5905 173.594 50.866 174.232 51.0103 174.904C51.1545 175.576 51.1646 176.27 51.04 176.947V176.947Z" fill="#AED1EF"/>
<path d="M91.6596 176.947C91.4723 177.963 90.9871 178.901 90.2654 179.643C89.5437 180.384 88.6179 180.895 87.6051 181.111C86.5924 181.327 85.5381 181.239 84.5758 180.857C83.6134 180.475 82.7862 179.817 82.1987 178.965C81.6113 178.114 81.2899 177.108 81.2754 176.075C81.2609 175.041 81.5538 174.027 82.1171 173.159C82.6804 172.292 83.4888 171.611 84.4401 171.202C85.3913 170.794 86.4426 170.676 87.4611 170.863C88.8195 171.127 90.0201 171.912 90.8052 173.049C91.5902 174.187 91.8969 175.586 91.6596 176.947Z" fill="#AED1EF"/>
<path d="M132.279 176.947C132.092 177.963 131.607 178.901 130.885 179.643C130.163 180.384 129.238 180.895 128.225 181.111C127.212 181.327 126.158 181.239 125.195 180.857C124.233 180.475 123.406 179.817 122.818 178.965C122.231 178.114 121.91 177.108 121.895 176.075C121.881 175.041 122.173 174.027 122.737 173.159C123.3 172.292 124.108 171.611 125.06 171.202C126.011 170.794 127.062 170.676 128.081 170.863C129.442 171.121 130.647 171.904 131.433 173.043C132.219 174.182 132.523 175.585 132.279 176.947V176.947Z" fill="#AED1EF"/>
<path d="M172.899 176.947C172.711 177.963 172.226 178.901 171.504 179.643C170.783 180.384 169.857 180.895 168.844 181.111C167.832 181.327 166.777 181.239 165.815 180.857C164.853 180.475 164.025 179.817 163.438 178.965C162.85 178.114 162.529 177.108 162.515 176.075C162.5 175.041 162.793 174.027 163.356 173.159C163.92 172.292 164.728 171.611 165.679 171.202C166.63 170.794 167.682 170.676 168.7 170.863C170.062 171.121 171.267 171.904 172.053 173.043C172.839 174.182 173.143 175.585 172.899 176.947Z" fill="#AED1EF"/>
<path d="M10.4204 211.099C10.2378 212.123 9.75464 213.069 9.03227 213.819C8.3099 214.568 7.38083 215.087 6.36286 215.308C5.34488 215.53 4.28386 215.445 3.31432 215.064C2.34478 214.684 1.51038 214.024 0.916932 213.169C0.323482 212.315 -0.00229481 211.303 -0.0190915 210.263C-0.0358882 209.224 0.257051 208.202 0.822585 207.329C1.38812 206.456 2.20077 205.77 3.15751 205.358C4.11425 204.946 5.17197 204.827 6.19658 205.016C7.55967 205.274 8.76651 206.056 9.55671 207.194C10.3469 208.332 10.6571 209.735 10.4204 211.099V211.099Z" fill="#AED1EF"/>
<path d="M51.04 211.099C50.7885 212.465 50.0037 213.675 48.8582 214.463C47.7127 215.251 46.3004 215.553 44.9319 215.302C43.5635 215.051 42.3511 214.267 41.5613 213.124C40.7716 211.981 40.4692 210.572 40.7208 209.206C40.9723 207.84 41.7571 206.63 42.9026 205.842C43.4698 205.452 44.1085 205.177 44.7822 205.033C45.4558 204.889 46.1513 204.879 46.8289 205.003C47.5064 205.127 48.1528 205.384 48.7312 205.757C49.3095 206.131 49.8084 206.615 50.1995 207.181C50.5905 207.747 50.866 208.384 51.0103 209.056C51.1545 209.729 51.1646 210.423 51.04 211.099V211.099Z" fill="#AED1EF"/>
<path d="M91.6596 211.099C91.4723 212.116 90.9871 213.054 90.2654 213.795C89.5437 214.537 88.6179 215.048 87.6051 215.264C86.5924 215.48 85.5381 215.391 84.5758 215.009C83.6134 214.627 82.7862 213.969 82.1987 213.118C81.6113 212.267 81.2899 211.261 81.2754 210.227C81.2609 209.194 81.5538 208.179 82.1171 207.312C82.6804 206.445 83.4888 205.764 84.4401 205.355C85.3913 204.946 86.4426 204.828 87.4611 205.016C88.8195 205.28 90.0201 206.064 90.8052 207.202C91.5902 208.339 91.8969 209.738 91.6596 211.099Z" fill="#AED1EF"/>
<path d="M132.279 211.099C132.092 212.116 131.607 213.054 130.885 213.795C130.163 214.537 129.238 215.048 128.225 215.264C127.212 215.48 126.158 215.391 125.195 215.009C124.233 214.627 123.406 213.969 122.818 213.118C122.231 212.267 121.91 211.261 121.895 210.227C121.881 209.194 122.173 208.179 122.737 207.312C123.3 206.445 124.108 205.764 125.06 205.355C126.011 204.946 127.062 204.828 128.081 205.016C129.442 205.273 130.647 206.057 131.433 207.196C132.219 208.335 132.523 209.738 132.279 211.099V211.099Z" fill="#AED1EF"/>
<path d="M167.739 215.39C170.631 215.39 172.975 213.051 172.975 210.165C172.975 207.279 170.631 204.94 167.739 204.94C164.848 204.94 162.504 207.279 162.504 210.165C162.504 213.051 164.848 215.39 167.739 215.39Z" fill="#AED1EF"/>
<path d="M10.4204 245.251C10.2378 246.275 9.75464 247.222 9.03227 247.971C8.3099 248.721 7.38083 249.239 6.36286 249.461C5.34488 249.682 4.28386 249.598 3.31432 249.217C2.34478 248.836 1.51038 248.176 0.916932 247.322C0.323482 246.467 -0.00229481 245.456 -0.0190915 244.416C-0.0358882 243.376 0.257051 242.355 0.822585 241.481C1.38812 240.608 2.20077 239.922 3.15751 239.51C4.11425 239.098 5.17197 238.979 6.19658 239.168C7.55967 239.426 8.76651 240.209 9.55671 241.347C10.3469 242.485 10.6571 243.887 10.4204 245.251V245.251Z" fill="#AED1EF"/>
<path d="M51.04 245.252C50.7885 246.617 50.0037 247.827 48.8582 248.615C47.7127 249.404 46.3004 249.705 44.9319 249.454C43.5635 249.203 42.3511 248.42 41.5613 247.277C40.7716 246.134 40.4692 244.724 40.7208 243.358C40.9723 241.993 41.7571 240.783 42.9026 239.994C43.4698 239.604 44.1085 239.329 44.7822 239.185C45.4558 239.041 46.1513 239.031 46.8289 239.156C47.5064 239.28 48.1528 239.536 48.7312 239.91C49.3095 240.283 49.8084 240.767 50.1995 241.333C50.5905 241.899 50.866 242.537 51.0103 243.209C51.1545 243.881 51.1646 244.575 51.04 245.252V245.252Z" fill="#AED1EF"/>
<path d="M91.6596 245.251C91.4723 246.268 90.9871 247.206 90.2654 247.948C89.5437 248.689 88.6179 249.2 87.6051 249.416C86.5924 249.632 85.5381 249.544 84.5758 249.162C83.6134 248.78 82.7862 248.122 82.1987 247.27C81.6113 246.419 81.2899 245.413 81.2754 244.38C81.2609 243.346 81.5538 242.332 82.1171 241.464C82.6804 240.597 83.4888 239.916 84.4401 239.507C85.3913 239.098 86.4426 238.98 87.4611 239.168C88.8195 239.432 90.0201 240.217 90.8052 241.354C91.5902 242.492 91.8969 243.891 91.6596 245.251V245.251Z" fill="#AED1EF"/>
<path d="M132.279 245.251C132.092 246.268 131.607 247.206 130.885 247.948C130.163 248.689 129.238 249.2 128.225 249.416C127.212 249.632 126.158 249.544 125.195 249.162C124.233 248.78 123.406 248.122 122.818 247.27C122.231 246.419 121.91 245.413 121.895 244.38C121.881 243.346 122.173 242.332 122.737 241.464C123.3 240.597 124.108 239.916 125.06 239.507C126.011 239.098 127.062 238.98 128.081 239.168C129.442 239.426 130.647 240.209 131.433 241.348C132.219 242.487 132.523 243.89 132.279 245.251V245.251Z" fill="#AED1EF"/>
<path d="M167.739 249.543C170.631 249.543 172.975 247.203 172.975 244.318C172.975 241.432 170.631 239.093 167.739 239.093C164.848 239.093 162.504 241.432 162.504 244.318C162.504 247.203 164.848 249.543 167.739 249.543Z" fill="#AED1EF"/>
<path d="M10.4204 279.404C10.2378 280.428 9.75464 281.374 9.03227 282.124C8.3099 282.873 7.38083 283.392 6.36286 283.613C5.34488 283.835 4.28386 283.75 3.31432 283.369C2.34478 282.988 1.51038 282.329 0.916932 281.474C0.323482 280.619 -0.00229481 279.608 -0.0190915 278.568C-0.0358882 277.529 0.257051 276.507 0.822585 275.634C1.38812 274.761 2.20077 274.075 3.15751 273.663C4.11425 273.251 5.17197 273.132 6.19658 273.321C7.55967 273.579 8.76651 274.361 9.55671 275.499C10.3469 276.637 10.6571 278.04 10.4204 279.404V279.404Z" fill="#AED1EF"/>
<path d="M51.04 279.404C50.7885 280.77 50.0037 281.98 48.8582 282.768C47.7127 283.556 46.3004 283.858 44.9319 283.607C43.5635 283.356 42.3511 282.572 41.5613 281.429C40.7716 280.286 40.4692 278.876 40.7208 277.511C40.9723 276.145 41.7571 274.935 42.9026 274.147C43.4698 273.757 44.1085 273.482 44.7822 273.338C45.4558 273.194 46.1513 273.184 46.8289 273.308C47.5064 273.432 48.1528 273.689 48.7312 274.062C49.3095 274.436 49.8084 274.919 50.1995 275.485C50.5905 276.052 50.866 276.689 51.0103 277.361C51.1545 278.034 51.1646 278.728 51.04 279.404V279.404Z" fill="#AED1EF"/>
<path d="M91.6596 279.404C91.4723 280.421 90.9871 281.359 90.2654 282.1C89.5437 282.841 88.6179 283.352 87.6051 283.569C86.5924 283.785 85.5381 283.696 84.5758 283.314C83.6134 282.932 82.7862 282.274 82.1987 281.423C81.6113 280.572 81.2899 279.566 81.2754 278.532C81.2609 277.499 81.5538 276.484 82.1171 275.617C82.6804 274.75 83.4888 274.069 84.4401 273.66C85.3913 273.251 86.4426 273.133 87.4611 273.321C88.8195 273.584 90.0201 274.369 90.8052 275.507C91.5902 276.644 91.8969 278.043 91.6596 279.404V279.404Z" fill="#AED1EF"/>
<path d="M132.279 279.404C132.092 280.421 131.607 281.359 130.885 282.1C130.163 282.841 129.238 283.352 128.225 283.569C127.212 283.785 126.158 283.696 125.195 283.314C124.233 282.932 123.406 282.274 122.818 281.423C122.231 280.572 121.91 279.566 121.895 278.532C121.881 277.499 122.173 276.484 122.737 275.617C123.3 274.75 124.108 274.069 125.06 273.66C126.011 273.251 127.062 273.133 128.081 273.321C129.442 273.578 130.647 274.362 131.433 275.501C132.219 276.64 132.523 278.043 132.279 279.404V279.404Z" fill="#AED1EF"/>
<path d="M167.739 283.695C170.631 283.695 172.975 281.356 172.975 278.47C172.975 275.584 170.631 273.245 167.739 273.245C164.848 273.245 162.504 275.584 162.504 278.47C162.504 281.356 164.848 283.695 167.739 283.695Z" fill="#AED1EF"/>
<path d="M10.4204 313.556C10.2378 314.58 9.75464 315.527 9.03227 316.276C8.3099 317.026 7.38083 317.544 6.36286 317.766C5.34488 317.987 4.28386 317.902 3.31432 317.522C2.34478 317.141 1.51038 316.481 0.916932 315.627C0.323482 314.772 -0.00229481 313.76 -0.0190915 312.721C-0.0358882 311.681 0.257051 310.66 0.822585 309.786C1.38812 308.913 2.20077 308.227 3.15751 307.815C4.11425 307.403 5.17198 307.284 6.19658 307.473C7.56285 307.725 8.77381 308.506 9.56516 309.646C10.3565 310.785 10.664 312.191 10.4204 313.556V313.556Z" fill="#AED1EF"/>
<path d="M51.0401 313.556C50.8538 314.572 50.37 315.51 49.6499 316.252C48.9298 316.993 48.0057 317.506 46.9942 317.723C45.9827 317.941 44.9292 317.855 43.9667 317.475C43.0043 317.096 42.1761 316.441 41.5867 315.592C40.9974 314.743 40.6733 313.739 40.6553 312.706C40.6374 311.674 40.9265 310.659 41.486 309.79C42.0456 308.922 42.8505 308.238 43.7992 307.825C44.7479 307.413 45.7978 307.29 46.8162 307.473C48.1825 307.725 49.3935 308.506 50.1848 309.646C50.9761 310.785 51.2836 312.191 51.0401 313.556V313.556Z" fill="#AED1EF"/>
<path d="M91.6596 313.556C91.4723 314.573 90.9871 315.511 90.2654 316.253C89.5437 316.994 88.6179 317.505 87.6051 317.721C86.5924 317.937 85.5381 317.849 84.5758 317.467C83.6134 317.085 82.7862 316.426 82.1987 315.575C81.6113 314.724 81.2899 313.718 81.2754 312.685C81.2609 311.651 81.5538 310.637 82.1171 309.769C82.6804 308.902 83.4888 308.221 84.4401 307.812C85.3913 307.403 86.4426 307.285 87.4611 307.473C88.8227 307.731 90.0274 308.514 90.8136 309.653C91.5997 310.792 91.9037 312.195 91.6596 313.556V313.556Z" fill="#AED1EF"/>
<path d="M132.279 313.556C132.092 314.573 131.607 315.511 130.885 316.253C130.163 316.994 129.238 317.505 128.225 317.721C127.212 317.937 126.158 317.849 125.195 317.467C124.233 317.085 123.406 316.426 122.818 315.575C122.231 314.724 121.91 313.718 121.895 312.685C121.881 311.651 122.173 310.637 122.737 309.769C123.3 308.902 124.108 308.221 125.06 307.812C126.011 307.403 127.062 307.285 128.081 307.473C129.446 307.725 130.654 308.507 131.442 309.647C132.229 310.788 132.53 312.194 132.279 313.556V313.556Z" fill="#AED1EF"/>
<path d="M167.739 317.848C170.631 317.848 172.975 315.508 172.975 312.623C172.975 309.737 170.631 307.397 167.739 307.397C164.848 307.397 162.504 309.737 162.504 312.623C162.504 315.508 164.848 317.848 167.739 317.848Z" fill="#AED1EF"/>
<path d="M10.4204 347.709C10.2378 348.733 9.75464 349.679 9.03227 350.428C8.3099 351.178 7.38083 351.696 6.36286 351.918C5.34488 352.14 4.28386 352.055 3.31432 351.674C2.34478 351.293 1.51038 350.634 0.916932 349.779C0.323482 348.924 -0.00229481 347.913 -0.0190915 346.873C-0.0358882 345.833 0.257051 344.812 0.822585 343.939C1.38812 343.065 2.20077 342.379 3.15751 341.967C4.11425 341.556 5.17198 341.437 6.19658 341.625C7.56285 341.877 8.77381 342.658 9.56516 343.798C10.3565 344.938 10.664 346.344 10.4204 347.709V347.709Z" fill="#AED1EF"/>
<path d="M51.0401 347.709C50.8538 348.725 50.37 349.663 49.6499 350.404C48.9298 351.146 48.0057 351.658 46.9942 351.876C45.9827 352.093 44.9292 352.007 43.9667 351.628C43.0043 351.248 42.1761 350.593 41.5867 349.744C40.9974 348.895 40.6733 347.891 40.6553 346.859C40.6374 345.826 40.9265 344.811 41.486 343.943C42.0456 343.074 42.8505 342.39 43.7992 341.978C44.7479 341.565 45.7978 341.443 46.8162 341.625C48.1825 341.877 49.3935 342.658 50.1848 343.798C50.9761 344.938 51.2836 346.344 51.0401 347.709V347.709Z" fill="#AED1EF"/>
<path d="M91.6596 347.709C91.4723 348.725 90.9871 349.664 90.2654 350.405C89.5437 351.146 88.6179 351.657 87.6051 351.873C86.5924 352.089 85.5381 352.001 84.5758 351.619C83.6134 351.237 82.7862 350.579 82.1987 349.728C81.6113 348.876 81.2899 347.87 81.2754 346.837C81.2609 345.804 81.5538 344.789 82.1171 343.922C82.6804 343.054 83.4888 342.373 84.4401 341.964C85.3913 341.556 86.4426 341.438 87.4611 341.625C88.8227 341.883 90.0274 342.667 90.8136 343.806C91.5997 344.945 91.9037 346.347 91.6596 347.709V347.709Z" fill="#AED1EF"/>
<path d="M132.279 347.709C132.092 348.725 131.607 349.664 130.885 350.405C130.163 351.146 129.238 351.657 128.225 351.873C127.212 352.089 126.158 352.001 125.195 351.619C124.233 351.237 123.406 350.579 122.818 349.728C122.231 348.876 121.91 347.87 121.895 346.837C121.881 345.804 122.173 344.789 122.737 343.922C123.3 343.054 124.108 342.373 125.06 341.964C126.011 341.556 127.062 341.438 128.081 341.625C129.446 341.877 130.654 342.659 131.442 343.8C132.229 344.94 132.53 346.346 132.279 347.709Z" fill="#AED1EF"/>
<path d="M167.739 352C170.631 352 172.975 349.661 172.975 346.775C172.975 343.889 170.631 341.55 167.739 341.55C164.848 341.55 162.504 343.889 162.504 346.775C162.504 349.661 164.848 352 167.739 352Z" fill="#AED1EF"/>
</g>
<defs>
<clipPath id="clip0_8_3900">
<rect width="173" height="352" fill="white"/>
</clipPath>
</defs>
</svg>
