<svg width="53" height="65" viewBox="0 0 53 65" fill="none" xmlns="http://www.w3.org/2000/svg">
<path d="M10.4178 63.5829C10.1987 64.0899 9.61005 64.3232 9.10309 64.104L0.841863 60.533C0.334913 60.3139 0.101592 59.7253 0.320727 59.2184C0.539861 58.7114 1.12847 58.4781 1.63542 58.6972L8.97874 61.8714L12.153 54.5281C12.3721 54.0212 12.9607 53.7879 13.4677 54.007C13.9746 54.2261 14.2079 54.8147 13.9888 55.3217L10.4178 63.5829ZM52.4893 0.830919C50.9444 11.388 46.011 17.213 39.8143 20.8087C33.7337 24.337 26.3945 25.7158 20.274 27.4601C14.0157 29.2437 9.07392 31.3839 6.84467 36.1925C4.59446 41.0464 4.94261 48.9756 10.4295 62.8176L8.57024 63.5546C3.05717 49.6466 2.40535 41.0132 5.03017 35.3513C7.67594 29.6443 13.4842 27.3156 19.7259 25.5367C26.1054 23.7185 33.0162 22.441 38.8105 19.0788C44.4889 15.7839 49.0554 10.484 50.5104 0.541324L52.4893 0.830919Z" fill="#1D9EE1"/>
</svg>
