<svg width="31" height="31" viewBox="0 0 31 31" fill="none" xmlns="http://www.w3.org/2000/svg">
<path d="M9.45312 15.5003C10.7394 18.1566 12.8873 20.299 15.5469 21.5784C15.7431 21.6713 15.96 21.7115 16.1765 21.6951C16.3929 21.6786 16.6013 21.6061 16.7812 21.4847L20.6875 18.8753C20.8601 18.7582 21.0595 18.6868 21.2672 18.6677C21.4748 18.6486 21.6839 18.6824 21.875 18.7659L29.1875 21.9065C29.4374 22.0106 29.6462 22.1939 29.7817 22.4282C29.9173 22.6625 29.972 22.9349 29.9375 23.2034C29.7057 25.0124 28.8228 26.6749 27.4538 27.8799C26.0849 29.085 24.3238 29.7499 22.5 29.7503C16.8641 29.7503 11.4591 27.5115 7.47398 23.5263C3.48883 19.5412 1.25 14.1361 1.25 8.5003C1.25041 6.67654 1.91534 4.91542 3.12035 3.54648C4.32537 2.17753 5.98791 1.29456 7.79688 1.0628C8.06537 1.02831 8.33776 1.08304 8.5721 1.21856C8.80644 1.35408 8.98973 1.56287 9.09375 1.8128L12.2344 9.14092C12.316 9.32896 12.3502 9.53421 12.3339 9.73857C12.3175 9.94293 12.2512 10.1401 12.1406 10.3128L9.53125 14.2815C9.41508 14.461 9.3469 14.6674 9.33322 14.8807C9.31954 15.0941 9.36082 15.3074 9.45312 15.5003V15.5003Z" stroke="#1D9EE1" stroke-width="2" stroke-linecap="round" stroke-linejoin="round"/>
</svg>
