<svg width="60" height="60" viewBox="0 0 60 60" fill="none" xmlns="http://www.w3.org/2000/svg">
<path fill-rule="evenodd" clip-rule="evenodd" d="M1.17188 13.5023H58.7768L58.7801 3.75621C58.7801 2.33449 57.6142 1.17188 56.1925 1.17188H3.75621C2.33449 1.17188 1.17188 2.33449 1.17188 3.75621V13.5023Z" fill="#1D9EE1"/>
<path fill-rule="evenodd" clip-rule="evenodd" d="M33.472 19.2092V39.0436H24.8556H7.24066V19.2092H33.472ZM3.75621 58.8282H56.1926C57.6143 58.8282 58.7802 57.6623 58.7802 56.2406L58.7769 13.5024H1.17188V56.2406C1.17188 57.6623 2.33449 58.8282 3.75621 58.8282ZM36.3155 46.0094C38.365 46.0094 40.0259 47.6703 40.0259 49.7198C40.0259 51.766 38.365 53.4269 36.3155 53.4269C34.2693 53.4269 32.6085 51.766 32.6085 49.7198C32.6085 47.6703 34.2693 46.0094 36.3155 46.0094ZM23.6332 46.0094C25.6827 46.0094 27.3402 47.6703 27.3402 49.7198C27.3402 51.766 25.6827 53.4269 23.6332 53.4269C21.587 53.4269 19.9262 51.766 19.9262 49.7198C19.9262 47.6703 21.587 46.0094 23.6332 46.0094ZM10.9509 46.0094C12.9971 46.0094 14.6579 47.6703 14.6579 49.7198C14.6579 51.766 12.997 53.4269 10.9509 53.4269C8.90144 53.4269 7.24055 51.766 7.24055 49.7198C7.24066 47.6703 8.90144 46.0094 10.9509 46.0094ZM49.001 46.0094C51.0472 46.0094 52.708 47.6703 52.708 49.7198C52.708 51.766 51.0471 53.4269 49.001 53.4269C46.9515 53.4269 45.2906 51.766 45.2906 49.7198C45.2906 47.6703 46.9515 46.0094 49.001 46.0094Z" fill="white"/>
<path fill-rule="evenodd" clip-rule="evenodd" d="M16.0498 25.165L21.9292 34.4294L26.2375 27.6431L33.472 39.0434V19.209H7.24066V39.0434L16.0498 25.165Z" fill="#CBF4FB"/>
<path fill-rule="evenodd" clip-rule="evenodd" d="M7.24066 49.7197C7.24066 51.7659 8.90156 53.4268 10.9511 53.4268C12.9973 53.4268 14.658 51.7659 14.658 49.7197C14.658 47.6702 12.9971 46.0093 10.9511 46.0093C8.90144 46.0093 7.24066 47.6702 7.24066 49.7197Z" fill="#D0F2D2"/>
<path fill-rule="evenodd" clip-rule="evenodd" d="M7.24066 39.0434H24.8556L21.9292 34.4294L16.0498 25.165L7.24066 39.0434Z" fill="#A0E5A5"/>
<path fill-rule="evenodd" clip-rule="evenodd" d="M24.8556 39.0434H33.472L26.2375 27.6431L21.9292 34.4294L24.8556 39.0434Z" fill="#A0E5A5"/>
<path fill-rule="evenodd" clip-rule="evenodd" d="M19.9262 49.7197C19.9262 51.7659 21.5871 53.4268 23.6332 53.4268C25.6827 53.4268 27.3402 51.7659 27.3402 49.7197C27.3402 47.6702 25.6827 46.0093 23.6332 46.0093C21.587 46.0093 19.9262 47.6702 19.9262 49.7197Z" fill="#D0F2D2"/>
<path fill-rule="evenodd" clip-rule="evenodd" d="M32.6085 49.7197C32.6085 51.7659 34.2694 53.4268 36.3155 53.4268C38.365 53.4268 40.0259 51.7659 40.0259 49.7197C40.0259 47.6702 38.365 46.0093 36.3155 46.0093C34.2693 46.0093 32.6085 47.6702 32.6085 49.7197Z" fill="#D0F2D2"/>
<path fill-rule="evenodd" clip-rule="evenodd" d="M45.2906 49.7197C45.2906 51.7659 46.9515 53.4268 49.001 53.4268C51.0472 53.4268 52.708 51.7659 52.708 49.7197C52.708 47.6702 51.0471 46.0093 49.001 46.0093C46.9515 46.0093 45.2906 47.6702 45.2906 49.7197Z" fill="#D0F2D2"/>
<path d="M46.5722 7.33691C46.5722 6.68969 46.0475 6.16504 45.4003 6.16504H45.3936C44.7464 6.16504 44.225 6.68969 44.225 7.33691C44.225 7.98414 44.753 8.50879 45.4002 8.50879C46.0474 8.50879 46.5722 7.98414 46.5722 7.33691Z" fill="#303030"/>
<path d="M52.8934 7.33691C52.8934 6.68969 52.3688 6.16504 51.7215 6.16504H51.7149C51.0676 6.16504 50.5463 6.68969 50.5463 7.33691C50.5463 7.98414 51.0742 8.50879 51.7214 8.50879C52.3686 8.50879 52.8934 7.98414 52.8934 7.33691Z" fill="#303030"/>
<path d="M40.2543 7.33691C40.2543 6.68969 39.7296 6.16504 39.0824 6.16504H39.0757C38.4285 6.16504 37.9071 6.68969 37.9071 7.33691C37.9071 7.98414 38.435 8.50879 39.0823 8.50879C39.7295 8.50879 40.2543 7.98414 40.2543 7.33691Z" fill="#303030"/>
<path d="M7.05856 7.33691C7.05856 7.98414 7.58321 8.50879 8.23044 8.50879H25.8222C26.4694 8.50879 26.994 7.98414 26.994 7.33691C26.994 6.68969 26.4694 6.16504 25.8222 6.16504H8.23044C7.58333 6.16504 7.05856 6.68969 7.05856 7.33691Z" fill="#303030"/>
<path d="M56.1925 0H19.5541C18.9069 0 18.3823 0.524648 18.3823 1.17188C18.3823 1.8191 18.9069 2.34375 19.5541 2.34375H56.1925C56.9732 2.34375 57.6082 2.97738 57.6082 3.75621V12.3305H2.34375V3.75621C2.34375 2.97738 2.97738 2.34375 3.75621 2.34375H9.03105C9.67828 2.34375 10.2029 1.8191 10.2029 1.17188C10.2029 0.524648 9.67828 0 9.03105 0H3.75621C1.68504 0 0 1.68504 0 3.75621V56.2404C0 58.3134 1.68504 60 3.75621 60H56.1925C58.2654 60 59.952 58.3134 59.952 56.2404V3.75621C59.952 1.68504 58.2654 0 56.1925 0ZM56.1925 57.6562H3.75621C2.97738 57.6562 2.34375 57.0211 2.34375 56.2404V14.6742H57.6082V56.2404C57.6082 57.0211 56.973 57.6562 56.1925 57.6562Z" fill="#303030"/>
<path d="M10.9509 44.8374C8.2589 44.8374 6.06866 47.0275 6.06866 49.7197C6.06866 52.4099 8.25878 54.5987 10.9509 54.5987C13.6412 54.5987 15.8298 52.4099 15.8298 49.7197C15.8298 47.0276 13.6412 44.8374 10.9509 44.8374ZM10.9509 52.255C9.55124 52.255 8.41241 51.1177 8.41241 49.7198C8.41241 48.3201 9.55113 47.1813 10.9509 47.1813C12.3487 47.1813 13.486 48.3201 13.486 49.7198C13.486 51.1177 12.3489 52.255 10.9509 52.255Z" fill="#303030"/>
<path d="M23.6332 44.8374C20.9429 44.8374 18.7543 47.0275 18.7543 49.7197C18.7543 52.4099 20.943 54.5987 23.6332 54.5987C26.3234 54.5987 28.5121 52.4099 28.5121 49.7197C28.5121 47.0276 26.3235 44.8374 23.6332 44.8374ZM23.6332 52.255C22.2353 52.255 21.0981 51.1177 21.0981 49.7198C21.0981 48.3201 22.2354 47.1813 23.6332 47.1813C25.031 47.1813 26.1683 48.3201 26.1683 49.7198C26.1683 51.1177 25.0311 52.255 23.6332 52.255Z" fill="#303030"/>
<path d="M36.3155 44.8374C33.6252 44.8374 31.4366 47.0275 31.4366 49.7197C31.4366 52.4099 33.6253 54.5987 36.3155 54.5987C39.0075 54.5987 41.1977 52.4099 41.1977 49.7197C41.1976 47.0276 39.0075 44.8374 36.3155 44.8374ZM36.3155 52.255C34.9176 52.255 33.7804 51.1177 33.7804 49.7198C33.7804 48.3201 34.9177 47.1813 36.3155 47.1813C37.7152 47.1813 38.854 48.3201 38.854 49.7198C38.8539 51.1177 37.7152 52.255 36.3155 52.255Z" fill="#303030"/>
<path d="M49.001 44.8374C46.309 44.8374 44.1188 47.0275 44.1188 49.7197C44.1188 52.4099 46.3089 54.5987 49.001 54.5987C51.6913 54.5987 53.8799 52.4099 53.8799 49.7197C53.8799 47.0276 51.6912 44.8374 49.001 44.8374ZM49.001 52.255C47.6014 52.255 46.4625 51.1177 46.4625 49.7198C46.4625 48.3201 47.6012 47.1813 49.001 47.1813C50.399 47.1813 51.5362 48.3201 51.5362 49.7198C51.5362 51.1177 50.3989 52.255 49.001 52.255Z" fill="#303030"/>
<path d="M6.07289 39.1257C6.11508 39.7316 6.63281 40.2153 7.2423 40.2153H33.4704C34.1099 40.2153 34.6439 39.6818 34.6439 39.0434V19.209C34.6439 18.5618 34.1193 18.0371 33.472 18.0371H7.24066C6.59344 18.0371 6.06879 18.5618 6.06879 19.209V39.0433C6.07019 39.0709 6.07148 39.0983 6.07289 39.1257ZM25.4999 37.8716L23.3166 34.4305L26.2372 29.8298L31.3405 37.8716H25.4999ZM22.7242 37.8716H9.37242L16.0495 27.352L22.7242 37.8716ZM32.3002 20.3809V35.0097L27.2269 27.0152C27.0119 26.6764 26.6386 26.4712 26.2376 26.4712C25.8364 26.4712 25.4632 26.6764 25.2482 27.0151L21.9289 32.2435L17.0393 24.5373C16.8244 24.1985 16.451 23.9933 16.0499 23.9932C16.0499 23.9932 16.0499 23.9932 16.0498 23.9932C15.6486 23.9932 15.2754 24.1984 15.0603 24.537L8.41242 35.0104V20.3809H32.3002Z" fill="#303030"/>
<path d="M39.5906 20.3809H52.6615C53.3087 20.3809 53.8334 19.8562 53.8334 19.209C53.8334 18.5618 53.3087 18.0371 52.6615 18.0371H39.5906C38.9434 18.0371 38.4188 18.5618 38.4188 19.209C38.4188 19.8562 38.9434 20.3809 39.5906 20.3809Z" fill="#303030"/>
<path d="M39.5906 26.875H52.6615C53.3087 26.875 53.8334 26.3504 53.8334 25.7031C53.8334 25.0559 53.3087 24.5312 52.6615 24.5312H39.5906C38.9434 24.5312 38.4188 25.0559 38.4188 25.7031C38.4188 26.3504 38.9434 26.875 39.5906 26.875Z" fill="#303030"/>
<path d="M39.5906 33.3662H52.6615C53.3087 33.3662 53.8334 32.8416 53.8334 32.1943C53.8334 31.5471 53.3087 31.0225 52.6615 31.0225H39.5906C38.9434 31.0225 38.4188 31.5471 38.4188 32.1943C38.4188 32.8416 38.9434 33.3662 39.5906 33.3662Z" fill="#303030"/>
<path d="M39.5906 39.8564H52.6615C53.3087 39.8564 53.8334 39.3318 53.8334 38.6846C53.8334 38.0373 53.3087 37.5127 52.6615 37.5127H39.5906C38.9434 37.5127 38.4188 38.0373 38.4188 38.6846C38.4188 39.3318 38.9434 39.8564 39.5906 39.8564Z" fill="#303030"/>
<path d="M14.2925 2.34375H14.2992C14.9465 2.34375 15.4678 1.8191 15.4678 1.17188C15.4678 0.524648 14.9399 0 14.2927 0C13.6454 0 13.1208 0.524648 13.1208 1.17188C13.1208 1.8191 13.6454 2.34375 14.2925 2.34375Z" fill="#303030"/>
</svg>
