<svg width="60" height="60" viewBox="0 0 60 60" fill="none" xmlns="http://www.w3.org/2000/svg">
<path d="M55.5969 6.28174H4.40309C2.45766 6.28174 0.880554 7.85873 0.880554 9.80428V36.8101H59.1193V9.80416C59.1193 7.85873 57.5424 6.28174 55.5969 6.28174Z" fill="white"/>
<path d="M57.4755 32.1134V19.6672H54.6575V6.28174H14.7358V8.39521H2.64185V29.5302H14.7358V34.4617H41.272V36.81H42.4309L48.2115 32.1134H57.4755Z" fill="white"/>
<path d="M42.9159 0.880859H17.0842V32.1138H42.9159V0.880859Z" fill="#FDCC15"/>
<path d="M42.9158 32.1134V2.05469H35.8708V8.39523H17.0842V29.9999V32.1134H38.2192H41.272H42.9158ZM38.2192 29.7651H36.2231V20.8414H38.2192V29.7651Z" fill="#F5B21B"/>
<path d="M33.8747 10.7437H4.99017V27.182H33.8747V10.7437Z" fill="#1D9EE1"/>
<path d="M0.880676 43.855C0.880676 45.8004 2.45767 47.3776 4.40322 47.3776H55.5969C57.5424 47.3776 59.1195 45.8006 59.1195 43.855V36.8101H0.880676V43.855Z" fill="#B0BEC5"/>
<path d="M41.7417 54.4229H18.2583C16.9613 54.4229 15.91 55.4743 15.91 56.7712V59.1195H44.09V56.7712C44.09 55.4743 43.0386 54.4229 41.7417 54.4229Z" fill="#E0E0E0"/>
<path d="M38.2192 47.3779H21.7808V54.4229H38.2192V47.3779Z" fill="#B0BEC5"/>
<path d="M31.7613 40.3325H28.2388V43.8551H31.7613V40.3325Z" fill="white"/>
<path d="M33.8747 24.8335H4.99017V27.1818H33.8747V24.8335Z" fill="#077FA6"/>
<path d="M28.2388 14.7358L21.1997 22.2725L16.0274 17.2016L5.92957 27.182H33.8748V19.5499L28.2388 14.7358Z" fill="#9CCC65"/>
<path d="M18.8077 24.8336L21.1997 22.2724L19.5224 20.6279L15.5945 24.8336H8.30543L5.92957 27.1819H33.8748V24.8336H18.8077Z" fill="#7CB342"/>
<path d="M52.3092 4.40332H38.2192V18.4934H52.3092V4.40332Z" fill="#F44336"/>
<path d="M47.6126 11.4481L42.9158 14.3836V8.5127L47.6126 11.4481Z" fill="white"/>
<path d="M55.1272 22.0156H40.5675V29.7651H43.6204V32.818L47.3777 29.7651H55.1272V22.0156Z" fill="#C45E9A"/>
<path d="M44.09 56.771H15.91V59.1193H44.09V56.771Z" fill="#BDBDBD"/>
<path d="M38.2192 47.3779H21.7808V49.7263H38.2192V47.3779Z" fill="#90A4AE"/>
<path d="M55.5969 5.40117H53.1899V3.52254H43.7965V0H16.2035V5.40117H4.40309C1.9752 5.40117 0 7.37637 0 9.80426V43.8552C0 46.2831 1.9752 48.2583 4.40309 48.2583H20.9002V53.542H18.2583C16.4779 53.542 15.0293 54.9905 15.0293 56.771V60H44.9707V56.771C44.9707 54.9905 43.5222 53.542 41.7417 53.542H39.0998V48.2583H55.5969C58.0248 48.2583 60 46.2831 60 43.8552V9.80426C60 7.37637 58.0248 5.40117 55.5969 5.40117ZM51.4286 5.28375V17.6125H39.0998V5.28375H51.4286ZM32.9941 11.6243V17.6395L28.1702 13.519L21.1718 21.0122L16.0248 15.9657L5.87086 26.0018V11.6243H32.9941ZM28.3073 15.9525L32.9941 19.9559V26.3014H18.642L28.3073 15.9525ZM16.232 26.3013H8.0734L16.0301 18.4372L19.9695 22.2997L16.232 26.3013ZM41.7417 55.3034C42.551 55.3034 43.2094 55.9617 43.2094 56.771V58.2387H16.7906V56.771C16.7906 55.9617 17.449 55.3034 18.2583 55.3034H41.7417ZM22.6615 53.542V48.2583H37.3386V53.542H22.6615ZM58.2388 43.8552C58.2388 45.312 57.0536 46.4971 55.5969 46.4971H4.40309C2.94645 46.4971 1.76121 45.312 1.76121 43.8552V37.6908H58.2387V43.8552H58.2388ZM58.2388 35.9296H1.76121V9.80426C1.76121 8.3475 2.94645 7.16238 4.40309 7.16238H16.2035V9.86297H4.10953V28.0625H16.2035V31.2328H13.5616V32.994H37.8669V31.2328H17.9647V28.0625H34.7554V9.86297H17.9647V1.76121H42.0352V3.52242H37.3385V19.3737H42.0352V21.1349H39.6868V30.6457H42.7397V34.668L47.6903 30.6457H56.0078V21.1349H43.7965V19.3737H53.1899V7.16238H55.5969C57.0536 7.16238 58.2388 8.3475 58.2388 9.80426V35.9296ZM41.4482 28.8845V22.8962H54.2466V28.8845H47.065L44.5009 30.9679V28.8845H41.4482Z" fill="#303030"/>
<path d="M32.6419 39.4521H27.3582V44.7359H32.6419V39.4521ZM30.8807 42.9746H29.1195V41.2134H30.8807V42.9746Z" fill="#303030"/>
<path d="M42.0353 6.92383V15.9723L49.2742 11.4482L42.0353 6.92383ZM43.7965 10.1016L45.951 11.4481L43.7965 12.7946V10.1016Z" fill="#303030"/>
<path d="M11.8003 31.2324H10.0391V32.9936H11.8003V31.2324Z" fill="white"/>
<path d="M35.5186 7.16209H32.1134V5.40088H35.5186V7.16209ZM30.3522 7.16209H22.1331V5.40088H30.3522V7.16209Z" fill="white"/>
<path d="M13.5616 15.1465H11.2133V13.3853H13.5616V15.1465ZM9.45206 15.1465H7.69073V13.3853H9.45195V15.1465H9.45206Z" fill="white"/>
<path d="M24.8123 24.8554L23.5251 23.6533L24.7272 22.3662L26.0144 23.5683L24.8123 24.8554ZM27.2166 22.281L25.9294 21.0789L28.4566 18.373L29.7438 19.5752L27.2166 22.281Z" fill="white"/>
<path d="M52.544 26.771H50.7828V25.0098H52.544V26.771ZM49.0215 26.771H43.1506V25.0098H49.0215V26.771Z" fill="white"/>
</svg>
