<svg width="60" height="60" viewBox="0 0 60 60" fill="none" xmlns="http://www.w3.org/2000/svg">
<g clip-path="url(#clip0_31_188)">
<path fill-rule="evenodd" clip-rule="evenodd" d="M4.77539 20.6246C6.75738 20.6246 8.37891 19.0031 8.37891 17.0211V13.5936L11.0157 4.21826H4.68762L1.17188 13.5937V17.0212C1.17188 18.814 2.49867 20.3119 4.21875 20.5815C4.40027 20.6099 4.58613 20.6246 4.77539 20.6246Z" fill="#1D9EE1"/>
<path fill-rule="evenodd" clip-rule="evenodd" d="M8.37891 17.0211C8.37891 19.003 10.0004 20.6246 11.9824 20.6246C13.9644 20.6246 15.5859 19.0031 15.5859 17.0211V13.5936L17.3439 4.21826H11.0157L8.37891 13.5936V17.0211Z" fill="#FFC144"/>
<path fill-rule="evenodd" clip-rule="evenodd" d="M15.5859 17.0211C15.5859 19.003 17.2075 20.6246 19.1895 20.6246C21.1713 20.6246 22.793 19.0031 22.793 17.0211V13.5936L23.6719 4.21826H17.3438L15.5859 13.5936V17.0211Z" fill="#1D9EE1"/>
<path fill-rule="evenodd" clip-rule="evenodd" d="M22.793 17.0211C22.793 19.003 24.4145 20.6246 26.3965 20.6246C28.3784 20.6246 30 19.0031 30 17.0211V4.21826H23.6719L22.793 13.5936V17.0211Z" fill="#FFC144"/>
<path fill-rule="evenodd" clip-rule="evenodd" d="M30 4.21826V17.0211C30 19.003 31.6215 20.6246 33.6035 20.6246C35.5855 20.6246 37.207 19.0031 37.207 17.0211V13.5936L36.3281 4.21826H30Z" fill="#1D9EE1"/>
<path fill-rule="evenodd" clip-rule="evenodd" d="M36.3281 4.21826L37.207 13.5936V17.0211C37.207 19.003 38.8286 20.6246 40.8105 20.6246C42.7925 20.6246 44.4141 19.0031 44.4141 17.0211V13.5936L42.6561 4.21826H36.3281Z" fill="#FFC144"/>
<path fill-rule="evenodd" clip-rule="evenodd" d="M42.6561 4.21826L44.4141 13.5936V17.0211C44.4141 19.003 46.0356 20.6246 48.0176 20.6246C49.9994 20.6246 51.6211 19.0031 51.6211 17.0211V13.5936L48.9843 4.21826H42.6561Z" fill="#1D9EE1"/>
<path fill-rule="evenodd" clip-rule="evenodd" d="M48.9843 4.21826L51.6211 13.5936V17.0211C51.6211 19.003 53.2426 20.6246 55.2246 20.6246C55.4139 20.6246 55.5997 20.6099 55.7812 20.5814C57.5013 20.3117 58.8281 18.8138 58.8281 17.0211V13.5936L55.3124 4.21826H48.9843Z" fill="#FFC144"/>
<path fill-rule="evenodd" clip-rule="evenodd" d="M51.6211 17.021C51.6211 19.0029 49.9995 20.6245 48.0176 20.6245C46.0356 20.6245 44.4141 19.003 44.4141 17.021C44.4141 19.0029 42.7924 20.6245 40.8105 20.6245C38.8286 20.6245 37.207 19.003 37.207 17.021C37.207 19.0029 35.5855 20.6245 33.6035 20.6245C31.6215 20.6245 30 19.003 30 17.021C30 19.0029 28.3784 20.6245 26.3965 20.6245C24.4145 20.6245 22.793 19.003 22.793 17.021C22.793 19.0029 21.1713 20.6245 19.1895 20.6245C17.2075 20.6245 15.5859 19.003 15.5859 17.021C15.5859 19.0029 13.9644 20.6245 11.9824 20.6245C10.0004 20.6245 8.37891 19.003 8.37891 17.021C8.37891 19.0029 6.75738 20.6245 4.77539 20.6245C4.58613 20.6245 4.40027 20.6097 4.21875 20.5812V41.7191H46.7551L45.4199 38.0997C45.2128 37.4761 45.8138 36.8888 46.4292 37.0978L55.7812 40.5462V20.5812C55.5997 20.6096 55.4139 20.6244 55.2246 20.6244C53.2426 20.6244 51.6211 19.0029 51.6211 17.021Z" fill="white"/>
<path fill-rule="evenodd" clip-rule="evenodd" d="M55.7813 40.5466L46.4292 37.0982C45.8137 36.8893 45.2128 37.4766 45.4198 38.1001L46.7551 41.7195L48.4845 46.407L49.3522 48.7587C49.5446 49.4416 50.2954 49.5405 50.6937 49.1421L52.3867 47.4491L55.2085 50.2709C55.5201 50.5825 56.0254 50.5825 56.337 50.2709L58.5943 48.0135C58.9059 47.7019 58.9059 47.1966 58.5943 46.885L55.7725 44.0632L57.4655 42.3702C57.8781 41.9583 57.7184 41.24 57.1506 41.0515L55.7813 40.5466Z" fill="#E3EAEF"/>
<path fill-rule="evenodd" clip-rule="evenodd" d="M48.4845 46.4067L46.755 41.7192H4.21875V44.0631C4.21875 45.3522 5.27344 46.4069 6.5625 46.4069H24.6813H34.1467H48.4845V46.4067Z" fill="#A7BDCD"/>
<path fill-rule="evenodd" clip-rule="evenodd" d="M35.2734 55.7819L34.1467 46.4067H24.6813L23.5547 55.7819H35.2734Z" fill="#6D91AC"/>
<path d="M60 17.0211V13.5936C60 13.4531 59.9747 13.3137 59.9254 13.1822L56.4096 3.80682C56.2382 3.34943 55.8008 3.04639 55.3124 3.04639H4.68762C4.19918 3.04639 3.76184 3.34943 3.59039 3.80682L0.0746484 13.1823C0.0253125 13.3138 0 13.4532 0 13.5937V17.0212C0 19.0448 1.26586 20.7773 3.04688 21.4714V44.0631C3.04688 46.0016 4.62398 47.5787 6.5625 47.5787H23.3643L22.5108 54.6101H18.8672C18.22 54.6101 17.6953 55.1347 17.6953 55.7819C17.6953 56.4292 18.22 56.9538 18.8672 56.9538H39.9609C40.6082 56.9538 41.1328 56.4292 41.1328 55.7819C41.1328 55.1347 40.6082 54.6101 39.9609 54.6101H36.3173L35.4639 47.5787H47.6678L48.2398 49.129C48.4491 49.8063 48.9643 50.3109 49.6277 50.4841C50.3032 50.6605 51.0292 50.4636 51.5223 49.9705L52.3867 49.1062L54.3798 51.0994C54.7519 51.4714 55.2465 51.6763 55.7727 51.6763C56.2989 51.6763 56.7935 51.4713 57.1656 51.0994L59.4231 48.8419C60.1909 48.0738 60.1909 46.8241 59.423 46.0561L57.4298 44.063L58.2936 43.1993C58.779 42.7147 58.9741 42.0252 58.8157 41.3548C58.6593 40.6926 58.1839 40.1679 57.5421 39.9465L56.9531 39.7295V21.4714C58.7341 20.7772 60 19.0448 60 17.0211ZM57.6562 13.8062V17.0211C57.6562 18.3619 56.5654 19.4528 55.2246 19.4528C53.8839 19.4528 52.793 18.362 52.793 17.0211V13.5936C52.793 13.4863 52.7783 13.3796 52.7491 13.2763L50.5311 5.39002H54.5003L57.6562 13.8062ZM9.55078 13.7554L11.9036 5.39025H15.9319L14.4342 13.3779C14.4209 13.449 14.4142 13.5214 14.4142 13.5938V17.0213C14.4142 18.3621 13.3233 19.453 11.9825 19.453C10.6418 19.453 9.5509 18.3622 9.5509 17.0213V13.7554H9.55078ZM16.7578 13.7026L18.3164 5.39014H22.385L21.6263 13.4843C21.6229 13.5207 21.6212 13.5572 21.6212 13.5937V17.0212C21.6212 18.362 20.5303 19.4529 19.1896 19.4529C17.8488 19.4529 16.7578 18.362 16.7578 17.0211V13.7026ZM23.9648 13.6485L24.7391 5.39014H28.8281V17.0211C28.8281 18.3619 27.7372 19.4528 26.3965 19.4528C25.0557 19.4528 23.9648 18.362 23.9648 17.0211V13.6485ZM31.1719 5.39014H35.2609L36.0352 13.6485V17.0211C36.0352 18.3619 34.9443 19.4528 33.6035 19.4528C32.2628 19.4528 31.1719 18.362 31.1719 17.0211V5.39014ZM38.3739 13.4843L37.6151 5.39014H41.6836L43.2422 13.7026V17.0211C43.2422 18.3619 42.1513 19.4528 40.8105 19.4528C39.4698 19.4528 38.3789 18.362 38.3789 17.0211V13.5936C38.3789 13.5572 38.3771 13.5207 38.3739 13.4843ZM45.5659 13.3778L44.0682 5.39014H48.0966L50.4493 13.7553V17.0211C50.4493 18.3619 49.3584 19.4528 48.0177 19.4528C46.677 19.4528 45.5859 18.362 45.5859 17.0211V13.5936C45.5859 13.5213 45.5793 13.4489 45.5659 13.3778ZM2.34375 13.8062L5.49973 5.39014H9.46887L7.25086 13.2764C7.2218 13.3796 7.20703 13.4864 7.20703 13.5937V17.0212C7.20703 18.362 6.11613 19.4529 4.77539 19.4529C3.43465 19.4529 2.34375 18.362 2.34375 17.0211V13.8062ZM33.9564 54.6101H24.8718L25.7252 47.5787H33.1029L33.9564 54.6101ZM57.5014 47.4491L55.7728 49.1776L53.2154 46.6202C52.9866 46.3914 52.6867 46.277 52.3868 46.277C52.0869 46.277 51.7869 46.3915 51.5582 46.6202L50.2829 47.8955L46.8123 38.4881L56.2211 41.9573L54.9441 43.2342C54.7243 43.4539 54.6008 43.7521 54.6008 44.0628C54.6008 44.3736 54.7243 44.6717 54.9441 44.8915L57.5014 47.4491ZM46.8345 35.9985C46.825 35.9949 46.8153 35.9915 46.8057 35.9883C46.0954 35.7472 45.3221 35.9267 44.7882 36.4571C44.2554 36.9865 44.0713 37.7573 44.3075 38.4691C44.3116 38.4813 44.3159 38.4934 44.3203 38.5055L45.0736 40.5472H34.6869C34.0397 40.5472 33.515 41.0719 33.515 41.7191C33.515 42.3663 34.0397 42.891 34.6869 42.891H45.9382L46.8029 45.2347H6.5625C5.91633 45.2347 5.39062 44.709 5.39062 44.0628V42.891H24.1402C24.7874 42.891 25.312 42.3663 25.312 41.7191C25.312 41.0719 24.7874 40.5472 24.1402 40.5472H5.39062V21.7555C6.57773 21.602 7.62996 21.0125 8.37891 20.1514C9.25512 21.1588 10.5456 21.7965 11.9824 21.7965C13.4193 21.7965 14.7097 21.1588 15.5859 20.1514C16.4621 21.1588 17.7526 21.7965 19.1895 21.7965C20.6263 21.7965 21.9168 21.1588 22.793 20.1514C23.6692 21.1588 24.9596 21.7965 26.3965 21.7965C27.8333 21.7965 29.1238 21.1588 30 20.1514C30.8762 21.1588 32.1667 21.7965 33.6035 21.7965C35.0404 21.7965 36.3308 21.1588 37.207 20.1514C38.0832 21.1588 39.3737 21.7965 40.8105 21.7965C42.2474 21.7965 43.5379 21.1588 44.4141 20.1514C45.2903 21.1588 46.5807 21.7965 48.0176 21.7965C49.4544 21.7965 50.7449 21.1588 51.6211 20.1514C52.37 21.0125 53.4223 21.602 54.6094 21.7555V38.8652L46.8345 35.9985Z" fill="#303030"/>
<path d="M31.7578 25.3125C31.1106 25.3125 30.5859 25.8371 30.5859 26.4844V33.5157C30.5859 34.1619 30.0602 34.6876 29.4141 34.6876C28.7679 34.6876 28.2422 34.1619 28.2422 33.5157V26.4844C28.2422 25.8371 27.7175 25.3125 27.0703 25.3125C26.4231 25.3125 25.8984 25.8371 25.8984 26.4844V33.5157C25.8984 35.4543 27.4755 37.0314 29.4141 37.0314C31.3526 37.0314 32.9297 35.4543 32.9297 33.5157V26.4844C32.9297 25.8371 32.4049 25.3125 31.7578 25.3125Z" fill="#303030"/>
<path d="M20.6249 25.3125H18.2811C17.6339 25.3125 17.1093 25.8371 17.1093 26.4844V35.8594C17.1093 36.5066 17.6339 37.0312 18.2811 37.0312H20.6249C22.5634 37.0312 24.1405 35.4541 24.1405 33.5156C24.1405 32.6161 23.8009 31.7944 23.2432 31.1719C23.8009 30.5494 24.1405 29.7277 24.1405 28.8281C24.1404 26.8896 22.5634 25.3125 20.6249 25.3125ZM20.6249 27.6562C21.271 27.6562 21.7968 28.182 21.7968 28.8281C21.7968 29.4743 21.271 30 20.6249 30H19.453V27.6562H20.6249ZM20.6249 34.6876H19.453V32.3439H20.6249C21.271 32.3439 21.7968 32.8696 21.7968 33.5157C21.7968 34.1619 21.2709 34.6876 20.6249 34.6876Z" fill="#303030"/>
<path d="M40.547 25.3125C39.8998 25.3125 39.3751 25.8371 39.3751 26.4844V29.8389C39.3751 30.485 38.8494 31.0107 38.2032 31.0107C37.5571 31.0107 37.0314 30.485 37.0314 29.8389V26.4844C37.0314 25.8371 36.5067 25.3125 35.8595 25.3125C35.2123 25.3125 34.6876 25.8371 34.6876 26.4844V29.8389C34.6876 31.3665 35.6674 32.6692 37.0314 33.1529V35.8595C37.0314 36.5067 37.556 37.0314 38.2032 37.0314C38.8505 37.0314 39.3751 36.5067 39.3751 35.8595V33.1529C40.7391 32.6692 41.7189 31.3666 41.7189 29.8389V26.4844C41.7189 25.8371 41.1942 25.3125 40.547 25.3125Z" fill="#303030"/>
<path d="M29.414 40.5474H29.4132C28.766 40.5474 28.2418 41.072 28.2418 41.7192C28.2418 42.3665 28.7668 42.8911 29.414 42.8911C30.0613 42.8911 30.5859 42.3665 30.5859 41.7192C30.5859 41.072 30.0612 40.5474 29.414 40.5474Z" fill="#303030"/>
</g>
<defs>
<clipPath id="clip0_31_188">
<rect width="60" height="60" fill="white"/>
</clipPath>
</defs>
</svg>
