<svg width="41" height="60" viewBox="0 0 41 60" fill="none" xmlns="http://www.w3.org/2000/svg">
<path d="M32.6476 7.93824V39.7068L16.7633 41.4648L15.3452 41.3078L0.879028 39.7068V7.93824L12.966 6.33258L16.7633 5.82861L32.6476 7.93824Z" fill="white"/>
<path d="M32.6476 39.7065V41.4927C32.6476 44.4051 30.286 46.7667 27.3735 46.7667H6.15308C3.23946 46.7667 0.879028 44.4051 0.879028 41.4927V39.7065H32.6476Z" fill="#1D9EE1"/>
<path d="M18.6069 46.7667H6.15308C3.23946 46.7667 0.879028 44.4051 0.879028 41.4927V39.7065H14.6021C15.6499 42.0998 16.9672 44.4673 18.6069 46.7667Z" fill="#1D9EE1"/>
<path d="M32.6476 6.15296V7.93794H0.879028V6.15296C0.879028 3.24051 3.23946 0.878906 6.15308 0.878906H27.3735C30.286 0.878906 32.6476 3.24051 32.6476 6.15296Z" fill="#1D9EE1"/>
<path d="M27.3524 21.162V26.4841C27.3524 28.4262 25.7784 30.0002 23.8364 30.0002H9.68901C7.74816 30.0002 6.17297 28.4262 6.17297 26.4841V21.162C6.17297 19.22 7.74816 17.646 9.68901 17.646H23.8364C25.7784 17.646 27.3524 19.22 27.3524 21.162Z" fill="#FF7A00"/>
<path d="M11.7037 30.0002H9.68901C7.74816 30.0002 6.17297 28.4262 6.17297 26.4841V21.162C6.17297 19.22 7.74816 17.646 9.68901 17.646H11.12C10.8587 21.4761 10.9513 25.6813 11.7037 30.0002Z" fill="#FF7A00"/>
<path d="M39.7067 31.8259V36.5795C39.7067 41.4399 38.8558 46.3869 37.0603 51.1793H21.176L10.2223 40.2245C9.41834 39.4205 9.3281 38.1477 10.0102 37.2382C10.4603 36.637 11.1471 36.324 11.8397 36.324C12.3613 36.324 12.8875 36.5022 13.3188 36.869L15.6476 38.8521C16.8102 39.8412 18.594 38.981 18.5436 37.455C18.3971 33.0401 18.7218 28.7294 18.5284 23.8222C18.5284 22.3607 19.7133 21.1758 21.176 21.1758C22.6351 21.1758 23.8235 22.3583 23.8235 23.8222V29.9999C23.8235 29.6963 23.8751 29.4045 23.9689 29.1337C24.3275 28.0965 25.312 27.3523 26.4699 27.3523C26.6586 27.3523 26.8426 27.3722 27.0196 27.4097C28.2186 27.6617 29.1175 28.7259 29.1175 29.9999V30.8824C29.1175 30.5788 29.1691 30.287 29.2629 30.0163C29.6309 28.9509 30.6599 28.1938 31.86 28.236C33.2758 28.2852 34.3822 29.476 34.4115 30.8859C34.4127 30.9047 34.4127 30.9246 34.4127 30.9445V31.7649C34.4127 31.4614 34.4642 31.1695 34.558 30.8988C34.926 29.8334 35.955 29.0763 37.1552 29.1185C38.5897 29.1689 39.7067 30.3913 39.7067 31.8259Z" fill="#FED2A4"/>
<path d="M28.882 51.1793H21.176L10.2223 40.2245C9.41834 39.4205 9.3281 38.1477 10.0102 37.2382C10.4603 36.637 11.1471 36.324 11.8397 36.324C12.3613 36.324 12.8875 36.5022 13.3188 36.869L15.6476 38.8521C16.8102 39.8412 18.594 38.981 18.5436 37.455C18.3971 33.0401 18.7218 28.7294 18.5284 23.8222C18.5284 22.3607 19.7133 21.1758 21.176 21.1758C22.6351 21.1758 23.8235 22.3583 23.8235 23.8222V29.9999C23.8235 29.6963 23.8751 29.4045 23.9689 29.1337C24.3275 28.0965 25.312 27.3523 26.4699 27.3523C26.6586 27.3523 26.8426 27.3722 27.0196 27.4097C26.1312 30.7195 23.6571 42.1454 28.882 51.1793Z" fill="#FFBD86"/>
<path d="M24.7026 30.0001L24.7014 33.5302C24.7014 33.7728 24.6029 33.992 24.4435 34.1514C24.2841 34.3096 24.065 34.408 23.8224 34.408C23.336 34.408 22.9434 34.0142 22.9434 33.529L22.9445 29.9989C22.9445 29.5137 23.3383 29.1211 23.8235 29.1211V30.0001C23.8235 29.6966 23.8751 29.4047 23.9689 29.134C24.3849 29.202 24.7026 29.5641 24.7026 30.0001Z" fill="#F8A77B"/>
<path d="M29.9965 30.8824L29.9953 33.53C29.9953 33.7726 29.8969 33.9918 29.7387 34.1512C29.5793 34.3106 29.3589 34.409 29.1163 34.409C28.6311 34.409 28.2373 34.0152 28.2373 33.53L28.2385 30.8824C28.2385 30.3972 28.6323 30.0034 29.1175 30.0034V30.8824C29.1175 30.5789 29.1691 30.287 29.2628 30.0163C29.6789 30.0843 29.9965 30.4464 29.9965 30.8824Z" fill="#FFBD86"/>
<path d="M35.2917 31.7652L35.2905 33.5303C35.2905 33.7729 35.192 33.9921 35.0326 34.1515C34.8744 34.3109 34.6541 34.4093 34.4115 34.4093C33.9263 34.4093 33.5325 34.0155 33.5325 33.5291L33.5336 31.7652C33.5336 31.28 33.9263 30.8874 34.4115 30.8862C34.4127 30.905 34.4127 30.9249 34.4127 30.9448V31.7652C34.4127 31.4617 34.4642 31.1699 34.558 30.8991C34.974 30.9671 35.2917 31.3293 35.2917 31.7652Z" fill="#FFBD86"/>
<path d="M38.8241 53.8129V55.6049C38.8241 57.5469 37.2501 59.121 35.3081 59.121H22.9269C20.9849 59.121 19.4109 57.5469 19.4109 55.6049V53.8129C19.4109 51.8709 20.9849 50.2969 22.9269 50.2969H35.3081C37.2501 50.2969 38.8241 51.8709 38.8241 53.8129Z" fill="#EA5B70"/>
<path d="M27.2739 59.121H22.9269C20.9849 59.121 19.4109 57.5469 19.4109 55.6049V53.8129C19.4109 51.8709 20.9849 50.2969 22.9269 50.2969H26.3047C25.7925 51.7279 24.7002 55.7866 27.2739 59.121Z" fill="#D34459"/>
<path d="M10.5858 3.52979C10.1002 3.52979 9.70679 3.92335 9.70679 4.40879C9.70679 4.89424 10.1002 5.2878 10.5858 5.2878H19.4103C19.8959 5.2878 20.2894 4.89424 20.2894 4.40879C20.2894 3.92335 19.8959 3.52979 19.4103 3.52979H10.5858Z" fill="black"/>
<path d="M22.9398 5.28829C23.4253 5.28829 23.8188 4.89475 23.8188 4.40928C23.8188 3.92382 23.4253 3.53027 22.9398 3.53027C22.4543 3.53027 22.0608 3.92382 22.0608 4.40928C22.0608 4.89475 22.4543 5.28829 22.9398 5.28829Z" fill="black"/>
<path d="M37.186 28.2402C36.2945 28.2087 35.4466 28.505 34.7756 29.0777C34.4709 28.5692 34.043 28.1397 33.5267 27.8359V6.15306C33.5267 2.76021 30.7664 0 27.3736 0H24.712C24.2264 0 23.833 0.393562 23.833 0.879009C23.833 1.36446 24.2264 1.75802 24.712 1.75802H27.3736C29.7971 1.75802 31.7687 3.72958 31.7687 6.15306V7.05962H1.75802V6.15306C1.75802 3.72958 3.72958 1.75802 6.15307 1.75802H20.6098C21.0954 1.75802 21.4888 1.36446 21.4888 0.879009C21.4888 0.393562 21.0954 0 20.6098 0H6.15307C2.76032 0 0 2.76021 0 6.15306V22.1417C0 22.6271 0.393445 23.0207 0.879009 23.0207C1.36457 23.0207 1.75802 22.6271 1.75802 22.1417V8.81763H31.7686V27.3556C30.9586 27.3551 30.151 27.6348 29.491 28.1871C29.1803 27.6704 28.7401 27.2351 28.2096 26.9328L28.2314 21.1619C28.2314 18.7384 26.2599 16.7668 23.8364 16.7668H9.68903C7.26554 16.7668 5.29398 18.7384 5.29398 21.1619V26.484C5.29398 28.9074 7.26554 30.879 9.68903 30.879H17.6572L17.665 37.4841C17.6901 38.2465 16.7989 38.6778 16.2174 38.1829L13.8883 36.1997C12.5339 35.0473 10.4258 35.215 9.30636 36.7115C8.83897 37.3357 8.63644 38.0905 8.68743 38.8276H1.75802V26.2437C1.75802 25.7583 1.36457 25.3647 0.879009 25.3647C0.393445 25.3647 0 25.7583 0 26.2437V41.4928C0 44.8856 2.76032 47.6458 6.15307 47.6458H16.3996L19.6456 50.8922C18.9532 51.6692 18.5314 52.6923 18.5314 53.8125V55.605C18.5314 58.0284 20.503 60 22.9264 60H35.3083C37.7318 60 39.7033 58.0284 39.7033 55.605V53.8125C39.7033 52.5086 39.132 51.3361 38.2272 50.5305C39.1711 47.8185 39.841 45.0043 40.2181 42.159C40.2819 41.6778 39.9435 41.236 39.4622 41.1722C38.9829 41.108 38.539 41.4467 38.4754 41.9282C38.1286 44.5451 37.5231 47.1345 36.6754 49.6364C36.2448 49.495 35.7855 49.4175 35.3082 49.4175H22.9264C22.2632 49.4175 21.6343 49.566 21.0699 49.8302L10.8439 39.6032C10.0199 38.7792 10.5077 37.3437 11.679 37.2121C12.0709 37.1686 12.4501 37.2842 12.7489 37.5385L15.0779 39.5217C16.8172 41.0013 19.4852 39.7228 19.4226 37.4416L19.4074 23.8223C19.4074 22.8478 20.2008 22.0549 21.1759 22.0549C22.151 22.0549 22.9445 22.8478 22.9445 23.8223L22.943 33.529C22.9428 34.0145 23.3362 34.4082 23.8217 34.4083C24.3065 34.4083 24.7009 34.0158 24.701 33.5295L24.7022 30.0067C24.7022 29.4291 24.9666 28.9174 25.4115 28.5844C26.5823 27.708 28.2385 28.5548 28.2385 29.9999L28.2378 33.5296C28.2376 34.0151 28.6311 34.4086 29.1167 34.4088C29.6014 34.4088 29.9957 34.016 29.9958 33.5299L29.9965 30.8824C29.9965 29.6353 31.2434 28.8115 32.3478 29.2148C33.0571 29.472 33.5336 30.1672 33.5336 30.9446L33.5324 33.5294C33.5322 34.0148 33.9255 34.4085 34.4111 34.4088C34.896 34.4088 35.2902 34.0164 35.2905 33.5301L35.2913 31.7718C35.3046 30.6909 36.1777 29.9623 37.1242 29.9971C38.0636 30.03 38.8276 30.8505 38.8276 31.8259L38.8057 37.912C38.7894 38.3972 39.1696 38.8037 39.6548 38.82C40.1424 38.8371 40.5465 38.4562 40.5628 37.9709L40.5855 31.8259C40.5856 29.9147 39.0606 28.3061 37.186 28.2402ZM35.3083 51.1754C36.7623 51.1754 37.9453 52.3584 37.9453 53.8125V55.605C37.9453 57.0591 36.7623 58.242 35.3083 58.242H22.9264C21.4724 58.242 20.2894 57.0591 20.2894 55.605V53.8125C20.2894 52.3584 21.4724 51.1754 22.9264 51.1754H35.3083ZM14.6418 45.8878H6.15318C3.7297 45.8878 1.75814 43.9162 1.75814 41.4928V40.5856H9.37047L14.6418 45.8878ZM24.7025 26.9487V23.8223C24.7025 21.8784 23.1205 20.2969 21.1759 20.2969C19.2313 20.2969 17.6493 21.8784 17.6493 23.8233L17.6553 29.121H9.68914C8.23515 29.121 7.05212 27.9381 7.05212 26.484V21.1619C7.05212 19.7077 8.23515 18.5248 9.68914 18.5248H23.8365C25.2905 18.5248 26.4735 19.7077 26.4735 21.1619L26.4697 26.4718C25.8524 26.4702 25.2454 26.6318 24.7025 26.9487Z" fill="black"/>
</svg>
