<svg width="57" height="60" viewBox="0 0 57 60" fill="none" xmlns="http://www.w3.org/2000/svg">
<path d="M35.4491 50.3906H21.3867V58.8281H35.4491V50.3906Z" fill="#D8D8E4"/>
<path d="M7.08995 14.7656H3.51574C2.22129 14.7656 1.172 15.8149 1.172 17.1094V48.0468C1.172 49.3412 2.22129 50.3905 3.51574 50.3905H53.3203C54.6147 50.3905 55.664 49.3412 55.664 48.0468V17.1094C55.664 15.8149 54.6147 14.7656 53.3203 14.7656H51.7383C51.7383 14.7656 7.08995 14.7656 7.08995 14.7656Z" fill="#EDF2FA"/>
<path d="M17.9601 10.269H7.08981V41.6963H17.9601V10.269Z" fill="#FFB954"/>
<path d="M31.112 21.7358H25.1941V41.6952H31.112V21.7358Z" fill="#FF5D5D"/>
<path d="M38.8739 41.6958V23.554C38.8739 22.3894 39.818 21.4453 40.9826 21.4453H47.6359C48.8005 21.4453 49.7445 22.3894 49.7445 23.554V41.6958H38.8739Z" fill="#7D9BFF"/>
<path d="M1.172 41.9531V48.0469C1.172 49.3413 2.22129 50.3906 3.51574 50.3906H53.3203C54.6147 50.3906 55.664 49.3413 55.664 48.0469V41.9531H1.172Z" fill="#72D8FF"/>
<path d="M17.9606 10.2688L12.5253 1.17188L7.08994 10.2688H17.9606Z" fill="#FFCDAC"/>
<path d="M9.57877 6.10335H15.4718L12.5253 1.17188L9.57877 6.10335Z" fill="#8C6C54"/>
<path d="M31.112 17.2817H25.1941V21.736H31.112V17.2817Z" fill="#EDF2FA"/>
<path d="M24.3919 16.8207C24.5282 16.9855 24.6705 17.1386 24.8172 17.2817H31.4553C31.602 17.1386 31.7441 16.9855 31.8805 16.8207C33.9484 14.321 33.9484 10.2682 31.8805 7.76858L31.7579 7.62045C30.1523 5.6796 29.203 3.91359 29.0955 1.17188L24.6734 6.79862C22.3831 9.71294 22.2687 13.7824 24.3919 16.8207Z" fill="#B28A67"/>
<path d="M47.636 21.4453H40.9827C39.8181 21.4453 38.874 22.3894 38.874 23.554V25.2733H49.7448V23.554C49.7447 22.3894 48.8006 21.4453 47.636 21.4453Z" fill="#EDF2FA"/>
<path d="M47.5066 21.4453L50.9179 14.1693L50.2024 13.3266C47.2854 9.8913 45.6929 5.59909 45.6929 1.17188H44.4262H43.1596C43.1596 5.59909 41.5671 9.8913 38.6501 13.3266L37.9345 14.1693L41.3459 21.4453H47.5066Z" fill="#ADE5FF"/>
<path d="M44.4257 16.0962C45.4739 16.0962 46.3236 15.2465 46.3236 14.1983C46.3236 13.15 45.4739 12.3003 44.4257 12.3003C43.3775 12.3003 42.5277 13.15 42.5277 14.1983C42.5277 15.2465 43.3775 16.0962 44.4257 16.0962Z" fill="#8C6C54"/>
<path d="M53.3203 13.5939H51.9358C51.8997 13.5301 51.8598 13.4681 51.8113 13.411L51.0957 12.5683C48.3674 9.35522 46.8648 5.30793 46.8648 1.17204C46.8648 0.524937 46.3401 0.000173033 45.6929 0.000173033H43.1596C42.5123 0.000173033 41.9877 0.524937 41.9877 1.17204C41.9877 5.30805 40.4851 9.35522 37.7568 12.5683L37.0412 13.411C36.7443 13.7606 36.6788 14.2515 36.8735 14.667L39.6379 20.5631C38.498 21.0777 37.7023 22.2244 37.7023 23.5541V40.7813H32.2838V21.7363V18.4538H32.9756C33.6229 18.4538 34.1475 17.929 34.1475 17.2819C34.1475 16.8749 33.9399 16.5166 33.625 16.3065C34.2611 15.1145 34.6034 13.7339 34.6034 12.2947C34.6034 10.313 33.9571 8.44023 32.7836 7.02168L32.6611 6.87355C31.2555 5.17434 30.3646 3.6202 30.2668 1.12611C30.2475 0.635328 29.9243 0.208649 29.4571 0.0572432C28.9899 -0.094397 28.4778 0.0618135 28.1744 0.447945L23.7523 6.07469C22.472 7.70359 21.7646 9.65944 21.7065 11.7305C21.6616 13.3293 22.0085 14.8805 22.7142 16.2865C22.3811 16.4932 22.1585 16.8611 22.1585 17.2819C22.1585 17.929 22.6831 18.4538 23.3303 18.4538H24.0222V21.7363V40.7814H19.1327V37.383C19.1327 36.7359 18.608 36.2111 17.9608 36.2111C17.3136 36.2111 16.7889 36.7359 16.7889 37.383V40.7814H12.0536V29.7602C12.0536 29.1131 11.529 28.5883 10.8818 28.5883C10.2345 28.5883 9.70989 29.1131 9.70989 29.7602V40.7814H8.26181V11.4408H13.0505V24.8417C13.0505 25.4888 13.5752 26.0136 14.2224 26.0136C14.8696 26.0136 15.3943 25.4888 15.3943 24.8417V11.4408H16.7888V27.8517C16.7888 28.4988 17.3135 29.0236 17.9607 29.0236C18.6079 29.0236 19.1326 28.4988 19.1326 27.8517V10.2689C19.1326 10.0492 19.071 9.84448 18.9658 9.66882C18.9662 9.66847 18.9664 9.66823 18.9666 9.66788L13.5313 0.570992C13.3197 0.216969 12.9377 0.000173033 12.5253 0.000173033C12.1129 0.000173033 11.7309 0.216969 11.5194 0.570992L6.08389 9.66788C6.08424 9.66811 6.08448 9.66835 6.08483 9.66858C5.97959 9.84436 5.91795 10.0492 5.91795 10.2689V13.5939H3.51561C1.5771 13.5939 0 15.171 0 17.1095V48.0469C0 49.9854 1.5771 51.5625 3.51561 51.5625H20.2148V57.6563H18.164C17.5168 57.6563 16.9921 58.181 16.9921 58.8281C16.9921 59.4752 17.5168 60 18.164 60H38.6718C39.319 60 39.8436 59.4752 39.8436 58.8281C39.8436 58.181 39.319 57.6563 38.6718 57.6563H36.621V51.5625H53.3202C55.2587 51.5625 56.8358 49.9854 56.8358 48.0469V17.1095C56.8359 15.171 55.2588 13.5939 53.3203 13.5939ZM54.4921 17.1095V40.7813H50.9166V23.5541C50.9166 22.2995 50.2085 21.2078 49.171 20.6561L51.406 15.8891C51.5114 15.9203 51.6228 15.9376 51.7383 15.9376H53.3203C53.9664 15.9376 54.4921 16.4633 54.4921 17.1095ZM40.9826 22.6173H41.3456H47.5066H47.636C48.1526 22.6173 48.5729 23.0375 48.5729 23.5541V24.1017H40.0459V23.5541C40.0458 23.0375 40.466 22.6173 40.9826 22.6173ZM45.1522 14.1988C45.1522 14.5991 44.8266 14.9248 44.4261 14.9248C44.0257 14.9248 43.7 14.5991 43.7 14.1988C43.7 13.7984 44.0257 13.4727 44.4261 13.4727C44.8266 13.4727 45.1522 13.7984 45.1522 14.1988ZM39.5432 14.0852C41.192 12.1436 42.4443 9.93096 43.2543 7.57644V11.3619C42.1413 11.8234 41.3563 12.921 41.3563 14.1988C41.3563 15.8915 42.7334 17.2685 44.4261 17.2685C46.1189 17.2685 47.496 15.8915 47.496 14.1988C47.496 12.921 46.7109 11.8234 45.598 11.3619V7.57644C46.408 9.93108 47.6603 12.1437 49.309 14.0854L49.5371 14.3541L46.7618 20.2737H42.0905L39.3151 14.354L39.5432 14.0852ZM40.0458 26.4454H48.5728V40.7813H47.1792V31.8418C47.1792 31.1947 46.6546 30.6699 46.0073 30.6699C45.3601 30.6699 44.8355 31.1947 44.8355 31.8418V40.7813H40.0458V26.4454ZM26.3657 18.4538H29.9398V20.5644H26.3657V18.4538ZM25.5947 7.52289L28.3625 4.00118C28.8586 5.67965 29.7376 7.01675 30.8549 8.36745L30.9774 8.51558C32.7012 10.5994 32.7012 13.9901 30.9773 16.074C30.9674 16.0861 30.9573 16.0979 30.9473 16.11H25.325C25.325 16.1099 25.3248 16.1098 25.3247 16.1098C23.5133 13.481 23.6194 10.0363 25.5947 7.52289ZM26.3657 22.9082H29.9398V40.7814H26.3657V22.9082ZM10.2436 7.27539H14.8068L15.8953 9.09706H9.15513L10.2436 7.27539ZM12.5252 3.45673L13.4064 4.93164H11.644L12.5252 3.45673ZM3.51573 15.9376H5.91807V40.7813H2.34386V17.1095C2.34386 16.4633 2.86944 15.9376 3.51573 15.9376ZM34.2774 57.6563H22.5586V51.5625H34.2774V57.6563ZM53.3203 49.2188H3.51573C2.86956 49.2188 2.34386 48.6931 2.34386 48.0469V47.3438H10.4745C11.1218 47.3438 11.6464 46.819 11.6464 46.1719C11.6464 45.5248 11.1218 45 10.4745 45H2.34386V43.1251H54.4921V48.0469C54.4921 48.6932 53.9664 49.2188 53.3203 49.2188Z" fill="#303030"/>
<path d="M17.9601 30.7969C17.6519 30.7969 17.3507 30.9223 17.1316 31.1402C16.9136 31.3582 16.7882 31.6605 16.7882 31.9687C16.7882 32.2781 16.9136 32.5793 17.1316 32.7973C17.3496 33.0151 17.6519 33.1406 17.9601 33.1406C18.2695 33.1406 18.5718 33.0152 18.7886 32.7973C19.0078 32.5793 19.132 32.2769 19.132 31.9687C19.132 31.6605 19.0078 31.3582 18.7886 31.1402C18.5707 30.9223 18.2683 30.7969 17.9601 30.7969Z" fill="#303030"/>
<path d="M14.5757 45C14.2675 45 13.9652 45.1253 13.7472 45.3434C13.5293 45.5613 13.4039 45.8637 13.4039 46.1719C13.4039 46.4801 13.5293 46.7824 13.7472 47.0003C13.9652 47.2182 14.2675 47.3437 14.5757 47.3437C14.8851 47.3437 15.1863 47.2184 15.4043 47.0003C15.6222 46.7824 15.7476 46.4801 15.7476 46.1719C15.7476 45.8637 15.6222 45.5613 15.4043 45.3434C15.1863 45.1253 14.8839 45 14.5757 45Z" fill="#303030"/>
</svg>
