<svg width="60" height="54" viewBox="0 0 60 54" fill="none" xmlns="http://www.w3.org/2000/svg">
<path d="M58.6522 22.0911C58.9111 22.0911 59.1209 22.2795 59.1209 22.5118V26.93C59.1209 28.5837 58.9498 30.2005 58.6217 31.769C56.083 43.952 44.1265 53.159 29.7946 53.0704C13.7133 52.9708 0.843472 41.307 0.87898 26.8711C0.91437 12.4612 13.939 0.789062 29.9999 0.789062C37.8687 0.789062 45.0081 3.59125 50.2497 8.14304C50.439 8.30735 50.4439 8.57812 50.2577 8.74528L43.2947 14.9958C43.1154 15.1567 42.8257 15.1608 42.6421 15.004C39.3523 12.1928 34.901 10.467 29.9999 10.467C19.879 10.467 11.7291 17.7309 11.6606 26.8159C11.5914 35.9603 19.8291 43.393 29.9999 43.393C38.2522 43.393 45.2319 38.4994 47.5335 31.769H30.4686C30.2098 31.769 29.9999 31.5806 29.9999 31.3482V22.5118C29.9999 22.2795 30.2098 22.0911 30.4686 22.0911H58.6522Z" fill="#2196F3"/>
<path d="M58.6522 22.0908H55.1366C55.3955 22.0908 55.6053 22.2792 55.6053 22.5116V26.9298C55.6053 28.5835 55.4342 30.2003 55.1061 31.7688C52.6842 43.3916 41.6905 52.3055 28.2402 53.0236C28.7548 53.0509 29.2729 53.0669 29.7946 53.0701C44.1265 53.1588 56.0831 43.9518 58.6217 31.7688C58.9499 30.2003 59.121 28.5835 59.121 26.9298V22.5116C59.121 22.2792 58.9111 22.0908 58.6522 22.0908Z" fill="#1E88E5"/>
<path d="M13.3417 20.0355L4.49762 14.2993C9.45933 6.24342 19.0206 0.789062 29.9999 0.789062C37.8687 0.789062 45.0081 3.59125 50.2498 8.14304C50.439 8.30735 50.4439 8.57812 50.2577 8.74528L43.2948 14.9956C43.1159 15.1563 42.8263 15.1612 42.643 15.0046C39.3531 12.1931 34.9015 10.467 29.9999 10.467C22.6136 10.467 16.2468 14.3866 13.3417 20.0355Z" fill="#F44336"/>
<path d="M10.7886 18.3794L13.3417 20.0353C15.9933 14.8792 21.5295 11.1657 28.092 10.5566C28.1414 10.5519 28.1888 10.546 28.239 10.5417C27.6615 10.4926 27.0763 10.4668 26.4843 10.4668C19.8119 10.4668 13.9967 13.6245 10.7886 18.3794Z" fill="#E53935"/>
<path d="M46.7341 8.14304C46.9234 8.30735 46.9283 8.57812 46.7421 8.74528L41.0905 13.8185C41.6319 14.1882 42.1503 14.5836 42.6422 15.0039C42.8258 15.1608 43.1155 15.1566 43.2948 14.9957L50.2579 8.74517C50.4441 8.57802 50.4391 8.30725 50.2499 8.14293C45.0081 3.59125 37.8687 0.789062 29.9999 0.789062C29.4094 0.789062 28.8236 0.806735 28.2418 0.837873C35.4129 1.22131 41.8856 3.93271 46.7341 8.14304Z" fill="#E53935"/>
<path d="M51.362 44.6952C46.044 49.8466 38.4409 53.0708 29.9999 53.0708C18.5988 53.0708 8.72807 47.1893 3.948 38.6212L12.9773 33.0669C15.6866 39.1188 22.2878 43.3928 29.9999 43.3928C34.8397 43.3928 39.2413 41.7097 42.5178 38.9599L51.362 44.6952Z" fill="#4CAF50"/>
<path d="M12.9773 33.0669L10.3148 34.7048C13.4072 39.8762 19.4884 43.3928 26.4843 43.3928C27.0759 43.3928 27.6607 43.3669 28.238 43.3176C21.2936 42.7233 15.4778 38.6523 12.9773 33.0669Z" fill="#43A047"/>
<path d="M29.9999 53.0709C38.4409 53.0709 46.044 49.8467 51.3619 44.6953L49.1957 43.2905C44.2024 48.8689 36.7117 52.5697 28.2465 53.0234C28.8267 53.0544 29.4111 53.0709 29.9999 53.0709Z" fill="#43A047"/>
<path d="M11.6601 26.9301C11.6601 29.0992 12.1277 31.1705 12.9773 33.0672L3.94798 38.6215C1.98392 35.1037 0.878845 31.1326 0.878845 26.9301C0.878845 22.3488 2.19134 18.0432 4.49759 14.2993L13.3417 20.0356C12.2624 22.1321 11.6601 24.4685 11.6601 26.9301Z" fill="#FFC107"/>
<path d="M10.3148 34.7048L12.9773 33.0669C12.1277 31.1703 11.6601 29.099 11.6601 26.9299C11.6601 24.4683 12.2625 22.1319 13.3417 20.0354L10.7886 18.3794C9.13063 20.8368 8.1684 23.7204 8.14496 26.8157C8.1234 29.6702 8.91137 32.3579 10.3148 34.7048Z" fill="#FFB300"/>
<path d="M58.6522 21.302H52.563C52.0776 21.302 51.6841 21.6552 51.6841 22.091C51.6841 22.5267 52.0776 22.8799 52.563 22.8799H58.242V26.9299C58.242 28.5086 58.0791 30.0878 57.7578 31.6238C56.7995 36.223 54.4941 40.3309 51.2505 43.6496L43.8711 38.8643C45.9369 36.9237 47.4988 34.5586 48.3737 32.0004C48.4555 31.7611 48.406 31.5012 48.2402 31.2999C48.0745 31.0986 47.8122 30.9799 47.5335 30.9799H30.8788V22.8799H48.7589C49.2443 22.8799 49.6378 22.5267 49.6378 22.091C49.6378 21.6552 49.2443 21.302 48.7589 21.302H30.4686C29.7256 21.302 29.121 21.8447 29.121 22.5117V31.3481C29.121 32.0152 29.7256 32.5579 30.4686 32.5579H46.3021C43.7251 38.6096 37.3173 42.604 29.9999 42.604C26.1702 42.604 22.5352 41.5121 19.4879 39.4461C19.1005 39.1836 18.5493 39.2526 18.2568 39.6002C17.9642 39.948 18.0412 40.4428 18.4285 40.7053C21.7834 42.9797 25.7848 44.1819 29.9999 44.1819C34.1945 44.1819 38.18 42.9903 41.5259 40.7358C41.8868 40.4926 42.2371 40.2373 42.5774 39.972L50.0407 44.8118C44.8862 49.4614 37.76 52.2819 29.9991 52.2819C29.9331 52.2819 29.8667 52.2817 29.8007 52.2813C19.1271 52.2152 9.83795 46.7874 5.10018 38.8689L12.5992 34.2559C13.3606 35.7129 14.3506 37.0783 15.5534 38.3079C15.7271 38.4855 15.97 38.5763 16.2142 38.5763C16.4201 38.5763 16.6268 38.5117 16.7938 38.3802C17.1585 38.0927 17.1946 37.5942 16.8743 37.2668C14.0499 34.3793 12.5105 30.6697 12.5396 26.8212C12.6043 18.2384 20.4371 11.2559 29.9999 11.2559C34.5019 11.2559 38.7764 12.7899 42.0361 15.5753C42.5692 16.0308 43.395 16.0213 43.9161 15.5535L50.8792 9.30303C51.1364 9.07212 51.2764 8.76517 51.2734 8.43864C51.2703 8.11075 51.1238 7.80442 50.8608 7.57583C45.2349 2.69047 37.8264 0 29.9999 0C25.4432 0 21.0665 0.893947 16.9914 2.65681C16.5542 2.84595 16.3706 3.31754 16.5813 3.71012C16.792 4.1025 17.317 4.26734 17.7547 4.07831C21.5897 2.41917 25.7096 1.57793 29.9999 1.57793C37.2297 1.57793 44.081 4.01698 49.3394 8.45379L42.9538 14.186C39.4046 11.276 34.8208 9.67794 29.9999 9.67794C24.8712 9.67794 20.0561 11.4525 16.4413 14.6747C15.0482 15.9166 13.8945 17.3206 12.9993 18.84L5.64885 14.0725C7.8276 10.7495 10.8595 7.86585 14.5885 5.68179C14.995 5.44363 15.1095 4.95479 14.8443 4.58997C14.5791 4.22495 14.0345 4.12228 13.628 4.36033C5.11706 9.34511 0.0224586 17.7597 7.58588e-05 26.8692C-0.0176194 34.0614 3.06101 40.8207 8.66865 45.9021C14.2768 50.9837 21.7773 53.8097 29.7886 53.8593C29.8578 53.8597 29.926 53.86 29.9951 53.86C37.0048 53.8597 43.8158 51.6504 49.1933 47.6277C54.5546 43.6171 58.2099 38.0366 59.4856 31.9146C59.8269 30.2831 59.9998 28.6061 59.9998 26.9299V22.5117C59.9998 21.8447 59.3953 21.302 58.6522 21.302ZM4.79854 15.4678L12.2382 20.2931C11.2999 22.3299 10.7989 24.5341 10.7817 26.8105C10.7662 28.8596 11.156 30.8726 11.9132 32.7652L4.31093 37.4417C2.6648 34.2189 1.74863 30.6384 1.75788 26.8728C1.76773 22.8367 2.83577 18.9456 4.79854 15.4678Z" fill="#303030"/>
</svg>
