<svg width="60" height="54" viewBox="0 0 60 54" fill="none" xmlns="http://www.w3.org/2000/svg">
<path d="M1.17188 3.15566V37.6581C1.17188 38.8201 2.22107 39.762 3.51563 39.762H47.3419C48.6365 39.762 49.6857 38.8201 49.6857 37.6581V3.15566C49.6857 1.99358 48.6365 1.05176 47.3419 1.05176H3.51563C2.22107 1.05176 1.17188 1.99358 1.17188 3.15566Z" fill="white"/>
<path d="M3.51563 1.05176H47.3419C48.6365 1.05176 49.6857 1.99358 49.6857 3.15566V10.3085H1.17188V3.15566C1.17188 1.99358 2.22107 1.05176 3.51563 1.05176Z" fill="#1D9EE1"/>
<path d="M6.79639 15.3579H35.858V31.3472H6.79639V15.3579Z" fill="#FF7A00"/>
<path d="M53.6682 34.521L32.3066 28.999L38.4585 48.1746L42.095 44.9098L50.8914 52.806L58.8281 45.6815L50.0317 37.7857L53.6682 34.521Z" fill="#1D9EE1"/>
<path d="M7.31689 6.73232H7.32788C7.9747 6.73232 8.4938 6.26141 8.4938 5.68037C8.4938 5.09933 7.96371 4.62842 7.31689 4.62842C6.66962 4.62842 6.14502 5.09933 6.14502 5.68037C6.14502 6.26141 6.66962 6.73232 7.31689 6.73232Z" fill="#303030"/>
<path d="M12.6489 6.73232H12.6599C13.3072 6.73232 13.8263 6.26141 13.8263 5.68037C13.8263 5.09933 13.2962 4.62842 12.6489 4.62842C12.0016 4.62842 11.4771 5.09933 11.4771 5.68037C11.4771 6.26141 12.0016 6.73232 12.6489 6.73232Z" fill="#303030"/>
<path d="M17.9814 6.73232H17.9924C18.6393 6.73232 19.1588 6.26141 19.1588 5.68037C19.1588 5.09933 18.6283 4.62842 17.9814 4.62842C17.3342 4.62842 16.8096 5.09933 16.8096 5.68037C16.8096 6.26141 17.3342 6.73232 17.9814 6.73232Z" fill="#303030"/>
<path d="M27.1577 6.73191H43.4747C44.122 6.73191 44.6466 6.261 44.6466 5.67996C44.6466 5.09933 44.122 4.62842 43.4747 4.62842H27.1577C26.5109 4.62842 25.9858 5.09933 25.9858 5.67996C25.9858 6.261 26.5104 6.73191 27.1577 6.73191Z" fill="#303030"/>
<path d="M49.6857 28.1914C49.3776 28.1914 49.075 28.3036 48.8571 28.4996C48.6392 28.6952 48.5138 28.9664 48.5138 29.2429C48.5138 29.5199 48.6392 29.7911 48.8571 29.9867C49.075 30.1823 49.3776 30.2949 49.6857 30.2949C49.9937 30.2949 50.2959 30.1823 50.5138 29.9867C50.7317 29.7911 50.8575 29.5199 50.8575 29.2429C50.8575 28.9664 50.7321 28.6952 50.5138 28.4996C50.2959 28.3036 49.9937 28.1914 49.6857 28.1914Z" fill="#303030"/>
<path d="M25.1537 18.5137H23.6943C23.0471 18.5137 22.5225 18.9846 22.5225 19.5656V27.1393C22.5225 27.7203 23.0471 28.1912 23.6943 28.1912H25.1537C28.1255 28.1912 30.5439 26.0207 30.5439 23.3527C30.5439 20.6846 28.1259 18.5137 25.1537 18.5137ZM25.1537 26.0873H24.8662V20.6176H25.1537C26.8337 20.6176 28.2001 21.8446 28.2001 23.3527C28.2001 24.8607 26.8337 26.0873 25.1537 26.0873Z" fill="#303030"/>
<path d="M17.232 19.2303C17.0718 18.8021 16.6246 18.5137 16.1215 18.5137C15.6184 18.5137 15.1712 18.8021 15.011 19.2303L12.1719 26.804C11.9655 27.3546 12.2951 27.9512 12.9085 28.1366C13.5223 28.3219 14.1865 28.0256 14.393 27.475L14.4795 27.2445H17.7635L17.8496 27.475C18.0144 27.9143 18.4707 28.1916 18.9601 28.1916C19.0842 28.1916 19.21 28.174 19.3341 28.1366C19.9475 27.9512 20.2775 27.3546 20.0706 26.804L17.232 19.2303ZM15.2678 25.141L16.1215 22.8641L16.9748 25.141H15.2678Z" fill="#303030"/>
<path d="M59.6567 44.9381L51.6888 37.7856L54.4972 35.2651C54.7902 35.0017 54.9069 34.6187 54.803 34.2583C54.6996 33.8979 54.3915 33.6132 53.9928 33.5104L37.0299 29.1251V15.3577C37.0299 14.7771 36.5053 14.3061 35.858 14.3061H6.79642C6.1496 14.3061 5.625 14.7771 5.625 15.3577V31.3469C5.625 31.928 6.1496 32.3989 6.79642 32.3989H32.178L34.2032 38.7102H3.51562C2.86926 38.7102 2.34375 38.2385 2.34375 37.6582V11.3607H48.5138V25.0356C48.5138 25.6163 49.0384 26.0872 49.6857 26.0872C50.3325 26.0872 50.8575 25.6163 50.8575 25.0356V3.15586C50.8575 1.41562 49.2805 0 47.3419 0H3.51562C1.577 0 0 1.41562 0 3.15586V37.6582C0 39.3985 1.577 40.8141 3.51562 40.8141H34.8779L37.3325 48.4654C37.4474 48.8233 37.7641 49.0999 38.1656 49.1927C38.5666 49.2856 38.9937 49.1816 39.2871 48.9182L42.095 46.3977L50.0629 53.5501C50.2826 53.7474 50.5806 53.8579 50.8914 53.8579C51.2022 53.8579 51.5002 53.7474 51.72 53.5501L59.6567 46.4256C60.1144 46.0147 60.1144 45.3486 59.6567 44.9381ZM3.51562 2.1039H47.3419C47.9878 2.1039 48.5138 2.57564 48.5138 3.15586V9.25677H2.34375V3.15586C2.34375 2.57564 2.86926 2.1039 3.51562 2.1039ZM7.96829 30.295V16.4096H34.6861V28.519L32.6312 27.9877C32.2211 27.8821 31.7798 27.984 31.4781 28.2548C31.1765 28.5256 31.0629 28.9221 31.1806 29.2899L31.5033 30.295H7.96829ZM50.8914 51.3184L42.924 44.166C42.6952 43.9605 42.3953 43.8578 42.0955 43.8578C41.7952 43.8578 41.4954 43.9605 41.2665 44.166L39.0349 46.1696L34.0192 30.5362L51.4348 35.0382L49.2032 37.0419C48.9835 37.2387 48.8599 37.5066 48.8599 37.7856C48.8599 38.0642 48.9835 38.3322 49.2032 38.5294L57.171 45.6814L50.8914 51.3184Z" fill="#303030"/>
<path d="M14.9726 36.6064C15.6198 36.6064 16.1444 36.1355 16.1444 35.5549C16.1444 34.9738 15.6198 34.5029 14.9726 34.5029H6.96399C6.31671 34.5029 5.79211 34.9738 5.79211 35.5549C5.79211 36.1355 6.31671 36.6064 6.96399 36.6064H14.9726Z" fill="#303030"/>
<path d="M20.4295 36.2986C20.6474 36.103 20.7729 35.8314 20.7729 35.5549C20.7729 35.2783 20.6479 35.0067 20.4295 34.8111C20.2116 34.6155 19.9095 34.5029 19.601 34.5029C19.2929 34.5029 18.9908 34.6155 18.7729 34.8111C18.555 35.0067 18.4296 35.2783 18.4296 35.5549C18.4296 35.8314 18.5545 36.103 18.7729 36.2986C18.9908 36.4942 19.2929 36.6068 19.601 36.6068C19.9095 36.6068 20.2116 36.4942 20.4295 36.2986Z" fill="#303030"/>
</svg>
