<svg width="60" height="54" viewBox="0 0 60 54" fill="none" xmlns="http://www.w3.org/2000/svg">
<path d="M56.8359 46.1738V14.0645C56.8359 12.1228 55.262 10.5488 53.3203 10.5488H39.8438H15.3516H6.67969C4.73801 10.5488 3.16406 12.1228 3.16406 14.0645V46.1738" fill="#9CF2F7"/>
<path d="M1.17188 46.1724V47.1392C1.17188 50.1001 3.57223 52.5005 6.5332 52.5005H53.4668C56.4278 52.5005 58.8281 50.1001 58.8281 47.1392V46.1724H1.17188Z" fill="#1D9EE1"/>
<path d="M7.5 46.1738V15.0005H19.4691H46.875H52.5V46.1738H7.5Z" fill="#F3FFFF"/>
<path d="M49.5727 23.6719H15V1.17188H49.5727L57.4321 9.05356C59.2949 10.9216 59.2932 13.9454 57.4283 15.8115L49.5727 23.6719Z" fill="#FF7A00"/>
<path d="M58.8281 45H58.0078V16.8895L58.2572 16.6399C60.5741 14.3215 60.5763 10.547 58.2619 8.22598L50.4025 0.344297C50.1826 0.123984 49.884 0 49.5727 0H24.6457C23.9985 0 23.4738 0.524766 23.4738 1.17188C23.4738 1.81898 23.9985 2.34375 24.6457 2.34375H49.0863L56.6023 9.88102C58.0057 11.2884 58.0044 13.5772 56.5995 14.983L49.087 22.5H16.1719V1.17188C16.1719 0.524766 15.6472 0 15 0C14.3528 0 13.8281 0.524766 13.8281 1.17188V9.37641H6.67969C4.095 9.37641 1.99219 11.4792 1.99219 14.0639V45H1.17188C0.524648 45 0 45.5248 0 46.1719V47.1387C0 50.741 2.93074 53.6719 6.5332 53.6719H53.4668C57.0693 53.6719 60 50.741 60 47.1387V46.1719C60 45.5248 59.4754 45 58.8281 45ZM4.33594 14.0639C4.33594 12.7716 5.38734 11.7202 6.67969 11.7202H13.8281V23.6719C13.8281 24.319 14.3528 24.8438 15 24.8438H49.5727C49.8836 24.8438 50.1818 24.7201 50.4015 24.5003L55.6641 19.2347V45H53.6719V27.7902C53.6719 27.1431 53.1472 26.6183 52.5 26.6183C51.8528 26.6183 51.3281 27.1431 51.3281 27.7902V45H8.67188V16.1719H11.0742C11.7214 16.1719 12.2461 15.6471 12.2461 15C12.2461 14.3529 11.7214 13.8281 11.0742 13.8281H7.5C6.85277 13.8281 6.32812 14.3529 6.32812 15V45H4.33594V14.0639ZM53.4668 51.3281H6.5332C4.29199 51.3281 2.45602 49.5588 2.34867 47.3438H57.6512C57.544 49.5588 55.708 51.3281 53.4668 51.3281Z" fill="#303030"/>
<path d="M35.1216 48.1641H24.8684C24.2212 48.1641 23.6965 48.6888 23.6965 49.3359C23.6965 49.983 24.2212 50.5078 24.8684 50.5078H35.1216C35.7688 50.5078 36.2935 49.983 36.2935 49.3359C36.2935 48.6888 35.7688 48.1641 35.1216 48.1641Z" fill="#303030"/>
<path d="M54.6713 12.4219C54.6713 10.4834 53.0942 8.90625 51.1556 8.90625C49.2171 8.90625 47.64 10.4834 47.64 12.4219C47.64 14.3604 49.2171 15.9375 51.1556 15.9375C53.0942 15.9375 54.6713 14.3604 54.6713 12.4219ZM49.9838 12.4219C49.9838 11.7757 50.5095 11.25 51.1556 11.25C51.8018 11.25 52.3275 11.7757 52.3275 12.4219C52.3275 13.068 51.8018 13.5938 51.1556 13.5938C50.5095 13.5938 49.9838 13.068 49.9838 12.4219Z" fill="#303030"/>
<path d="M40.2817 18.2812C43.5126 18.2812 46.1411 15.6527 46.1411 12.4219C46.1411 9.19102 43.5126 6.5625 40.2817 6.5625C37.0509 6.5625 34.4224 9.19102 34.4224 12.4219C34.4224 15.6527 37.0509 18.2812 40.2817 18.2812ZM40.2817 8.90625C42.2203 8.90625 43.7974 10.4834 43.7974 12.4219C43.7974 14.3604 42.2203 15.9375 40.2817 15.9375C38.3432 15.9375 36.7661 14.3604 36.7661 12.4219C36.7661 10.4834 38.3432 8.90625 40.2817 8.90625Z" fill="#303030"/>
<path d="M33.8398 6.5625H29.1045C28.4573 6.5625 27.9326 7.08727 27.9326 7.73438V17.1094C27.9326 17.7565 28.4573 18.2812 29.1045 18.2812H33.8398C34.487 18.2812 35.0117 17.7565 35.0117 17.1094C35.0117 16.4623 34.487 15.9375 33.8398 15.9375H30.2764V13.5938H32.5962C33.2434 13.5938 33.7681 13.069 33.7681 12.4219C33.7681 11.7748 33.2434 11.25 32.5962 11.25H30.2764V8.90625H33.8398C34.487 8.90625 35.0117 8.38148 35.0117 7.73438C35.0117 7.08727 34.487 6.5625 33.8398 6.5625Z" fill="#303030"/>
<path d="M23.0309 8.90625C23.8088 8.90625 24.4416 9.43195 24.4416 10.0781C24.4416 10.7252 24.9663 11.25 25.6135 11.25C26.2608 11.25 26.7854 10.7252 26.7854 10.0781C26.7854 8.13961 25.1012 6.5625 23.0309 6.5625C20.9607 6.5625 19.2766 8.13961 19.2766 10.0781C19.2766 12.0166 20.9608 13.5938 23.0309 13.5938C23.8088 13.5938 24.4416 14.1195 24.4416 14.7656C24.4416 15.4118 23.8088 15.9375 23.0309 15.9375C22.2532 15.9375 21.6204 15.4118 21.6204 14.7656C21.6204 14.1185 21.0957 13.5938 20.4485 13.5938C19.8013 13.5938 19.2766 14.1185 19.2766 14.7656C19.2766 16.7041 20.9608 18.2812 23.0309 18.2812C25.1011 18.2812 26.7854 16.7041 26.7854 14.7656C26.7854 12.8271 25.1012 11.25 23.0309 11.25C22.2532 11.25 21.6204 10.7243 21.6204 10.0781C21.6204 9.43195 22.2532 8.90625 23.0309 8.90625Z" fill="#303030"/>
<path d="M14.177 32.6953H45.7463C46.3935 32.6953 46.9181 32.1705 46.9181 31.5234C46.9181 30.8763 46.3935 30.3516 45.7463 30.3516H14.177C13.5298 30.3516 13.0051 30.8763 13.0051 31.5234C13.0051 32.1705 13.5298 32.6953 14.177 32.6953Z" fill="#303030"/>
<path d="M25.2735 36.2109H14.1865C13.5393 36.2109 13.0146 36.7357 13.0146 37.3828C13.0146 38.0299 13.5393 38.5547 14.1865 38.5547H25.2735C25.9207 38.5547 26.4454 38.0299 26.4454 37.3828C26.4454 36.7357 25.9206 36.2109 25.2735 36.2109Z" fill="#303030"/>
<path d="M30 36.2109C29.6918 36.2109 29.3895 36.3362 29.1715 36.5543C28.9535 36.7723 28.8281 37.0734 28.8281 37.3828C28.8281 37.691 28.9535 37.9934 29.1715 38.2112C29.3895 38.4292 29.6918 38.5547 30 38.5547C30.3082 38.5547 30.6105 38.4293 30.8285 38.2112C31.0465 37.9934 31.1719 37.691 31.1719 37.3828C31.1719 37.0746 31.0465 36.7723 30.8285 36.5543C30.6105 36.3363 30.3082 36.2109 30 36.2109Z" fill="#303030"/>
<path d="M45.7557 36.2109H34.4922C33.845 36.2109 33.3203 36.7357 33.3203 37.3828C33.3203 38.0299 33.845 38.5547 34.4922 38.5547H45.7557C46.4029 38.5547 46.9275 38.0299 46.9275 37.3828C46.9275 36.7357 46.4029 36.2109 45.7557 36.2109Z" fill="#303030"/>
<path d="M19.7695 2.34375C20.0777 2.34375 20.3801 2.21836 20.598 2.00027C20.816 1.78242 20.9414 1.48008 20.9414 1.17188C20.9414 0.863672 20.816 0.561328 20.598 0.343359C20.3801 0.125391 20.0777 0 19.7695 0C19.4613 0 19.159 0.125273 18.941 0.343359C18.723 0.561445 18.5977 0.863672 18.5977 1.17188C18.5977 1.48008 18.723 1.78242 18.941 2.00027C19.159 2.21836 19.4613 2.34375 19.7695 2.34375Z" fill="#303030"/>
</svg>
