<svg width="52" height="52" viewBox="0 0 52 52" fill="none" xmlns="http://www.w3.org/2000/svg">
<g clip-path="url(#clip0_18_99)">
<path d="M43.5513 51.9479H7.94299V0.000976562H43.5513V51.9479ZM9.34066 50.5524H42.1536V1.3965H9.34066V50.5524Z" fill="#303030"/>
<path d="M43.6276 14.3313C41.014 9.53824 36.5157 6.16321 31.3314 5.16058C28.8141 4.67423 26.2441 4.5169 23.6861 4.69254C21.0155 4.26315 18.0213 4.30072 14.8109 5.00063C6.16473 6.89103 2.54584 12.0008 4.16499 14.5128C-0.523652 20.5243 3.13824 21.1941 7.11837 18.4149C17.3192 11.2934 26.2557 10.9467 31.0024 14.0265C35.9781 17.2555 33.8192 22.697 30.8798 24.5466C28.9134 25.7822 29.0521 25.8713 31.125 27.196C33.1978 28.5207 34.6514 34.1521 29.2607 37.5465C23.87 40.9409 15.9086 38.1262 14.7464 36.8015C13.5842 35.4768 13.5014 29.3451 13.5853 23.632C13.6691 17.9189 21.0381 19.9993 20.5511 24.7946C19.8683 31.521 19.4007 33.1678 21.1359 33.6154C25.9837 34.866 26.7793 30.2758 24.0947 28.73C22.0949 27.5781 21.2993 26.2857 25.2773 22.6423C29.2553 18.9989 25.3397 15.3716 17.1493 17.5872C13.324 18.6188 9.35357 21.5237 7.27749 25.765C4.32304 29.3558 2.43941 34.1929 3.92201 38.6468C4.81329 41.3176 7.51187 43.0299 10.934 43.7512C18.662 49.7284 34.4912 48.5164 41.7537 37.8031C47.7078 35.3158 51.9427 30.9897 51.2987 24.9782C50.7945 20.2613 47.8723 16.6758 43.6276 14.3313Z" fill="white"/>
<path d="M2.7609 27.7141C5.15952 24.2951 6.30883 22.5796 3.69626 23.7486C-1.56865 26.1103 -0.58383 32.4825 2.7609 27.7141Z" fill="white"/>
<path d="M42.288 39.3801C41.2849 40.5255 45.2264 44.1034 46.3735 41.4745C47.5207 38.8455 42.9901 38.5793 42.288 39.3801Z" fill="white"/>
<path d="M40.9441 41.7058C39.9228 42.1352 40.6366 44.2253 41.5172 44.0493C43.6674 43.6199 41.8902 41.3087 40.9441 41.7058Z" fill="white"/>
<path d="M7.11839 18.4143C3.07698 21.2354 -0.636521 20.5044 4.38541 14.2331C9.8589 7.40145 20.3769 3.04847 31.3346 5.16538C42.6729 7.35636 50.7397 20.8984 42.946 35.8026C35.1524 50.7068 12.2253 50.3472 7.40653 39.3247C2.41577 27.9114 10.0277 19.5103 17.1526 17.5824C25.3429 15.3667 29.2607 18.994 25.2806 22.6374C21.3004 26.2808 22.0971 27.5754 24.0979 28.7251C26.7857 30.2709 25.9869 34.8612 21.1392 33.6105C19.4039 33.1629 19.8716 31.5162 20.5543 24.7897C21.0413 19.9945 13.6735 17.913 13.5885 23.6272C13.5036 29.3413 13.5885 35.472 14.7497 36.7966C15.9108 38.1213 23.8711 40.9371 29.2639 37.5416C34.6568 34.1462 33.201 28.5169 31.1282 27.1911C29.0553 25.8654 28.9167 25.7773 30.8831 24.5418C33.8225 22.6964 35.9813 17.255 31.0056 14.0216C26.2568 10.9504 17.3192 11.2928 7.11839 18.4143Z" fill="url(#paint0_linear_18_99)"/>
<g style="mix-blend-mode:multiply">
<path d="M42.288 39.3796C42.9901 38.5787 47.5207 38.8428 46.3735 41.4739C45.2264 44.105 41.2849 40.525 42.288 39.3796Z" fill="#27AAFF"/>
</g>
<g style="mix-blend-mode:multiply">
<path d="M40.9441 41.7058C41.8902 41.3087 43.6674 43.6199 41.5172 44.0493C40.6399 44.2285 39.9227 42.1352 40.9441 41.7058Z" fill="#1D9EE1"/>
</g>
<g style="mix-blend-mode:multiply">
<path d="M3.69626 23.7486C-1.57188 26.1103 -0.583838 32.4825 2.76089 27.7141C5.16058 24.2951 6.30345 22.5796 3.69626 23.7486Z" fill="#7BDFF6"/>
</g>
<g style="mix-blend-mode:multiply">
<path d="M51.2987 24.9725C50.7945 20.261 47.8723 16.6755 43.6277 14.3311C46.7327 20.0205 47.1756 27.711 42.945 35.8007C42.5859 36.4875 42.1882 37.1534 41.7537 37.7953C47.7078 35.3101 51.9427 30.984 51.2987 24.9725Z" fill="#1DA5E1"/>
</g>
<g style="mix-blend-mode:multiply">
<path d="M43.6276 14.3305C35.8168 10.0151 23.5227 9.90021 13.5648 14.6944C21.008 11.3043 27.2878 11.6156 31.0013 14.0256C35.977 17.2546 33.8181 22.6961 30.8787 24.5457C28.9123 25.7813 29.051 25.8704 31.1239 27.1951C33.1967 28.5198 34.6503 34.1513 29.2596 37.5456C25.7009 39.7871 21.0209 39.3212 17.9181 38.3647C24.5656 41.1332 34.4514 40.8498 41.7526 37.8011C42.187 37.1592 42.5848 36.4933 42.9439 35.8066C47.1766 27.7104 46.7326 20.0199 43.6276 14.3305Z" fill="#1D9EE1"/>
</g>
<g style="mix-blend-mode:multiply">
<path d="M7.40653 39.3249C5.09715 34.0423 5.48312 29.407 7.27751 25.7646C4.32306 29.3555 2.43943 34.1926 3.92203 38.6464C4.81332 41.3173 7.51189 43.0295 10.934 43.7509C9.39122 42.5518 8.17095 41.0725 7.40653 39.3249Z" fill="#9AE193"/>
</g>
<g style="mix-blend-mode:multiply">
<path d="M32.4689 33.9842C31.9227 35.2552 30.9153 36.5026 29.265 37.5417C23.8743 40.9371 15.913 38.1214 14.7508 36.7967C13.5885 35.472 13.5058 29.3403 13.5896 23.6272C13.6165 21.7239 14.4497 20.6859 15.5388 20.3252C12.9338 20.6472 9.7385 22.7727 7.27968 25.7592C5.48959 29.409 5.09931 34.0422 7.40869 39.3248C8.17096 41.0724 9.39123 42.5517 10.934 43.7454C18.4051 45.3202 29.3295 42.177 32.4689 33.9842Z" fill="#9CD4C7"/>
</g>
<g style="mix-blend-mode:multiply">
<path d="M23.6915 4.69742C21.0209 4.26803 18.0266 4.3056 14.8163 5.00551C6.16473 6.89055 2.54584 12.0003 4.16499 14.5123C4.23594 14.421 4.31013 14.3276 4.38001 14.2332C8.56442 9.01819 15.6818 5.24812 23.6915 4.69742Z" fill="#7BE1F6"/>
</g>
<g style="mix-blend-mode:multiply">
<path d="M23.6915 4.69727C15.6818 5.24796 8.56447 9.01804 4.38544 14.233C4.31018 14.3275 4.23599 14.4209 4.17041 14.5121C5.19286 16.1009 8.30859 16.6516 13.5703 14.6946C21.0134 11.3056 27.2932 11.6169 31.0057 14.0269C33.7784 15.8261 34.3386 18.3123 33.7763 20.4796C39.5906 15.2689 34.0999 6.38263 23.6915 4.69727Z" fill="#7BDFF6"/>
</g>
<path d="M9.34066 19.3115H7.94299V51.2487H9.34066V19.3115Z" fill="#303030"/>
</g>
<defs>
<linearGradient id="paint0_linear_18_99" x1="8.56229" y1="9.87583" x2="39.3519" y2="40.7116" gradientUnits="userSpaceOnUse">
<stop stop-color="#5DEAF3"/>
<stop offset="1" stop-color="#008BD5"/>
</linearGradient>
<clipPath id="clip0_18_99">
<rect width="51.3633" height="51.9469" fill="white"/>
</clipPath>
</defs>
</svg>
