<svg width="50" height="56" viewBox="0 0 50 56" fill="none" xmlns="http://www.w3.org/2000/svg">
<path d="M37.1668 55.1797H12.2293C9.81311 55.1797 7.85431 53.2209 7.85431 50.8047V5.19531C7.85431 2.77911 9.81311 0.820312 12.2293 0.820312H37.1668C39.583 0.820312 41.5418 2.77911 41.5418 5.19531V50.8047C41.5418 53.2209 39.583 55.1797 37.1668 55.1797Z" fill="#3D6D93"/>
<path d="M37.1668 0.820312H33.8856C36.3018 0.820312 38.2606 2.77911 38.2606 5.19531V50.8047C38.2606 53.2209 36.3018 55.1797 33.8856 55.1797H37.1668C39.583 55.1797 41.5418 53.2209 41.5418 50.8047V5.19531C41.5418 2.77911 39.583 0.820312 37.1668 0.820312Z" fill="#335E80"/>
<path d="M32.732 4.97656C32.732 5.79316 32.07 6.4552 31.2534 6.4552H18.1428C17.3262 6.4552 16.6642 5.79316 16.6642 4.97656C16.6642 4.49334 16.2724 4.10156 15.7892 4.10156H12.7762C11.8702 4.10156 11.1356 4.83612 11.1356 5.74219V50.2578C11.1356 51.1639 11.8702 51.8984 12.7762 51.8984H36.62C37.526 51.8984 38.2606 51.1639 38.2606 50.2578V5.74219C38.2606 4.83612 37.526 4.10156 36.62 4.10156H33.607C33.1238 4.10156 32.732 4.49334 32.732 4.97656Z" fill="#F9F7F8"/>
<path d="M16.3697 23.7883C17.7033 22.1886 18.4814 20.1099 18.4037 17.8469C18.2445 13.2046 14.4416 9.45317 9.79768 9.35364C4.80635 9.24667 0.733879 13.2943 0.800488 18.2767C0.865129 23.1117 4.88739 26.9609 9.72286 26.9609H17.7717C18.1615 26.9609 18.3566 26.4896 18.081 26.2141L16.398 24.5312C16.1959 24.3289 16.1866 24.0079 16.3697 23.7883Z" fill="#FF7A00"/>
<path d="M16.398 24.5311C16.1959 24.3289 16.1866 24.0079 16.3697 23.7883C17.7033 22.1886 18.4814 20.1099 18.4037 17.8469C18.2445 13.2046 14.4416 9.45316 9.79768 9.35363C9.16647 9.34007 8.55025 9.39344 7.95493 9.50632C11.9218 10.2575 14.98 13.6947 15.1225 17.8469C15.2001 20.1099 14.4221 22.1887 13.0884 23.7883C12.9055 24.0078 12.9146 24.3289 13.1168 24.5311L14.7997 26.214C15.0753 26.4896 14.8801 26.9608 14.4904 26.9608H17.7717C18.1615 26.9608 18.3566 26.4895 18.081 26.214L16.398 24.5311Z" fill="#FF7A00"/>
<path d="M33.0265 43.4758C31.6929 41.8761 30.9148 39.7974 30.9925 37.5344C31.1517 32.8921 34.9546 29.1407 39.5985 29.0411C44.5899 28.9342 48.6623 32.9818 48.5957 37.9642C48.5311 42.7992 44.5088 46.6484 39.6733 46.6484H31.6245C31.2347 46.6484 31.0396 46.1771 31.3152 45.9016L32.9982 44.2187C33.2002 44.0164 33.2095 43.6954 33.0265 43.4758Z" fill="#1D9EE1"/>
<path d="M39.5985 29.0411C39.1083 29.0516 38.6282 29.1051 38.16 29.1938C42.2722 29.9732 45.3727 33.6118 45.3145 37.9642C45.2498 42.7992 41.2276 46.6484 36.3921 46.6484H39.6733C44.5088 46.6484 48.5312 42.7992 48.5957 37.9642C48.6622 32.9818 44.5899 28.9342 39.5985 29.0411Z" fill="#1D9EE1"/>
<path d="M16.1668 47.4688H28.3432C28.7962 47.4688 29.1635 47.1015 29.1635 46.6484C29.1635 46.1954 28.7962 45.8281 28.3432 45.8281H16.1668C15.7138 45.8281 15.3465 46.1954 15.3465 46.6484C15.3465 47.1015 15.7138 47.4688 16.1668 47.4688ZM22.7293 21.2188H33.2651C33.7181 21.2188 34.0854 20.8515 34.0854 20.3984C34.0854 19.9454 33.7181 19.5781 33.2651 19.5781H22.7293C22.2763 19.5781 21.909 19.9454 21.909 20.3984C21.909 20.8515 22.2763 21.2188 22.7293 21.2188ZM21.0887 24.5H33.2651C33.7181 24.5 34.0854 24.1327 34.0854 23.6797C34.0854 23.2267 33.7181 22.8594 33.2651 22.8594H21.0887C20.6357 22.8594 20.2684 23.2267 20.2684 23.6797C20.2684 24.1327 20.6357 24.5 21.0887 24.5ZM21.0887 27.7812H33.2651C33.7181 27.7812 34.0854 27.414 34.0854 26.9609C34.0854 26.5079 33.7181 26.1406 33.2651 26.1406H21.0887C20.6357 26.1406 20.2684 26.5079 20.2684 26.9609C20.2684 27.414 20.6357 27.7812 21.0887 27.7812ZM16.1668 40.9062H26.7026C27.1556 40.9062 27.5229 40.539 27.5229 40.0859C27.5229 39.6329 27.1556 39.2656 26.7026 39.2656H16.1668C15.7138 39.2656 15.3465 39.6329 15.3465 40.0859C15.3465 40.539 15.7138 40.9062 16.1668 40.9062ZM16.1668 44.1875H28.3432C28.7962 44.1875 29.1635 43.8202 29.1635 43.3672C29.1635 42.9142 28.7962 42.5469 28.3432 42.5469H16.1668C15.7138 42.5469 15.3465 42.9142 15.3465 43.3672C15.3465 43.8202 15.7138 44.1875 16.1668 44.1875ZM7.14339 18.1562C7.14339 17.7032 6.7761 17.3359 6.32307 17.3359C5.87004 17.3359 5.50276 17.7032 5.50276 18.1562C5.50276 18.6093 5.87004 18.9766 6.32307 18.9766C6.7761 18.9766 7.14339 18.6093 7.14339 18.1562ZM36.5106 37.0234C36.0575 37.0234 35.6903 37.3907 35.6903 37.8438C35.6903 38.2968 36.0575 38.6641 36.5106 38.6641C36.9636 38.6641 37.3309 38.2968 37.3309 37.8438C37.3309 37.3907 36.9636 37.0234 36.5106 37.0234ZM13.7059 18.1562C13.7059 17.7032 13.3386 17.3359 12.8856 17.3359C12.4325 17.3359 12.0653 17.7032 12.0653 18.1562C12.0653 18.6093 12.4325 18.9766 12.8856 18.9766C13.3386 18.9766 13.7059 18.6093 13.7059 18.1562ZM23.8778 3.63781C23.8778 4.09084 24.245 4.45812 24.6981 4.45812C25.1511 4.45812 25.5184 4.09084 25.5184 3.63781C25.5184 3.18478 25.1511 2.8175 24.6981 2.8175C24.245 2.8175 23.8778 3.18467 23.8778 3.63781ZM10.4246 18.1562C10.4246 17.7032 10.0574 17.3359 9.60432 17.3359C9.15129 17.3359 8.78401 17.7032 8.78401 18.1562C8.78401 18.6093 9.15129 18.9766 9.60432 18.9766C10.0574 18.9766 10.4246 18.6093 10.4246 18.1562ZM39.7918 37.0234C39.3388 37.0234 38.9715 37.3907 38.9715 37.8438C38.9715 38.2968 39.3388 38.6641 39.7918 38.6641C40.2449 38.6641 40.6121 38.2968 40.6121 37.8438C40.6121 37.3907 40.2449 37.0234 39.7918 37.0234ZM43.0731 37.0234C42.62 37.0234 42.2528 37.3907 42.2528 37.8438C42.2528 38.2968 42.62 38.6641 43.0731 38.6641C43.5261 38.6641 43.8934 38.2968 43.8934 37.8438C43.8934 37.3907 43.5261 37.0234 43.0731 37.0234ZM46.5701 31.0102C45.3771 29.8268 43.9345 28.9962 42.3621 28.5637V21.9891C42.3621 21.536 41.9949 21.1688 41.5418 21.1688C41.0888 21.1688 40.7215 21.536 40.7215 21.9891V28.2644C40.3454 28.2288 39.9651 28.2124 39.5809 28.221C39.4132 28.2247 39.2465 28.2331 39.0809 28.2452V5.74219C39.0809 4.38517 37.977 3.28125 36.6199 3.28125H33.6067C32.6718 3.28125 31.9114 4.04173 31.9114 4.97656C31.9114 5.33958 31.6159 5.635 31.2529 5.635H18.1432C17.7802 5.635 17.4848 5.33958 17.4848 4.97656C17.4848 4.5232 17.3086 4.09741 16.9866 3.77541C16.6657 3.45669 16.2404 3.28125 15.7895 3.28125H12.7762C11.4192 3.28125 10.3153 4.38517 10.3153 5.74219V8.55772C10.1497 8.54569 9.98309 8.53716 9.8152 8.53355C9.43118 8.52534 9.05056 8.54044 8.67463 8.5773V5.19531C8.67463 3.23531 10.2693 1.64062 12.2293 1.64062H37.1668C39.1268 1.64062 40.7215 3.23531 40.7215 5.19531V18.161C40.7215 18.614 41.0888 18.9813 41.5418 18.9813C41.9949 18.9813 42.3621 18.614 42.3621 18.161V5.19531C42.3621 2.33067 40.0315 0 37.1668 0H12.2293C9.36468 0 7.03401 2.33067 7.03401 5.19531V8.88541C4.13951 9.69194 1.71554 11.8265 0.609323 14.7246C0.447776 15.1479 0.659855 15.622 1.08314 15.7836C1.50642 15.9452 1.98056 15.733 2.1421 15.3098C3.34228 12.1656 6.41178 10.1005 9.78009 10.1738C11.8159 10.2175 13.7429 11.0367 15.2063 12.4807C16.6697 13.9248 17.5141 15.8406 17.5839 17.875C17.6514 19.842 16.9963 21.7556 15.7395 23.2631C15.2809 23.8133 15.3147 24.6077 15.8179 25.1111L16.8475 26.1406H9.72278C5.47695 26.1406 1.92598 22.8753 1.63876 18.7067C1.60759 18.2547 1.21471 17.9139 0.763979 17.9447C0.312042 17.9759 -0.0290988 18.3676 0.00196368 18.8195C0.285245 22.9288 3.19254 26.3086 7.0339 27.4047V50.8047C7.0339 53.6693 9.36457 56 12.2292 56H37.1667C40.0314 56 42.362 53.6693 42.362 50.8047V47.092C46.3776 45.9423 49.3582 42.2906 49.4158 37.9751C49.4512 35.3392 48.4405 32.8657 46.5701 31.0102ZM11.9559 27.7812H17.7717C18.8567 27.7919 19.4405 26.3979 18.661 25.634L17.1525 24.1255C18.568 22.3382 19.3021 20.1083 19.2235 17.8188C19.0739 13.458 16.0267 9.84539 11.9559 8.82317V5.74219C11.9559 5.28981 12.3238 4.92188 12.7762 4.92188H15.7895C15.8049 4.92188 15.8188 4.92789 15.8285 4.93752C15.8425 4.95152 15.8442 4.9665 15.8442 4.97656C15.8442 6.24422 16.8756 7.27562 18.1432 7.27562H31.2529C32.5206 7.27562 33.552 6.24422 33.552 4.97656C33.552 4.94637 33.5765 4.92188 33.6067 4.92188H36.6199C37.0723 4.92188 37.4403 5.28981 37.4403 5.74219V28.5107C33.3693 29.5329 30.3222 33.1457 30.1726 37.5064C30.0941 39.796 30.8281 42.0257 32.2436 43.8131L30.7351 45.3216C30.3741 45.6827 30.2671 46.2207 30.4625 46.6924C30.6579 47.164 31.114 47.4689 31.6246 47.4689H37.4404V50.2579C37.4404 50.7103 37.0724 51.0782 36.6201 51.0782H12.7763C12.3239 51.0782 11.956 50.7103 11.956 50.2579V27.7812H11.9559ZM40.7215 50.8047C40.7215 52.7647 39.1268 54.3594 37.1668 54.3594H12.2293C10.2693 54.3594 8.67463 52.7647 8.67463 50.8047V27.7236C9.0195 27.7605 9.36895 27.7812 9.72278 27.7812H10.3153V50.2578C10.3153 51.6148 11.4192 52.7188 12.7762 52.7188H36.6199C37.977 52.7188 39.0809 51.6148 39.0809 50.2578V47.4688H39.6734C40.0273 47.4688 40.377 47.4492 40.7215 47.4122V50.8047ZM39.6734 45.8281H32.5487L33.5782 44.7986C34.0816 44.2952 34.1153 43.5008 33.6567 42.9506C33.6567 42.9506 33.6567 42.9506 33.6567 42.9505C32.3998 41.443 31.7449 39.5295 31.8124 37.5625C31.8822 35.528 32.7265 33.6121 34.19 32.1681C35.6533 30.7241 37.5804 29.9049 39.6162 29.8611C41.8039 29.815 43.8633 30.6359 45.4148 32.175C46.9665 33.7141 47.8049 35.7662 47.7755 37.9531C47.7175 42.2954 44.0828 45.8281 39.6734 45.8281Z" fill="black"/>
</svg>
