<svg width="56" height="56" viewBox="0 0 56 56" fill="none" xmlns="http://www.w3.org/2000/svg">
<path d="M8.26807 15.365L8.26927 25.1519C8.26971 28.3388 10.8532 30.922 14.0401 30.922H25.8518C29.0391 30.922 31.6229 28.338 31.6226 25.1507L31.6219 15.3632C31.6216 8.91447 26.3937 3.68701 19.945 3.68701C13.4956 3.68701 8.26752 8.91556 8.26807 15.365Z" fill="#FF7A00"/>
<path d="M27.0294 33.0993C25.663 32.7242 24.7155 31.4827 24.7143 30.0659L24.7086 23.4233L15.195 23.4315L15.2007 30.0741C15.2019 31.4909 14.2573 32.7339 12.8917 33.1113C11.5101 33.4931 9.67333 34.0008 7.85016 34.5046C7.85016 38.7361 14.7833 43.2504 19.9412 43.2504C25.1106 43.2504 32.0486 38.2907 32.0486 34.4772L27.0294 33.0993Z" fill="#FFECE3"/>
<path d="M20.1468 32.3062C20.148 33.7231 21.0955 34.9646 22.4618 35.3396C24.0497 35.7756 28.2951 36.941 29.9248 37.3883C30.2004 37.464 30.4671 37.5582 30.7246 37.6678C31.5513 36.6002 32.0484 35.4977 32.0484 34.4772L27.0292 33.0993C25.6629 32.7242 24.7154 31.4827 24.7142 30.0659L24.7085 23.4233L20.1423 23.4273L20.1468 32.3062Z" fill="#FFDDCE"/>
<path d="M23.6154 14.1699H31.6231V20.6215H23.6154V14.1699Z" fill="#7C8B96"/>
<path d="M8.26807 14.1699H15.5604V20.6215H8.26807V14.1699Z" fill="#7C8B96"/>
<path d="M11.4785 14.1707L11.5107 19.9603C11.5155 25.5696 17.4066 28.6972 19.956 28.7495C22.5052 28.6927 28.3909 25.5551 28.386 19.9458L28.4039 9.11035L16.0199 9.12107L16.0204 9.62113C16.0224 12.1316 13.989 14.1685 11.4785 14.1707Z" fill="#FFECE3"/>
<path d="M24.0231 9.11407L24.0052 19.9458C24.009 24.2604 20.5278 27.1122 17.7604 28.2249C18.5951 28.5598 19.3653 28.7373 19.956 28.7495C22.5052 28.6927 28.3908 25.5551 28.386 19.9458L28.4039 9.11035L24.0231 9.11407Z" fill="#FFDDCE"/>
<path d="M19.945 3.68701C18.4281 3.68701 16.9789 3.97642 15.6494 4.50273C15.3724 4.94384 15.2119 5.46545 15.2124 6.02468C15.2161 10.3278 18.7075 13.8133 23.0107 14.177L31.5617 14.1704C30.9639 8.28195 25.9911 3.68701 19.945 3.68701Z" fill="#FF7A00"/>
<path d="M8.26882 20.6216L8.26817 15.3651C8.26784 12.1347 9.57038 9.10447 11.9275 6.87443C14.0134 4.90087 16.7728 3.7637 19.6435 3.69096C26.2191 3.52428 31.6217 8.8248 31.6221 15.3633L31.6225 20.6216C33.1737 20.6216 34.4311 19.3642 34.4308 17.813L34.4306 15.3049C34.4301 7.31816 27.9319 0.820312 19.9449 0.820312C16.0756 0.820312 12.4379 2.32728 9.70174 5.06351C6.96573 7.79985 5.45921 11.4378 5.45953 15.3072L5.45986 17.813C5.46008 19.3643 6.71756 20.6216 8.26882 20.6216Z" fill="#8C9BA6"/>
<path d="M39.1139 41.2042C39.1114 38.3757 37.2199 35.8972 34.4923 35.1484L32.0485 34.4775C29.6247 38.6461 25.1105 41.4491 19.9411 41.4491C14.7831 41.4491 10.2776 38.6584 7.85005 34.505C7.02646 34.7326 6.2056 34.9594 5.4309 35.1736C2.70462 35.9271 0.817909 38.4087 0.820315 41.2372L0.830487 53.163C0.831471 54.2472 1.71117 55.1255 2.7954 55.1245L37.1625 55.0949C38.2467 55.0939 39.125 54.2142 39.124 53.13L39.1139 41.2042Z" fill="#1D9EE1"/>
<path d="M39.1138 41.2042C39.1114 38.3757 37.2199 35.8972 34.4923 35.1484L32.0484 34.4775C31.4339 35.5345 30.6844 36.5032 29.8244 37.3611C29.8582 37.3704 29.8929 37.3799 29.9247 37.3887C32.6523 38.1374 34.5438 40.6159 34.5462 43.4444L34.5563 55.0971L37.1625 55.0949C38.2467 55.0939 39.125 54.2142 39.124 53.13L39.1138 41.2042Z" fill="#1D9EE1"/>
<path d="M45.3854 54.1178H20.7101V39.8082C20.7101 38.97 21.3897 38.2905 22.2278 38.2905H43.8676C44.7059 38.2905 45.3853 38.9701 45.3853 39.8082V54.1178H45.3854Z" fill="#F4F8F8"/>
<path d="M43.8676 38.2905H39.4331C40.2714 38.2905 40.9508 38.9701 40.9508 39.8082V54.1178H45.3853V39.8082C45.3854 38.97 44.7058 38.2905 43.8676 38.2905Z" fill="#E5ECF1"/>
<path d="M45.9709 55.1241H20.1246C19.267 55.1241 18.5718 54.429 18.5718 53.5713C18.5718 52.7137 19.267 52.0186 20.1246 52.0186H45.9709C46.8285 52.0186 47.5237 52.7137 47.5237 53.5713C47.5237 54.4288 46.8285 55.1241 45.9709 55.1241Z" fill="#E5ECF1"/>
<path d="M51.3481 0.820312H40.6052C38.4891 0.820312 36.7737 2.53575 36.7737 4.65182V9.25475C36.7737 11.0677 38.0329 12.5866 39.7245 12.9844C40.2424 13.1063 40.6021 13.578 40.6021 14.1101V17.4761C40.6021 17.814 41.0344 17.9545 41.2331 17.6813L44.2271 13.5644C44.4457 13.264 44.7948 13.0861 45.1663 13.0861H51.348C53.4641 13.0861 55.1795 11.3707 55.1795 9.25464V4.65182C55.1796 2.53575 53.4642 0.820312 51.3481 0.820312Z" fill="#1D9EE1"/>
<path d="M40.1201 13.1656C40.4164 13.3782 40.6024 13.7285 40.6024 14.1104V17.4764C40.6024 17.8143 41.0346 17.9548 41.2334 17.6816L44.2274 13.5647C44.4459 13.2643 44.7951 13.0864 45.1666 13.0864H40.1776L40.1201 13.1656Z" fill="#1D9EE1"/>
<path d="M51.3482 0.820312H48.8353C49.9104 0.820312 50.782 1.69192 50.782 2.76707V11.1395C50.782 12.2147 49.9104 13.0863 48.8353 13.0863H51.3482C53.4642 13.0863 55.1797 11.3708 55.1797 9.25475V4.65182C55.1797 2.53575 53.4642 0.820312 51.3482 0.820312Z" fill="#1D9EE1"/>
<path d="M16.6154 26.1244H13.3348C12.4859 26.1244 11.7977 25.4362 11.7977 24.5873C11.7977 23.7385 12.4859 23.0503 13.3348 23.0503H16.6154C17.4642 23.0503 18.1524 23.7385 18.1524 24.5873C18.1523 25.4362 17.4642 26.1244 16.6154 26.1244Z" fill="#FC5692"/>
<path d="M50.665 4.31787H41.2885C40.8353 4.31787 40.4681 4.68504 40.4681 5.13818C40.4681 5.59132 40.8353 5.95849 41.2885 5.95849H50.665C51.1182 5.95849 51.4854 5.59132 51.4854 5.13818C51.4854 4.68504 51.1181 4.31787 50.665 4.31787Z" fill="#303030"/>
<path d="M50.665 7.92773H41.2885C40.8353 7.92773 40.4681 8.29491 40.4681 8.74805C40.4681 9.20119 40.8353 9.56836 41.2885 9.56836H50.665C51.1182 9.56836 51.4854 9.20119 51.4854 8.74805C51.4854 8.29491 51.1181 7.92773 50.665 7.92773Z" fill="#303030"/>
<path d="M51.3482 0H45.9768C45.5237 0 45.1565 0.367171 45.1565 0.820311C45.1565 1.27345 45.5237 1.64062 45.9768 1.64062H51.3482C53.0086 1.64062 54.3593 2.99151 54.3593 4.65182V9.25475C54.3593 10.9152 53.0085 12.2658 51.3482 12.2658H45.1665C44.5346 12.2658 43.9355 12.571 43.564 13.082L41.4227 16.0261V14.1101C41.4227 13.1864 40.8017 12.3951 39.9124 12.1859C38.5475 11.8648 37.5942 10.6596 37.5942 9.25475V4.65182C37.5942 2.9914 38.945 1.64062 40.6053 1.64062H42.189C42.6421 1.64062 43.0093 1.27345 43.0093 0.820311C43.0093 0.367171 42.6421 0 42.189 0H40.6053C38.0404 0 35.9536 2.08676 35.9536 4.65182V9.25475C35.9536 11.4246 37.4271 13.2866 39.5368 13.7829C39.6789 13.8163 39.7821 13.9538 39.7821 14.11V17.4759C39.7821 17.9841 40.1067 18.4307 40.5899 18.5879C41.074 18.7451 41.5988 18.5737 41.8967 18.1635L44.891 14.0467C44.9548 13.9587 45.0579 13.9063 45.1666 13.9063H51.3483C53.9133 13.9063 56 11.8196 56 9.25464V4.65182C55.9999 2.08676 53.9132 0 51.3482 0Z" fill="#303030"/>
<path d="M46.2056 51.2099V39.8085C46.2056 38.5193 45.1568 37.4705 43.8676 37.4705H38.8672C37.9267 35.9544 36.4371 34.8314 34.7094 34.3571C33.0824 33.9104 28.8354 32.7446 27.2465 32.3084C26.8582 32.2019 26.5158 31.9986 26.2405 31.7301C29.6968 31.5302 32.4431 28.6692 32.4429 25.1508L32.4425 21.3484C33.0984 21.1976 33.7006 20.8667 34.1882 20.3791C34.8736 19.6936 35.2511 18.7823 35.251 17.813L35.2507 15.305C35.2504 6.86567 28.3842 0 19.9449 0C11.4852 0 4.63837 6.84675 4.63924 15.3073C4.63968 24.8735 4.63957 22.9049 4.63957 23.1803C4.63957 24.377 5.61323 25.3508 6.81001 25.3508H7.45422C7.55682 28.7748 10.2818 31.551 13.6855 31.7326C13.4096 32.0055 13.0649 32.2125 12.6732 32.3207C11.1519 32.7411 6.50605 34.0252 5.21248 34.3827C2.14069 35.2316 -0.00273176 38.0505 2.61317e-06 41.2376L0.0101745 53.1634C0.011487 54.6973 1.26 55.9447 2.79398 55.9445H2.79617C32.6571 55.9443 -32.6209 55.9365 45.9709 55.9445C47.2794 55.9445 48.344 54.88 48.344 53.5714C48.344 52.3421 47.4044 51.3283 46.2056 51.2099ZM36.8098 37.4705H30.8532C31.4351 36.8376 31.9623 36.1579 32.4269 35.4317L34.2752 35.9392C35.2501 36.2068 36.1261 36.7435 36.8098 37.4705ZM9.08949 23.7102L9.08916 21.4419H10.8198C10.9312 22.074 11.115 22.6911 11.3691 23.2894C11.2819 23.421 11.2083 23.562 11.1486 23.7103H9.08949V23.7102ZM29.2146 14.9927L30.7946 14.9915C30.808 15.3896 30.7989 15.2123 30.802 19.8013H29.2067L29.2146 14.9927ZM23.0458 13.3568C19.1137 13.0075 16.036 9.79287 16.0327 6.02404C16.0325 5.72336 16.0991 5.42882 16.2252 5.1591C17.4015 4.73112 18.6561 4.50744 19.945 4.50744C25.2436 4.50744 29.6672 8.3232 30.6137 13.3509C28.7306 13.3525 23.7265 13.3563 23.0458 13.3568ZM14.3922 6.03016C14.3939 7.29738 14.6727 8.53265 15.1989 9.66731C15.1762 11.6912 13.532 13.3329 11.506 13.3497C11.5059 13.3497 11.5059 13.3497 11.5058 13.3497H9.27455C9.86605 10.1796 11.8225 7.56502 14.3922 6.03016ZM9.08894 19.8013L9.08839 15.365C9.08839 15.2396 9.09124 15.1148 9.09539 14.9903H10.6626L10.6895 19.8012H9.08894V19.8013ZM13.3348 23.8708H16.6153C17.0105 23.8708 17.3321 24.1923 17.3321 24.5875C17.3321 24.9826 17.0106 25.3042 16.6153 25.3042H13.3348C12.9396 25.3042 12.6181 24.9827 12.6181 24.5875C12.618 24.1923 12.9396 23.8708 13.3348 23.8708ZM18.9726 24.5875C18.9726 23.2876 17.9152 22.2302 16.6152 22.2302H13.3347C13.1307 22.2302 12.9337 22.259 12.7448 22.3079C12.4707 21.5546 12.3318 20.7672 12.331 19.9559L12.3029 14.9271C14.1893 14.6336 15.7523 13.3533 16.4492 11.6333C16.5963 11.8096 16.7487 11.9826 16.9103 12.1492C18.5017 13.7898 20.6436 14.8002 22.9415 14.9945C22.9644 14.9965 22.9875 14.9974 23.0106 14.9974H23.0111L27.5738 14.9939L27.5656 19.9466C27.5679 22.6348 26.0491 24.7011 24.2908 26.0574C24.2785 26.0649 21.9746 27.871 19.9553 27.929C19.2164 27.9086 18.0905 27.5594 16.9375 26.9199C18.0851 26.7621 18.9726 25.7777 18.9726 24.5875ZM25.8518 30.1018H25.5362C25.536 30.0896 25.5346 30.0775 25.5346 30.0653L25.5321 27.1576C27.3549 25.6768 28.6648 23.7243 29.074 21.4419H30.802L30.8024 25.1509C30.8026 27.8871 28.5884 30.1018 25.8518 30.1018ZM19.9449 1.64062C27.4797 1.64062 33.6098 7.77042 33.6102 15.3051L33.6104 17.8132C33.6104 18.3442 33.4036 18.8435 33.0282 19.2191C32.8563 19.3911 32.6576 19.5257 32.4426 19.6233L32.4423 15.3634C32.4423 14.9349 32.4206 14.5113 32.3782 14.0938C32.3777 14.0885 32.3771 14.0832 32.3766 14.0778C31.7306 7.78891 26.4018 2.86693 19.9452 2.86693C13.0379 2.86693 7.44733 8.45697 7.44799 15.3653L7.44854 19.6221C6.76079 19.3088 6.28041 18.6167 6.2803 17.8129L6.27998 15.3071C6.27899 7.75434 12.3912 1.64062 19.9449 1.64062ZM6.28008 23.1803V20.8463C6.63194 21.0777 7.02613 21.2492 7.44854 21.3473L7.44886 23.7103H6.8099C6.51776 23.7102 6.28008 23.4725 6.28008 23.1803ZM14.0402 30.1018C11.3776 30.1018 9.19995 27.9882 9.09474 25.3509H11.1068C11.425 26.2766 12.3024 26.9448 13.3348 26.9448H14.1088C14.1972 27.0206 14.2868 27.0955 14.3779 27.1689L14.3804 30.075C14.3804 30.084 14.3794 30.0928 14.3793 30.1018H14.0402ZM13.1101 33.9021C14.8255 33.4281 16.0225 31.8537 16.021 30.0735L16.0195 28.2864C17.3735 29.0606 18.8036 29.5464 19.9392 29.5697C19.9449 29.5698 19.9505 29.5699 19.9561 29.5699C19.9622 29.5699 19.9682 29.5698 19.9744 29.5697C20.9527 29.5479 22.4032 29.135 23.8925 28.2826L23.894 30.0667C23.8956 31.8467 25.0955 33.4191 26.8123 33.8904L30.7581 34.9737C30.1147 35.8978 29.3554 36.7333 28.4924 37.4705H22.2279C20.9387 37.4705 19.8899 38.5193 19.8899 39.8085V40.6276C15.6061 40.6106 11.5843 38.4813 9.14264 34.9986L13.1101 33.9021ZM2.79486 54.3039C2.79453 54.3039 2.79431 54.3039 2.79398 54.3039C2.1642 54.3039 1.65145 53.7917 1.65091 53.1619L1.64062 41.2362C1.63844 38.785 3.28693 36.617 5.64943 35.9641L7.47391 35.4599C8.7338 37.4173 10.4457 39.0624 12.4567 40.2419C14.703 41.5596 17.2724 42.2594 19.8898 42.2683V44.2891C19.8898 44.7423 20.2571 45.1094 20.7101 45.1094C21.1632 45.1094 21.5304 44.7423 21.5304 44.2891V39.8086C21.5304 39.424 21.8432 39.1112 22.2278 39.1112H43.8676C44.2522 39.1112 44.565 39.424 44.565 39.8086V51.1984H21.5305V48.1199C21.5305 47.6667 21.1633 47.2996 20.7102 47.2996C20.2572 47.2996 19.8899 47.6667 19.8899 48.1199V51.2101C18.6912 51.3285 17.7515 52.3423 17.7515 53.5716C17.7515 53.8222 17.7909 54.064 17.8633 54.291L8.12874 54.2994V49.7138C8.12874 49.2607 7.76146 48.8935 7.30843 48.8935C6.8554 48.8935 6.48812 49.2607 6.48812 49.7138V54.3008L2.79486 54.3039ZM45.9709 54.3039H20.1246C20.0996 54.3039 20.0749 54.3026 20.0505 54.3002C20.0354 54.2978 20.0205 54.2948 20.0051 54.2933C19.6579 54.236 19.392 53.9346 19.392 53.5714C19.392 53.1675 19.7206 52.839 20.1245 52.839H45.9708C46.3747 52.839 46.7033 53.1675 46.7033 53.5714C46.7033 53.9754 46.3748 54.3039 45.9709 54.3039Z" fill="#303030"/>
</svg>
