<svg width="55" height="56" viewBox="0 0 55 56" fill="none" xmlns="http://www.w3.org/2000/svg">
<path d="M44.0037 22.4291C42.943 22.9495 41.7875 23.3849 40.5577 23.7122C40.4663 23.7365 40.3749 23.7596 40.2831 23.7822C37.6518 24.4436 35.0816 24.5051 32.8676 24.0668C29.5219 23.4028 26.9925 21.596 26.3049 18.9851C25.3976 15.5398 27.9653 11.7177 32.3479 9.36395C32.9054 9.0653 33.3665 8.63549 33.7022 8.12024C34.0371 7.60754 34.2462 7.0094 34.2976 6.3775C34.4667 4.28869 32.9802 2.42889 30.9123 2.15331C28.0779 1.77349 23.9643 1.58166 19.9029 2.66259C6.25872 6.29418 -1.81127 20.7253 1.61518 34.4907C5.18442 48.8278 19.7198 57.4146 33.8841 53.625C45.5178 50.5133 53.3035 39.8783 53.4114 28.279C53.4119 28.1863 53.4097 28.0829 53.4038 27.9697C53.1492 23.302 48.1836 20.3775 44.0037 22.4291ZM42.8869 38.5479C40.8517 39.0892 38.7669 37.8711 38.2285 35.8259C37.6896 33.7798 38.9016 31.6837 40.9367 31.142C42.971 30.6007 45.0554 31.8192 45.5947 33.8657C46.1331 35.9105 44.9212 38.0061 42.8869 38.5479Z" fill="#E5E9EA"/>
<path d="M36.0675 44.3764C36.0675 46.9604 33.984 49.0556 31.4134 49.0556C28.8428 49.0556 26.7592 46.9604 26.7592 44.3764C26.7592 41.792 28.8428 39.6968 31.4134 39.6968C33.984 39.6968 36.0675 41.792 36.0675 44.3764Z" fill="#58C3E8"/>
<path d="M22.9911 41.1201C22.9911 43.704 20.9071 45.7993 18.3365 45.7993C15.766 45.7993 13.6824 43.704 13.6824 41.1201C13.6824 38.5356 15.766 36.4404 18.3365 36.4404C20.9071 36.4404 22.9911 38.5356 22.9911 41.1201Z" fill="#49BD90"/>
<path d="M15.2552 29.7046C15.2552 32.289 13.1712 34.3842 10.601 34.3842C8.03041 34.3842 5.94641 32.289 5.94641 29.7046C5.94641 27.1206 8.03041 25.0254 10.601 25.0254C13.1712 25.0254 15.2552 27.1206 15.2552 29.7046Z" fill="#FF7A00"/>
<path d="M19.1405 16.5176C19.1405 19.102 17.0565 21.1972 14.4859 21.1972C11.9158 21.1972 9.83179 19.102 9.83179 16.5176C9.83179 13.9336 11.9158 11.8384 14.4859 11.8384C17.0565 11.8384 19.1405 13.9336 19.1405 16.5176Z" fill="#FFD061"/>
<path d="M50.6186 22.129L49.8354 32.221L48.1743 53.6355C48.1411 54.0678 47.853 54.4524 47.4106 54.7288C46.9695 55.0048 46.3711 55.1718 45.7176 55.1688C44.4095 55.1633 43.3344 54.4793 43.2749 53.6149L41.7926 32.1873L41.094 22.0889L50.6186 22.129Z" fill="#FFD061"/>
<path d="M46.8981 54.9732C46.0367 54.7399 45.4175 54.1909 45.3721 53.5406L43.7802 22.1004L41.094 22.0889L41.7931 32.1868L43.2749 53.615C43.3344 54.4793 44.41 55.1629 45.7171 55.1684C46.1442 55.1706 46.5479 55.1001 46.8981 54.9732Z" fill="#EF8930"/>
<path d="M49.8354 32.2214L50.6186 22.129L43.7797 22.1008L41.094 22.0889L41.7926 32.1873L44.2914 32.1975L49.8354 32.2214Z" fill="#3E4B5C"/>
<path d="M41.094 22.0892C36.7352 20.1196 36.2775 13.5319 40.1756 9.64606C44.0734 5.76026 45.7809 3.45654 45.7919 0.831543C45.7919 0.831543 59.8398 15.296 50.6182 22.1293L41.094 22.0892Z" fill="#FF7A00"/>
<path d="M45.0372 22.1054L41.094 22.0888C36.736 20.1192 36.2775 13.5319 40.1756 9.64692C44.0734 5.76068 45.7813 3.45612 45.7923 0.831543C47.2028 8.64673 39.3788 13.2755 45.0372 22.1054Z" fill="#FF7A00"/>
<path d="M44.2914 32.1975L43.7797 22.1008L41.094 22.0889L41.7926 32.1873L44.2914 32.1975Z" fill="#243142"/>
<path d="M35.6855 46.411C36.1258 46.5324 36.5809 46.2717 36.7016 45.8291C36.9562 44.896 36.9596 43.9056 36.7122 42.9661C36.3374 41.543 35.434 40.3522 34.1684 39.6122C32.9029 38.8727 31.4262 38.6723 30.011 39.0491C28.5955 39.426 27.4107 40.3343 26.6751 41.6066C25.9391 42.879 25.7402 44.3637 26.115 45.7864C26.7648 48.2533 28.9882 49.8875 31.4147 49.8875C31.8775 49.8875 32.3483 49.8281 32.8162 49.7034C33.6317 49.4863 34.366 49.0967 34.9992 48.5455C35.3447 48.2452 35.3821 47.7201 35.0834 47.3728C34.7842 47.0258 34.2619 46.9882 33.9168 47.2886C33.4757 47.6727 32.9628 47.9444 32.3934 48.0961C30.3519 48.6391 28.2538 47.4121 27.7137 45.3613C27.4519 44.3675 27.5909 43.331 28.1047 42.4423C28.6184 41.5537 29.4458 40.9196 30.4343 40.6564C31.4223 40.3933 32.4533 40.533 33.3372 41.0495C34.2211 41.566 34.8522 42.3979 35.1135 43.3917C35.2865 44.0479 35.2844 44.7392 35.1067 45.3895C34.986 45.8325 35.2453 46.2897 35.6855 46.411Z" fill="#303030"/>
<path d="M15.5819 45.8838C16.4297 46.3799 17.3723 46.6328 18.3276 46.6328C18.7984 46.6328 19.2723 46.5713 19.7393 46.4469C21.1548 46.0705 22.3396 45.1622 23.0752 43.8894C23.8113 42.6171 24.0101 41.1324 23.6353 39.7097C23.2605 38.287 22.3571 37.0958 21.0915 36.3558C19.826 35.6158 18.3493 35.4163 16.9341 35.7927C15.5186 36.1695 14.3338 37.0778 13.5982 38.3502C12.8622 39.623 12.6633 41.1072 13.0381 42.5304C13.4129 43.9531 14.316 45.1443 15.5819 45.8838ZM15.0278 39.1859C15.5415 38.2972 16.3689 37.6632 17.3574 37.4C17.6833 37.3133 18.0144 37.2701 18.3429 37.2701C19.0101 37.2701 19.6683 37.447 20.2603 37.7931C21.1442 38.3096 21.7749 39.1414 22.0366 40.1352C22.2984 41.1286 22.1594 42.1655 21.6457 43.0537C21.1319 43.9424 20.3045 44.5769 19.316 44.8396C18.328 45.1028 17.2971 44.9631 16.4131 44.4466C15.5292 43.93 14.8982 43.0982 14.6368 42.1048C14.375 41.1111 14.514 40.0746 15.0278 39.1859Z" fill="#303030"/>
<path d="M15.3393 32.4745C16.0753 31.2022 16.2742 29.7175 15.8994 28.2944C15.1255 25.357 12.1194 23.5994 9.19818 24.3778C6.27658 25.1554 4.52872 28.1777 5.30215 31.115C5.67696 32.5382 6.58043 33.7289 7.84596 34.4689C8.69375 34.9645 9.63632 35.2179 10.5916 35.2179C11.0625 35.2179 11.5363 35.1564 12.0033 35.032C13.4189 34.6552 14.6037 33.7469 15.3393 32.4745ZM13.9097 31.6388C13.3959 32.5275 12.5685 33.1616 11.5801 33.4247C10.5921 33.6875 9.5611 33.5482 8.67718 33.0317C7.79326 32.5151 7.16262 31.6833 6.90085 30.6895C6.36072 28.6383 7.58121 26.5281 9.62144 25.9851C9.94824 25.8979 10.2767 25.8565 10.6001 25.8565C12.2944 25.8565 13.8472 26.9977 14.3011 28.7199C14.5625 29.7137 14.4235 30.7502 13.9097 31.6388Z" fill="#303030"/>
<path d="M17.2409 11.7539C15.9754 11.014 14.4987 10.814 13.0836 11.1908C11.668 11.5672 10.4832 12.4756 9.7472 13.7483C9.0116 15.0207 8.81272 16.5053 9.18753 17.9281C9.56192 19.3508 10.4654 20.542 11.7313 21.282C12.5791 21.7776 13.5217 22.0309 14.477 22.0309C14.9479 22.0309 15.4213 21.9694 15.8887 21.8451C17.3043 21.4682 18.4886 20.5599 19.2247 19.2876C19.9607 18.0148 20.1596 16.5306 19.7848 15.1074C19.4099 13.6847 18.5065 12.4935 17.2409 11.7539ZM17.7951 18.4519C17.2813 19.3406 16.4539 19.9746 15.4655 20.2378C14.4774 20.501 13.4465 20.3612 12.5626 19.8447C11.6786 19.3277 11.0476 18.4963 10.7862 17.5025C10.5245 16.5088 10.6634 15.4723 11.1772 14.584C11.691 13.6953 12.5184 13.0609 13.5064 12.7977C13.8328 12.711 14.1638 12.6682 14.4923 12.6682C15.1595 12.6682 15.8178 12.8451 16.4097 13.1912C17.2936 13.7077 17.9247 14.5396 18.1861 15.5329C18.4478 16.5267 18.3089 17.5632 17.7951 18.4519Z" fill="#303030"/>
<path d="M54.5512 16.7673C55.1491 9.3682 46.7417 0.619475 46.3835 0.250334C46.1493 0.00936727 45.7932 -0.065828 45.4817 0.0606369C45.1706 0.187102 44.9666 0.490447 44.9649 0.827544C44.9547 3.26584 43.1482 5.51145 39.593 9.05545C37.3454 11.2964 36.2864 14.5592 36.8295 17.5705C37.2336 19.8118 38.489 21.6233 40.3019 22.6184L40.3223 22.9128C40.2118 22.9418 40.0996 22.9717 40.0821 22.9764C37.6463 23.5887 35.207 23.6839 33.0278 23.252C29.8933 22.6299 27.6788 20.9555 27.1039 18.7727C26.3241 15.8119 28.5883 12.3256 32.738 10.0975C33.4069 9.73819 33.9797 9.21225 34.3936 8.57651C34.8092 7.93906 35.0608 7.20163 35.1216 6.44455C35.3264 3.91013 33.5254 1.66238 31.0216 1.32828C28.185 0.950164 23.9167 0.735259 19.6909 1.85977C17.1067 2.54764 14.6572 3.62729 12.41 5.06882C12.025 5.31577 11.912 5.82974 12.1576 6.21683C12.4037 6.60391 12.9145 6.71713 13.2995 6.47061C15.4022 5.12137 17.6953 4.11093 20.1141 3.46707C24.0782 2.4122 28.1153 2.61771 30.804 2.97617C32.4341 3.19406 33.607 4.65866 33.4736 6.31082C33.4349 6.79148 33.2747 7.26016 33.0108 7.66562C32.7478 8.06894 32.384 8.40305 31.959 8.63163C29.6549 9.8685 27.8178 11.4882 26.6475 13.3155C25.3998 15.2633 25.005 17.2979 25.5056 19.1987C26.2574 22.0523 28.8823 24.124 32.7078 24.8832C33.7086 25.0819 34.7557 25.1806 35.8296 25.1806C37.3339 25.1806 38.8897 24.9858 40.4391 24.6L40.8343 30.3105C40.7978 30.3195 40.7617 30.328 40.7247 30.3379C38.2535 30.9958 36.7747 33.5533 37.4287 36.0382C37.9336 37.9561 39.5509 39.3079 41.4688 39.4874L42.1105 48.7633C39.5696 50.6368 36.733 52.0023 33.6716 52.8221C27.0282 54.5995 20.1086 53.645 14.1868 50.1348C8.26667 46.6254 4.08676 40.9981 2.4171 34.2895C1.21063 29.4432 1.43799 24.3688 3.07451 19.6153C4.67916 14.9532 7.52257 10.9033 11.2966 7.9036C11.6549 7.61905 11.7156 7.0961 11.4326 6.73593C11.1492 6.37577 10.6294 6.31467 10.2712 6.59964C6.24896 9.7963 3.21985 14.1089 1.51151 19.0714C-0.22998 24.1308 -0.471782 29.5329 0.812872 34.6928C2.5909 41.8368 7.04194 47.8293 13.3466 51.5665C17.5797 54.0761 22.2908 55.3587 27.0711 55.3587C29.4123 55.3587 31.7712 55.0511 34.097 54.4286C37.0237 53.6446 39.7575 52.3923 42.2443 50.7017L42.45 53.6719C42.5405 54.9917 43.9438 55.9923 45.7137 56C45.7205 56 45.7269 56 45.7333 56C46.5139 56 47.2644 55.7992 47.8466 55.4343C48.5363 55.0041 48.9455 54.388 48.9987 53.6997L49.8354 42.91C52.6669 38.5226 54.1891 33.4717 54.2376 28.2892C54.2393 28.1726 54.2359 28.0491 54.2286 27.9244C54.1114 25.7886 53.1004 23.8557 51.4362 22.5441C53.315 21.0329 54.3634 19.0915 54.5512 16.7673ZM38.4571 17.274C38.0096 14.7938 38.891 12.097 40.7578 10.2364C43.8171 7.18625 45.6895 4.97653 46.3499 2.69632C48.5966 5.32987 53.3163 11.5215 52.9032 16.6327C52.7498 18.5309 51.9109 20.0592 50.342 21.2961L41.2788 21.258C39.7885 20.5232 38.789 19.1154 38.4571 17.274ZM41.9809 22.9243L49.7245 22.9568L49.0709 31.3863L42.5643 31.3586L41.9809 22.9243ZM39.027 35.6131C38.6241 34.081 39.4808 32.5074 40.9512 32.0054L41.3515 37.7912C40.2398 37.5806 39.3274 36.7538 39.027 35.6131ZM47.3498 53.5711C47.3388 53.7138 47.1985 53.8821 46.9737 54.0227C46.6537 54.2231 46.202 54.3372 45.7333 54.3372C45.729 54.3372 45.7248 54.3372 45.7209 54.3372C44.7635 54.3333 44.1214 53.8727 44.0997 53.557L42.6791 33.0218L48.9421 33.0483L47.3498 53.5711ZM52.5777 28.0188C52.5828 28.1072 52.5849 28.1918 52.584 28.2717C52.5496 31.9768 51.7133 35.6101 50.1427 38.952L51.2514 24.6606C52.0384 25.5946 52.5084 26.7605 52.5777 28.0188Z" fill="#303030"/>
</svg>
