<svg width="56" height="56" viewBox="0 0 56 56" fill="none" xmlns="http://www.w3.org/2000/svg">
<path d="M32.5161 49.6772V55.0966H21.6774V49.6772H27.0967H32.5161Z" fill="#AAB2BD"/>
<path d="M36.1741 17.1702C35.6864 17.7302 35.587 18.534 35.9303 19.2115C36.0658 19.4734 36.129 19.7624 36.129 20.0515C36.129 20.2953 36.0838 20.5392 35.9845 20.765V20.774H29.8064V17.1611H36.1651L36.1741 17.1702Z" fill="#CCD1D9"/>
<path d="M47.5549 32.7961C47.0491 32.9948 46.6607 33.4193 46.4891 33.9341C46.2362 34.7019 45.5136 35.2257 44.7097 35.2257H44.2581V41.5483C44.2581 42.0451 43.8517 42.4515 43.3549 42.4515H27.0968H10.8388C10.342 42.4515 9.93553 42.0451 9.93553 41.5483V22.5806H6.32263V46.0644C6.32263 48.0606 7.93941 49.6773 9.93553 49.6773H21.6775H27.0968H32.5162H44.2581C46.2542 49.6773 47.871 48.0606 47.871 46.0644V32.6606C47.7626 32.7057 47.6633 32.7509 47.5549 32.7961Z" fill="#CCD1D9"/>
<path d="M35.9303 29.5623C35.7948 29.8333 35.7225 30.1223 35.7225 30.4113C35.7225 30.8901 35.9122 31.3688 36.2735 31.7301L36.9148 32.3713C37.4838 32.9404 38.3599 33.0849 39.0825 32.7146C39.3445 32.5791 39.6335 32.5159 39.9225 32.5159C40.1664 32.5159 40.4103 32.561 40.6361 32.6604L40.9612 32.7959C41.467 32.9946 41.8554 33.4191 42.027 33.9339C42.2799 34.7017 43.0025 35.2255 43.8064 35.2255H44.258V41.5481C44.258 42.0449 43.8516 42.4513 43.3548 42.4513H27.0967H10.8387C10.3419 42.4513 9.93542 42.0449 9.93542 41.5481V22.5804H27.9999C28.9935 22.5804 29.8064 21.7675 29.8064 20.7739H35.9845C35.9393 20.8823 35.8941 20.9817 35.849 21.0901C35.6503 21.5959 35.2257 21.9842 34.7109 22.1559C33.9432 22.4088 33.4193 23.1313 33.4193 23.9352V24.8384C33.4193 25.6423 33.9432 26.3649 34.7109 26.6178C35.2257 26.7894 35.6503 27.1778 35.849 27.6836C35.8941 27.792 35.9393 27.9004 35.9845 28.0088C36.2012 28.5055 36.1741 29.0746 35.9303 29.5623Z" fill="#1D9EE1"/>
<path d="M27.0967 47.8707C28.0944 47.8707 28.9032 47.0619 28.9032 46.0643C28.9032 45.0666 28.0944 44.2578 27.0967 44.2578C26.0991 44.2578 25.2903 45.0666 25.2903 46.0643C25.2903 47.0619 26.0991 47.8707 27.0967 47.8707Z" fill="#FF826E"/>
<path d="M0.903198 8.12913V2.70977C0.903198 1.71622 1.7161 0.90332 2.70965 0.90332H28C28.9935 0.90332 29.8064 1.71622 29.8064 2.70977V8.12913H0.903198Z" fill="#5CD6B3"/>
<path d="M0.903198 20.7741V8.12891H29.8064V17.1612V20.7741C29.8064 21.7676 28.9935 22.5805 28 22.5805H9.93546H6.32255H2.70965C1.7161 22.5805 0.903198 21.7676 0.903198 20.7741Z" fill="#E6E9ED"/>
<path d="M20.7742 11.7417H26.1935V18.9675H20.7742V11.7417Z" fill="#FF826E"/>
<path d="M55.0967 23.9354V24.8387C55.0967 25.6425 54.5729 26.3651 53.8051 26.618C53.2903 26.7896 52.8658 27.178 52.6671 27.6838C52.6219 27.7922 52.5767 27.9006 52.5316 28.009C52.4322 28.2348 52.3871 28.4787 52.3871 28.7225C52.3871 29.0116 52.4503 29.3006 52.5858 29.5625C52.9561 30.2851 52.8116 31.1612 52.2425 31.7303L51.6012 32.3716C51.24 32.7329 50.7612 32.9225 50.2825 32.9225C49.9935 32.9225 49.7045 32.8503 49.4335 32.7148C48.9458 32.4709 48.3767 32.4438 47.88 32.6606H47.8709C47.7625 32.7058 47.6632 32.7509 47.5548 32.7961C47.049 32.9948 46.6606 33.4193 46.489 33.9341C46.2361 34.7019 45.5135 35.2258 44.7096 35.2258H44.258H43.8064C43.0025 35.2258 42.28 34.7019 42.0271 33.9341C41.8554 33.4193 41.4671 32.9948 40.9612 32.7961C40.8529 32.7509 40.7445 32.7058 40.6361 32.6606C40.4103 32.5612 40.1664 32.5161 39.9225 32.5161C39.6335 32.5161 39.3445 32.5793 39.0825 32.7148C38.36 33.0851 37.4838 32.9406 36.9148 32.3716L36.2735 31.7303C35.9122 31.369 35.7225 30.8903 35.7225 30.4116C35.7225 30.1225 35.7948 29.8335 35.9303 29.5625C36.1741 29.0748 36.2012 28.5058 35.9845 28.009C35.9393 27.9006 35.8941 27.7922 35.849 27.6838C35.6503 27.178 35.2258 26.7896 34.7109 26.618C33.9432 26.3651 33.4193 25.6425 33.4193 24.8387V23.9354C33.4193 23.1316 33.9432 22.409 34.7109 22.1561C35.2258 21.9845 35.6503 21.5961 35.849 21.0903C35.8941 20.9819 35.9393 20.8825 35.9845 20.7741V20.7651C36.0838 20.5393 36.129 20.2954 36.129 20.0516C36.129 19.7625 36.0658 19.4735 35.9303 19.2116C35.5871 18.5341 35.6864 17.7303 36.1741 17.1703C36.1922 17.1251 36.2374 17.08 36.2735 17.0438L36.9148 16.4025C37.2761 16.0412 37.7548 15.8516 38.2335 15.8516C38.5225 15.8516 38.8116 15.9238 39.0825 16.0593C39.5703 16.3032 40.1393 16.3303 40.6361 16.1135C40.7445 16.0683 40.8529 16.0232 40.9612 15.978C41.4671 15.7793 41.8554 15.3548 42.0271 14.84C42.28 14.0722 43.0025 13.5483 43.8064 13.5483H44.7096C45.5135 13.5483 46.2361 14.0722 46.489 14.84C46.6606 15.3548 47.049 15.7793 47.5548 15.978L47.88 16.1135C48.1058 16.2129 48.3496 16.258 48.5935 16.258C48.8825 16.258 49.1716 16.1948 49.4335 16.0593C50.1561 15.689 51.0322 15.8335 51.6012 16.4025L52.2425 17.0438C52.6038 17.4051 52.7935 17.8838 52.7935 18.3625C52.7935 18.6516 52.7212 18.9406 52.5858 19.2116C52.3419 19.6993 52.3148 20.2683 52.5316 20.7651C52.5767 20.8735 52.6219 20.9819 52.6671 21.0903C52.8658 21.5961 53.2903 21.9845 53.8051 22.1561C54.5729 22.409 55.0967 23.1316 55.0967 23.9354ZM49.6774 24.387C49.6774 21.3974 47.2477 18.9677 44.258 18.9677C41.2683 18.9677 38.8387 21.3974 38.8387 24.387C38.8387 27.3767 41.2683 29.8064 44.258 29.8064C47.2477 29.8064 49.6774 27.3767 49.6774 24.387Z" fill="#FF7A00"/>
<path d="M44.2581 18.9678C47.2478 18.9678 49.6775 21.3975 49.6775 24.3871C49.6775 27.3768 47.2478 29.8065 44.2581 29.8065C41.2684 29.8065 38.8387 27.3768 38.8387 24.3871C38.8387 21.3975 41.2684 18.9678 44.2581 18.9678ZM46.0646 24.3871C46.0646 23.3936 45.2516 22.5807 44.2581 22.5807C43.2646 22.5807 42.4516 23.3936 42.4516 24.3871C42.4516 25.3807 43.2646 26.1936 44.2581 26.1936C45.2516 26.1936 46.0646 25.3807 46.0646 24.3871Z" fill="#FCD770"/>
<path d="M44.258 18.0645C40.7725 18.0645 37.9354 20.9015 37.9354 24.387C37.9354 27.8726 40.7725 30.7096 44.258 30.7096C47.7436 30.7096 50.5806 27.8726 50.5806 24.387C50.5806 20.9015 47.7436 18.0645 44.258 18.0645ZM44.258 28.9032C41.7678 28.9032 39.7419 26.8772 39.7419 24.387C39.7419 21.8968 41.7678 19.8709 44.258 19.8709C46.7482 19.8709 48.7741 21.8968 48.7741 24.387C48.7741 26.8772 46.7482 28.9032 44.258 28.9032Z" fill="black"/>
<path d="M44.258 21.6772C42.7641 21.6772 41.5483 22.893 41.5483 24.3869C41.5483 25.8809 42.7641 27.0966 44.258 27.0966C45.752 27.0966 46.9677 25.8809 46.9677 24.3869C46.9677 22.893 45.752 21.6772 44.258 21.6772ZM44.258 25.2901C43.7594 25.2901 43.3548 24.8855 43.3548 24.3869C43.3548 23.8883 43.7594 23.4837 44.258 23.4837C44.7566 23.4837 45.1612 23.8883 45.1612 24.3869C45.1612 24.8855 44.7566 25.2901 44.258 25.2901Z" fill="black"/>
<path d="M54.0897 21.299C53.816 21.2086 53.6037 21.0135 53.5053 20.7597C53.4583 20.6405 53.4114 20.5231 53.3599 20.4066C53.2533 20.1609 53.2659 19.8728 53.3942 19.6181C53.937 18.545 53.7302 17.2534 52.8803 16.4017L52.2435 15.7649C51.3945 14.9141 50.101 14.7054 49.028 15.251C48.7742 15.3801 48.4852 15.3928 48.2377 15.2844C48.1221 15.2338 48.0046 15.1868 47.8845 15.1399C47.6325 15.0414 47.4365 14.8283 47.3462 14.5555C46.9714 13.4129 45.911 12.6452 44.7079 12.6452H43.8083C42.6052 12.6452 41.5448 13.4138 41.1699 14.5555C41.0796 14.8292 40.8845 15.0414 40.6307 15.1399C40.5115 15.1868 40.3941 15.2338 40.2775 15.2853C40.0319 15.3901 39.7437 15.3792 39.489 15.251C38.416 14.709 37.1235 14.9159 36.2726 15.7649L35.7813 16.2581H30.7097V2.70968C30.7097 1.21574 29.4939 0 28 0H2.70968C1.21574 0 0 1.21574 0 2.70968V20.7742C0 22.2681 1.21574 23.4839 2.70968 23.4839H5.41935V46.0645C5.41935 48.5547 7.44529 50.5806 9.93548 50.5806H20.7742V54.1935H15.3548V56H38.8387V54.1935H33.4194V50.5806H44.2581C46.7483 50.5806 48.7742 48.5547 48.7742 46.0645V33.4555C48.8591 33.4726 48.9458 33.4817 49.0262 33.5223C50.0992 34.0643 51.3917 33.8574 52.2426 33.0084L52.8803 32.3716C53.7293 31.5208 53.9361 30.2283 53.3933 29.1561C53.2641 28.9005 53.2524 28.6124 53.3599 28.3658C53.4104 28.2502 53.4574 28.1328 53.5044 28.0126C53.6028 27.7606 53.816 27.5646 54.0888 27.4743C55.2323 27.1004 56 26.04 56 24.8369V23.9373C56 22.7342 55.2313 21.6738 54.0897 21.299ZM34.4265 27.4752C34.7001 27.5655 34.9124 27.7606 35.0108 28.0145C35.0578 28.1337 35.1048 28.2511 35.1563 28.3676C35.2628 28.6133 35.2502 28.9014 35.1219 29.1561C34.5791 30.2292 34.7859 31.5208 35.6359 32.3725L36.2726 33.0102C37.1217 33.8592 38.4142 34.0661 39.4881 33.5232C39.7428 33.3959 40.0319 33.3823 40.2785 33.4898C40.3941 33.5404 40.5115 33.5874 40.6316 33.6343C40.8836 33.7328 41.0796 33.9459 41.1699 34.2187C41.4969 35.2159 42.345 35.9258 43.3548 36.092V41.5484H10.8387V23.4839H28C29.176 23.4839 30.1695 22.7261 30.5435 21.6774H33.6831C32.9641 22.1877 32.5161 23.0196 32.5161 23.9373V24.8369C32.5161 26.04 33.2848 27.1004 34.4265 27.4752ZM34.8465 18.0645C34.7896 18.5866 34.8736 19.1249 35.1228 19.6181C35.1635 19.6994 35.1725 19.7861 35.1897 19.871H30.7097V18.0645H34.8465ZM2.70968 1.80645H28C28.4986 1.80645 28.9032 2.2111 28.9032 2.70968V7.22581H1.80645V2.70968C1.80645 2.2111 2.2111 1.80645 2.70968 1.80645ZM1.80645 20.7742V9.03226H28.9032V20.7742C28.9032 21.2728 28.4986 21.6774 28 21.6774H2.70968C2.2111 21.6774 1.80645 21.2728 1.80645 20.7742ZM31.6129 54.1935H22.5806V50.5806H31.6129V54.1935ZM44.2581 48.7742H27.0968H9.93548C8.44155 48.7742 7.22581 47.5584 7.22581 46.0645V23.4839H9.03226V41.5484C9.03226 42.5446 9.84245 43.3548 10.8387 43.3548H27.0968H43.3548C44.3511 43.3548 45.1613 42.5446 45.1613 41.5484V36.0911C45.8956 35.9701 46.5423 35.56 46.9677 34.9621V46.0645C46.9677 47.5584 45.752 48.7742 44.2581 48.7742ZM54.1935 24.8369C54.1935 25.2578 53.9253 25.6281 53.5252 25.7591C52.7375 26.0183 52.1161 26.6018 51.8217 27.3587C51.7837 27.4563 51.7431 27.5529 51.7024 27.6477C51.3809 28.3875 51.4098 29.2347 51.781 29.9708C51.9707 30.3457 51.8984 30.7973 51.6022 31.0944L50.9654 31.7303C50.6692 32.0284 50.2175 32.0997 49.8409 31.9101C49.1066 31.5388 48.2584 31.5099 47.5196 31.8306C47.4239 31.8721 47.3272 31.9128 47.2306 31.9507C46.4728 32.2452 45.8902 32.8675 45.631 33.656C45.4991 34.0543 45.1288 34.3226 44.7079 34.3226H43.8083C43.3874 34.3226 43.017 34.0543 42.8861 33.6542C42.6268 32.8666 42.0434 32.2452 41.2864 31.9507C41.1889 31.9128 41.0923 31.8721 40.9974 31.8315C40.656 31.6834 40.292 31.6093 39.9262 31.6093C39.499 31.6093 39.0708 31.7095 38.6734 31.9101C38.2995 32.0997 37.8479 32.0275 37.5498 31.7312L36.9139 31.0944C36.6168 30.7973 36.5445 30.3457 36.7342 29.9699C37.1054 29.2347 37.1343 28.3875 36.8137 27.6486C36.7721 27.5529 36.7315 27.4563 36.6935 27.3596C36.3991 26.6018 35.7768 26.0192 34.9883 25.76C34.5908 25.6281 34.3226 25.2578 34.3226 24.8369V23.9373C34.3226 23.5164 34.5908 23.1461 34.991 23.0151C35.7786 22.7559 36.4 22.1724 36.6945 21.4155C36.7324 21.3179 36.773 21.2213 36.8137 21.1264C37.1352 20.3867 37.1063 19.5395 36.7351 18.8034C36.5454 18.4285 36.6177 17.9769 36.9139 17.6797L37.5507 17.043C37.8479 16.7467 38.3004 16.6754 38.6752 16.8641C39.4104 17.2354 40.2586 17.2652 40.9965 16.9436C41.0923 16.9021 41.1889 16.8614 41.2855 16.8235C42.0434 16.529 42.6259 15.9067 42.8852 15.1182C43.017 14.7199 43.3874 14.4516 43.8083 14.4516H44.7079C45.1288 14.4516 45.4991 14.7199 45.6301 15.12C45.8893 15.9076 46.4728 16.529 47.2297 16.8235C47.3272 16.8614 47.4239 16.9021 47.5187 16.9427C48.2594 17.2643 49.1057 17.2354 49.8418 16.8641C50.2175 16.6735 50.6692 16.7476 50.9654 17.043L51.6013 17.6797C51.8985 17.9769 51.9707 18.4285 51.781 18.8043C51.4098 19.5395 51.3809 20.3867 51.7015 21.1255C51.7431 21.2213 51.7837 21.3179 51.8217 21.4146C52.1161 22.1724 52.7384 22.755 53.527 23.0142C53.9253 23.1461 54.1935 23.5164 54.1935 23.9373V24.8369Z" fill="black"/>
<path d="M3.61292 3.61279H5.41937V5.41924H3.61292V3.61279Z" fill="black"/>
<path d="M10.8387 3.61279H12.6452V5.41924H10.8387V3.61279Z" fill="black"/>
<path d="M7.22583 3.61279H9.03228V5.41924H7.22583V3.61279Z" fill="black"/>
<path d="M29.8064 46.0647C29.8064 44.5707 28.5907 43.355 27.0968 43.355C25.6028 43.355 24.3871 44.5707 24.3871 46.0647C24.3871 47.5586 25.6028 48.7743 27.0968 48.7743C28.5907 48.7743 29.8064 47.5586 29.8064 46.0647ZM27.0968 46.9679C26.5982 46.9679 26.1935 46.5632 26.1935 46.0647C26.1935 45.5661 26.5982 45.1614 27.0968 45.1614C27.5953 45.1614 28 45.5661 28 46.0647C28 46.5632 27.5953 46.9679 27.0968 46.9679Z" fill="black"/>
<path d="M12.6451 25.2905H30.7097V27.097H12.6451V25.2905Z" fill="black"/>
<path d="M12.6451 28.9033H30.7097V30.7098H12.6451V28.9033Z" fill="black"/>
<path d="M12.0066 33.1546L14.9809 36.1289L12.0066 39.1032L13.2838 40.3804L17.5352 36.1289L13.2838 31.8774L12.0066 33.1546Z" fill="black"/>
<path d="M18.0646 37.9355H25.2904V39.742H18.0646V37.9355Z" fill="black"/>
<path d="M3.61292 10.8389H7.22582V12.6453H3.61292V10.8389Z" fill="black"/>
<path d="M9.03223 10.8389H18.0645V12.6453H9.03223V10.8389Z" fill="black"/>
<path d="M19.871 19.8711H27.0968V10.8389H19.871V19.8711ZM21.6774 12.6453H25.2903V18.0647H21.6774V12.6453Z" fill="black"/>
<path d="M3.61292 14.4517H18.0645V16.2581H3.61292V14.4517Z" fill="black"/>
<path d="M14.4517 18.0645H18.0646V19.8709H14.4517V18.0645Z" fill="black"/>
<path d="M10.8387 18.0645H12.6452V19.8709H10.8387V18.0645Z" fill="black"/>
<path d="M3.61292 18.0645H9.03227V19.8709H3.61292V18.0645Z" fill="black"/>
</svg>
