<svg width="47" height="56" viewBox="0 0 47 56" fill="none" xmlns="http://www.w3.org/2000/svg">
<path d="M22.5437 11.2811L18.9859 14.748L19.8261 19.644C20.1533 21.5544 18.1489 23.0115 16.4331 22.1092L12.0394 19.7991C8.42337 14.9045 8.72141 5.75109 13.2314 1.14258C13.6002 1.35958 13.9188 1.68672 14.1336 2.12291L16.3315 6.57753L21.2468 7.29164C23.1659 7.57055 23.9313 9.9278 22.5437 11.2811Z" fill="#FF7A00"/>
<path d="M12.0395 19.7994C12.0363 19.7983 7.63943 22.1095 7.63943 22.1095C5.92367 23.0117 3.91926 21.5546 4.2464 19.6443L5.08662 14.7482L1.52887 11.2813C0.141231 9.92804 0.906637 7.57079 2.82453 7.29177L7.74093 6.57766L9.93882 2.12304C10.5813 0.822021 12.1325 0.495974 13.2315 1.14271C9.71865 6.40026 9.46206 14.0224 12.0395 19.7994Z" fill="#FF7A00"/>
<path d="M37.6336 29.8291L38.7635 40.8198L36.0301 53.9506H24.7172C18.6261 47.5762 18.2689 32.0789 24.5335 23.8298C25.9444 23.1452 27.3499 22.2198 28.0947 20.6339C28.4392 19.9011 28.9621 19.2853 29.6008 18.8533C30.2406 18.4212 30.9953 18.1719 31.8058 18.1719C34.7808 18.1719 36.6828 21.2628 35.4316 23.9611C34.1913 26.6353 32.333 28.9059 30.8411 29.8291H37.6336Z" fill="#FFDDCF"/>
<path d="M43.1004 35.8599H42.6728L40.3669 36.2125L37.6336 35.8599C35.9683 35.8599 34.6184 34.51 34.6184 32.8447C34.6184 31.1795 35.9683 29.8296 37.6336 29.8296H43.1003C44.7656 29.8296 46.1155 31.1795 46.1155 32.8447C46.1156 34.51 44.7657 35.8599 43.1004 35.8599Z" fill="#FFCBBE"/>
<path d="M42.6728 41.8901H42.0315L39.7529 42.3266L37.2061 41.8901C35.5408 41.8901 34.1909 40.5402 34.1909 38.875C34.1909 37.2098 35.5408 35.8599 37.2061 35.8599H42.6728C44.3381 35.8599 45.688 37.2098 45.688 38.875C45.688 40.5402 44.338 41.8901 42.6728 41.8901Z" fill="#FFCBBE"/>
<path d="M42.0314 47.9204H41.4968L39.298 48.2763L36.5646 47.9204C34.8993 47.9204 33.5494 46.5705 33.5494 44.9053C33.5494 43.24 34.8993 41.8901 36.5646 41.8901H42.0314C43.6966 41.8901 45.0465 43.24 45.0465 44.9053C45.0465 46.5704 43.6966 47.9204 42.0314 47.9204Z" fill="#FFCBBE"/>
<path d="M41.4969 53.9507H36.0302C34.3649 53.9507 33.015 52.6008 33.015 50.9355C33.015 49.2703 34.3649 47.9204 36.0302 47.9204H41.4969C43.1622 47.9204 44.5121 49.2703 44.5121 50.9355C44.5121 52.6007 43.1622 53.9507 41.4969 53.9507Z" fill="#FFCBBE"/>
<path d="M24.7172 53.9509H23.9046C21.5574 53.9509 19.4716 52.8363 18.1427 51.1093H12.535V32.6709H16.6552C16.8477 29.4104 18.8405 26.559 21.7849 25.0638C22.5538 24.6734 23.5458 24.3113 24.5335 23.8301C20.071 32.2946 20.3827 45.7445 24.7172 53.9509Z" fill="#FFCBBE"/>
<path d="M12.9802 31.9093V51.8702C12.9802 53.6979 11.4992 55.1799 9.67158 55.1799H8.65549C4.23357 48.7458 3.88269 34.8274 8.59096 28.5996H9.67158C11.4992 28.5996 12.9802 30.0816 12.9802 31.9093Z" fill="#1D9EE1"/>
<path d="M8.65545 55.1799H4.12952C2.30186 55.1799 0.820923 53.6979 0.820923 51.8702V31.9093C0.820923 30.0816 2.30186 28.5996 4.12952 28.5996H8.59092C5.34467 36.1913 5.53608 47.7216 8.65545 55.1799Z" fill="#1D9EE1"/>
<path d="M46.5081 38.8747C46.5081 37.7457 46.0176 36.7293 45.2387 36.0269C46.2616 35.3372 46.9357 34.1681 46.9357 32.8444C46.9357 30.7295 45.2151 29.009 43.1002 29.009H33.0614C34.222 27.7727 35.3435 26.099 36.1753 24.3059C36.8912 22.7628 36.7771 20.9935 35.8701 19.5729C34.9818 18.1816 33.4626 17.3511 31.8061 17.3511C29.9096 17.3511 28.2028 18.4753 27.352 20.2852C26.2357 22.6279 23.5157 23.2892 21.4131 24.3325C18.419 25.8528 16.3658 28.6862 15.9141 31.8507H13.7991C13.7676 29.6005 11.9284 27.7795 9.67094 27.7795H4.12967C1.85259 27.7795 0 29.6321 0 31.9092V33.5673C0 34.0205 0.367281 34.3877 0.820312 34.3877C1.27334 34.3877 1.64062 34.0205 1.64062 33.5673V31.9092C1.64062 30.5368 2.75712 29.4202 4.12967 29.4202H9.67094C11.0434 29.4202 12.16 30.5368 12.16 31.9092V51.8706C12.16 53.243 11.0435 54.3596 9.67094 54.3596H4.12967C2.75723 54.3596 1.64062 53.243 1.64062 51.8706V37.3954C1.64062 36.9422 1.27334 36.575 0.820312 36.575C0.367281 36.575 0 36.9422 0 37.3954V51.8705C0 54.1476 1.85259 56.0002 4.12967 56.0002H9.67094C11.9284 56.0002 13.7676 54.1792 13.7991 51.929H17.7517C19.2927 53.7402 21.5126 54.7706 23.9049 54.7706H25.18C25.633 54.7706 26.0003 54.4034 26.0003 53.9502C26.0003 53.4971 25.633 53.1299 25.18 53.1299H23.9049C21.8886 53.1299 20.0254 52.211 18.793 50.6085C18.6377 50.4066 18.3974 50.2883 18.1428 50.2883H13.8006V33.4912H16.6553C17.0896 33.4912 17.4487 33.1527 17.4742 32.719C17.647 29.7844 19.3972 27.196 22.156 25.7952C24.5456 24.638 27.409 23.9265 28.8368 20.9829C29.4143 19.7546 30.5522 18.9915 31.8062 18.9915C32.9161 18.9915 33.8933 19.5251 34.4874 20.4556C35.0913 21.4017 35.1661 22.5829 34.6871 23.6154C33.3974 26.3957 31.6094 28.3892 30.4095 29.1317C30.0977 29.3247 29.9518 29.701 30.0521 30.0538C30.1524 30.4064 30.4745 30.6497 30.8411 30.6497H34.4909C34.0549 31.272 33.7981 32.0285 33.7981 32.8444C33.7981 33.9733 34.2886 34.9898 35.0675 35.6923C34.0446 36.3818 33.3704 37.5509 33.3704 38.8747C33.3704 39.961 33.8251 40.9424 34.5532 41.641C33.4596 42.3173 32.729 43.5272 32.729 44.9049C32.729 46.0125 33.2015 47.0114 33.9548 47.7123C32.8968 48.3959 32.1945 49.5848 32.1945 50.9353C32.1945 51.7512 32.4513 52.5077 32.8873 53.13H29.0082C28.5552 53.13 28.1879 53.4972 28.1879 53.9504C28.1879 54.4035 28.5552 54.7707 29.0082 54.7707H41.4968C43.6116 54.7707 45.3322 53.0502 45.3322 50.9353C45.3322 49.8278 44.8597 48.8289 44.1065 48.128C45.1644 47.4444 45.8667 46.2555 45.8667 44.9049C45.8667 43.8186 45.4121 42.8372 44.684 42.1387C45.7776 41.4622 46.5081 40.2523 46.5081 38.8747ZM45.295 32.8444C45.295 34.0546 44.3104 35.0392 43.1002 35.0392H37.6334C36.4232 35.0392 35.4386 34.0546 35.4386 32.8444C35.4386 31.6342 36.4232 30.6497 37.6334 30.6497H43.1002C44.3104 30.6497 45.295 31.6342 45.295 32.8444ZM41.4967 53.13H36.0299C34.8196 53.13 33.835 52.1455 33.835 50.9353C33.835 49.7251 34.8196 48.7405 36.0299 48.7405H41.4967C42.7069 48.7405 43.6915 49.7251 43.6915 50.9353C43.6915 52.1455 42.7069 53.13 41.4967 53.13ZM42.0313 47.0998H36.5644C35.3542 47.0998 34.3696 46.1152 34.3696 44.9049C34.3696 43.6948 35.3542 42.7102 36.5644 42.7102H42.0312C43.2414 42.7102 44.226 43.6948 44.226 44.9049C44.2261 46.1152 43.2415 47.0998 42.0313 47.0998ZM42.6727 41.0695H37.2059C35.9956 41.0695 35.011 40.0849 35.011 38.8747C35.011 37.6645 35.9956 36.6799 37.2059 36.6799H42.6727C43.8829 36.6799 44.8675 37.6645 44.8675 38.8747C44.8675 40.0849 43.8829 41.0695 42.6727 41.0695Z" fill="black"/>
<path d="M4.20473 15.0349L3.4379 19.5057C3.23315 20.6994 3.71473 21.8833 4.69451 22.5952C5.67429 23.3069 6.94895 23.3991 8.02115 22.8356L12.0361 20.7248L16.0511 22.8356C17.119 23.3974 18.3953 23.3091 19.3778 22.5952C20.3576 21.8833 20.8391 20.6994 20.6344 19.5057L19.8676 15.0349L23.1158 11.8687C23.9831 11.0232 24.2894 9.7825 23.9151 8.63056C23.5408 7.47873 22.5638 6.65492 21.3652 6.48091L16.8763 5.82848L14.8688 1.76083C14.3327 0.674734 13.2473 0 12.0361 0C10.825 0 9.73954 0.674734 9.20349 1.76083L7.19602 5.82837L2.70706 6.4808C1.50841 6.65492 0.531259 7.47862 0.157087 8.63056C-0.217194 9.78239 0.0890554 11.0232 0.956399 11.8685L4.20473 15.0349ZM1.71754 9.13752C1.90009 8.57555 2.35826 8.18934 2.94309 8.10436L7.85884 7.39003C8.12604 7.35131 8.35704 7.18342 8.47648 6.94127L10.6748 2.48686C10.9363 1.95694 11.4452 1.64062 12.0362 1.64062C12.6271 1.64062 13.1361 1.95705 13.3976 2.48686L15.5959 6.94127C15.7154 7.18342 15.9464 7.3512 16.2136 7.39003L21.1293 8.10436C21.714 8.18934 22.1722 8.57566 22.3549 9.13752C22.5374 9.69959 22.3938 10.2814 21.9706 10.6938L18.4136 14.1611C18.2203 14.3496 18.1321 14.621 18.1777 14.8871L19.0174 19.783C19.1174 20.3654 18.8915 20.9205 18.4134 21.2679C17.9353 21.6152 17.3376 21.6583 16.8147 21.3835L12.4179 19.0719C12.1788 18.9464 11.8935 18.9464 11.6545 19.0719L7.25771 21.3835C6.73468 21.6583 6.13706 21.6151 5.65898 21.2679C5.1809 20.9205 4.95504 20.3654 5.05501 19.783L5.89468 14.8871C5.94029 14.621 5.85213 14.3496 5.65876 14.1611L2.10166 10.6937C1.67849 10.2814 1.53488 9.69959 1.71754 9.13752Z" fill="black"/>
<path d="M6.95447 12.6196C7.4075 12.6196 7.77478 12.2524 7.77478 11.7993V10.8228C7.77478 10.3696 7.4075 10.0024 6.95447 10.0024C6.50144 10.0024 6.13416 10.3696 6.13416 10.8228V11.7993C6.13416 12.2523 6.50144 12.6196 6.95447 12.6196Z" fill="black"/>
<path d="M17.1177 12.6196C17.5707 12.6196 17.938 12.2524 17.938 11.7993V10.8228C17.938 10.3696 17.5707 10.0024 17.1177 10.0024C16.6646 10.0024 16.2974 10.3696 16.2974 10.8228V11.7993C16.2974 12.2523 16.6646 12.6196 17.1177 12.6196Z" fill="black"/>
<path d="M12.0361 13.2013C12.7867 13.2013 13.5004 12.8762 13.9944 12.3095C14.292 11.9679 14.2564 11.4498 13.9148 11.1521C13.5734 10.8544 13.0552 10.8901 12.7574 11.2316C12.5752 11.4408 12.3123 11.5607 12.0361 11.5607C11.7599 11.5607 11.497 11.4408 11.3148 11.2316C11.0172 10.8903 10.4989 10.8545 10.1574 11.1521C9.81579 11.4498 9.78024 11.9679 10.0779 12.3095C10.5719 12.8763 11.2856 13.2013 12.0361 13.2013Z" fill="black"/>
</svg>
