<svg width="45" height="56" viewBox="0 0 45 56" fill="none" xmlns="http://www.w3.org/2000/svg">
<path d="M28.1514 43.8941L32.3724 39.6659L33.4555 39.3744L36.9821 52.5357L31.1979 50.6972L27.1084 55.1817L23.7695 42.7242L28.1514 43.8941Z" fill="#1D9EE1"/>
<path d="M34.0207 41.4825L33.5035 41.6211L28.8051 46.3271L24.4219 45.1564L23.7695 42.7242L28.1515 43.8939L32.372 39.6658L33.4555 39.3744L34.0207 41.4825Z" fill="#FEE45A"/>
<path d="M28.385 43.6604L30.4811 51.4827L27.1084 55.1816L23.7695 42.7241L28.1515 43.8938L28.385 43.6604Z" fill="#1D9EE1"/>
<path d="M12.3809 39.6829L16.6093 43.904L20.9499 42.7373L17.6154 55.1816L13.5259 50.6972L7.74167 52.5356L11.2661 39.3853L12.3809 39.6829Z" fill="#1D9EE1"/>
<path d="M20.9499 42.7373L20.2975 45.1715L15.9591 46.3391L11.253 41.6407L10.7009 41.4934L11.266 39.3853L12.3812 39.6832L16.6093 43.9036L20.9499 42.7373Z" fill="#FEE45A"/>
<path d="M15.743 43.0384L13.6524 50.8368L13.5259 50.6972L7.74167 52.5356L11.2661 39.3853L12.3813 39.6832L15.743 43.0384Z" fill="#1D9EE1"/>
<path d="M34.0207 41.4824L33.5035 41.6209L28.8051 46.327L24.4219 45.1563L23.7695 42.7241L28.1515 43.8938L32.372 39.6656L33.4555 39.3743L34.0207 41.4824Z" fill="#1D9EE1"/>
<path d="M20.9499 42.7373L20.2975 45.1715L15.9591 46.3391L11.2531 41.6407L10.7009 41.4934L11.2661 39.3853L12.3813 39.6832L16.6094 43.9036L20.9499 42.7373Z" fill="#1D9EE1"/>
<path d="M38.1422 38.1146L32.3724 39.6659L28.1514 43.8941L22.379 42.3528L16.6093 43.9041L12.3809 39.683L6.60857 38.1415L5.0573 32.3718L0.829076 28.1508L2.37039 22.3784L0.819122 16.6086L5.04024 12.3803L6.58166 6.60792L12.3514 5.05666L16.5724 0.828435L22.3448 2.36975L28.1146 0.818481L32.3429 5.0396L38.1153 6.58102L39.6665 12.3508L43.8948 16.5718L42.3534 22.3442L43.9047 28.1139L39.6836 32.3422L38.1422 38.1146Z" fill="#FDB441"/>
<path d="M22.362 38.7284C31.4013 38.7284 38.7291 31.4006 38.7291 22.3612C38.7291 13.3219 31.4013 5.99414 22.362 5.99414C13.3226 5.99414 5.99484 13.3219 5.99484 22.3612C5.99484 31.4006 13.3226 38.7284 22.362 38.7284Z" fill="#FEE97D"/>
<path d="M26.1809 38.28C24.9556 38.5736 23.6768 38.7285 22.362 38.7285C13.323 38.7285 5.99484 31.4003 5.99484 22.3614C5.99484 13.3224 13.323 5.99426 22.362 5.99426C23.6768 5.99426 24.9556 6.14925 26.1809 6.4427C18.9838 8.1623 13.6328 14.6372 13.6328 22.3614C13.6327 30.0857 18.9837 36.5604 26.1809 38.28Z" fill="#FEE45A"/>
<path d="M16.3585 18.1267V32.5462H9.54975C7.32386 29.7507 5.99484 26.2111 5.99484 22.3615C5.99484 20.8972 6.18691 19.4776 6.54806 18.1268H16.3585V18.1267Z" fill="#1D9EE1"/>
<path d="M16.3585 18.1267V32.5462H9.54975C7.32386 29.7507 5.99484 26.2111 5.99484 22.3615C5.99484 20.8972 6.18691 19.4776 6.54806 18.1268H16.3585V18.1267Z" fill="#1D9EE1"/>
<path d="M28.9483 28.7448H29.7876C30.7147 28.7448 31.4663 29.4963 31.4663 30.4235C31.4663 31.3506 30.7148 32.1022 29.7876 32.1022H20.7842C20.3308 32.1022 19.892 31.9486 19.5322 31.6727C18.5831 30.945 17.5789 30.7909 16.3583 30.7184V20.0439C19.2289 16.7641 22.8666 16.456 22.612 11.5549C22.568 10.7068 23.2438 9.99475 24.0931 9.99475C24.7427 9.99475 25.3202 10.4164 25.5097 11.0376C26.2802 13.5629 26.4729 16.0692 25.4557 18.673H31.5946C32.5217 18.673 33.2733 19.4245 33.2733 20.3517C33.2733 21.2788 32.5218 22.0304 31.5946 22.0304H29.5063H31.0262C31.9532 22.0304 32.7049 22.7819 32.7049 23.7091C32.7049 24.6361 31.9533 25.3878 31.0262 25.3878H29.5063H30.4681C31.3952 25.3878 32.1468 26.1393 32.1468 27.0665C32.1468 27.9935 31.3953 28.7451 30.4681 28.7451H28.9483V28.7448Z" fill="#FFF3DE"/>
<path d="M28.9483 28.7448H29.7876C30.7147 28.7448 31.4663 29.4963 31.4663 30.4235C31.4663 31.3506 30.7148 32.1022 29.7876 32.1022H20.7842C20.3308 32.1022 19.892 31.9486 19.5322 31.6727C18.5831 30.945 17.5789 30.7909 16.3583 30.7184V20.0439C19.2289 16.7641 22.8666 16.456 22.612 11.5549C22.568 10.7068 23.2438 9.99475 24.0931 9.99475C24.7427 9.99475 25.3202 10.4164 25.5097 11.0376C26.2802 13.5629 26.4729 16.0692 25.4557 18.673H31.5946C32.5217 18.673 33.2733 19.4245 33.2733 20.3517C33.2733 21.2788 32.5218 22.0304 31.5946 22.0304H29.5063H31.0262C31.9532 22.0304 32.7049 22.7819 32.7049 23.7091C32.7049 24.6361 31.9533 25.3878 31.0262 25.3878H29.5063H30.4681C31.3952 25.3878 32.1468 26.1393 32.1468 27.0665C32.1468 27.9935 31.3953 28.7451 30.4681 28.7451H28.9483V28.7448Z" fill="#F1B0A2"/>
<path d="M26.129 15.6935C25.0118 16.9959 23.3144 17.848 21.7412 19.3902C21.3473 19.7764 21.1223 20.3031 21.1223 20.8548V28.91C21.1223 29.8587 21.7638 30.6983 22.6866 30.9186C23.4377 31.098 24.1171 31.4334 24.7823 32.102H20.7841C20.3308 32.102 19.8921 31.9485 19.5324 31.6728C18.5833 30.9453 17.579 30.7911 16.3586 30.7185V20.0442C19.2311 16.762 22.8719 16.4558 22.6113 11.5444C22.5671 10.7005 23.2476 9.99475 24.0928 9.99475C24.4174 9.99475 24.725 10.1002 24.9741 10.2833C25.2232 10.4664 25.4151 10.7263 25.5097 11.0373C25.9827 12.5876 26.2379 14.1303 26.129 15.6935Z" fill="#EB9C8D"/>
<path d="M44.6955 27.9009L43.2016 22.3437L44.686 16.7843C44.7616 16.5011 44.6804 16.1991 44.473 15.9921L40.4001 11.9266L38.9063 6.36939C38.8302 6.08633 38.6088 5.86539 38.3256 5.78981L32.7663 4.30538L28.6933 0.239803C28.4858 0.0327565 28.1837 -0.0480715 27.9009 0.0282722L22.3435 1.52211L16.7842 0.0377878C16.5013 -0.0376809 16.1992 0.0432565 15.992 0.25085L11.9267 4.32364L6.36934 5.81759C6.08628 5.89361 5.86545 6.11499 5.78977 6.39816L4.30533 11.9576L0.239865 16.0305C0.0327092 16.2379 -0.0479002 16.5399 0.0281153 16.823L1.52207 22.3793L0.602006 25.8254C0.485193 26.2632 0.745287 26.7127 1.183 26.8296C1.62072 26.9467 2.07025 26.6863 2.18718 26.2486L3.164 22.59C3.20119 22.4509 3.20108 22.3044 3.16367 22.1654L1.73557 16.8543L5.62166 12.9611C5.72348 12.8592 5.79655 12.7323 5.83363 12.5933L7.25277 7.27895L12.5649 5.85095C12.7039 5.81355 12.8308 5.74027 12.9325 5.63833L16.8186 1.74513L22.1327 3.16405C22.2717 3.20124 22.4181 3.20102 22.5573 3.16372L27.8695 1.73572L31.7627 5.62192C31.8646 5.72364 31.9915 5.7967 32.1305 5.83389L37.4447 7.25281L38.8727 12.5649C38.9101 12.7039 38.9835 12.8308 39.0853 12.9325L42.9787 16.8187L41.5596 22.1328C41.5224 22.272 41.5225 22.4184 41.56 22.5574L42.9881 27.8697L39.1019 31.763C39.0001 31.8649 38.9271 31.9918 38.8899 32.1308L37.4709 37.4449L32.159 38.8728C32.0198 38.9102 31.8928 38.9836 31.7911 39.0855L27.905 42.9787L22.5914 41.5589C22.4519 41.5216 22.3054 41.5217 22.166 41.5592L16.8541 42.9882L12.9609 39.102C12.8589 39.0003 12.732 38.9271 12.593 38.89L11.4813 38.593C11.4805 38.5928 11.4799 38.5924 11.4791 38.5923C11.4784 38.5921 11.4776 38.592 11.4768 38.5918L7.27901 37.4701L5.85091 32.159C5.81339 32.0199 5.74011 31.8931 5.63817 31.7914L2.87208 29.0308C2.55128 28.7107 2.03186 28.7113 1.71205 29.032C1.39202 29.3527 1.39257 29.872 1.71325 30.192L4.32371 32.7973L5.81755 38.3533C5.89367 38.6363 6.11494 38.8572 6.398 38.9328L10.262 39.9653L6.95045 52.3216C6.8728 52.6111 6.95942 52.9201 7.1762 53.1272C7.39298 53.3342 7.70547 53.4067 7.99126 53.3157L13.2743 51.6364L17.0096 55.7325C17.1669 55.9051 17.388 56 17.6157 56C17.6802 56 17.7454 55.9923 17.8096 55.9767C18.101 55.9058 18.3305 55.6816 18.408 55.392L21.62 43.4048L22.3801 43.2004L23.0998 43.3927L26.3153 55.392C26.3928 55.6815 26.6223 55.9057 26.9137 55.9767C26.978 55.9923 27.0431 56 27.1076 56C27.3353 56 27.5564 55.9051 27.7137 55.7325L31.4492 51.6363L36.7324 53.3157C37.0182 53.4067 37.3307 53.3342 37.5474 53.1272C37.7642 52.9201 37.8508 52.6112 37.7732 52.3216L36.4432 47.3582C36.326 46.9207 35.8761 46.661 35.4385 46.7782C35.0008 46.8954 34.7412 47.3453 34.8584 47.7829L35.8003 51.298L31.4456 49.9136C31.1406 49.8166 30.8068 49.906 30.591 50.1426L27.5118 53.5192L24.9292 43.8817L27.9393 44.6859C28.2221 44.7615 28.5244 44.6805 28.7316 44.4729L32.7969 40.4001L32.8747 40.3792L33.9004 44.2084C33.9985 44.575 34.33 44.8167 34.6922 44.8167C34.7625 44.8167 34.8339 44.8077 34.9049 44.7886C35.3425 44.6714 35.6023 44.2216 35.4851 43.784L34.4589 39.9534L38.3542 38.9062C38.6372 38.8301 38.8581 38.6088 38.9338 38.3257L40.4182 32.7663L44.4838 28.6934C44.6909 28.486 44.7715 28.1839 44.6955 27.9009ZM17.2115 53.519L14.1327 50.1428C13.9168 49.9062 13.5832 49.8168 13.278 49.9137L8.92336 51.2979L11.8471 40.3887L11.9576 40.4182L16.0304 44.4837C16.1863 44.6392 16.3955 44.7234 16.61 44.7234C16.681 44.7234 16.7526 44.7143 16.823 44.6953L19.7898 43.8973L17.2115 53.519Z" fill="#303030"/>
<path d="M22.362 6.81641C24.6425 6.81641 26.8389 7.29864 28.89 8.24966C29.3014 8.44041 29.7888 8.26147 29.9793 7.85055C30.1699 7.43952 29.9912 6.95181 29.5803 6.76128C27.3112 5.7092 24.8827 5.17578 22.3621 5.17578C14.6004 5.17578 7.78128 10.3991 5.76637 17.882C5.7656 17.8845 5.76495 17.8871 5.76418 17.8898C5.76189 17.8983 5.75937 17.9067 5.75707 17.9151C5.37153 19.3585 5.17596 20.8546 5.17596 22.3619C5.17596 26.2922 6.46692 29.9905 8.90905 33.0565C8.91069 33.0586 8.91244 33.0605 8.91397 33.0625C8.91637 33.0655 8.91878 33.0685 8.9213 33.0715C12.2032 37.1876 17.1009 39.548 22.362 39.548C31.8384 39.548 39.5481 31.8384 39.5481 22.3619C39.5481 17.235 37.2834 12.4137 33.3347 9.13407C32.9862 8.84466 32.469 8.89246 32.1795 9.24104C31.89 9.58961 31.9379 10.1067 32.2864 10.3963C35.8586 13.3632 37.9074 17.7245 37.9074 22.362C37.9074 30.9338 30.9338 37.9075 22.362 37.9075C18.1965 37.9075 14.2828 36.2716 11.3802 33.3662H16.3589C16.8121 33.3662 17.1792 32.999 17.1792 32.5459V31.6161C17.917 31.7155 18.4876 31.9051 19.0334 32.3235C19.5369 32.7095 20.1588 32.9222 20.7843 32.9222H29.7872C31.1651 32.9222 32.2861 31.8012 32.2861 30.4233C32.2861 29.9402 32.1483 29.4886 31.91 29.1059C32.5489 28.6527 32.9666 27.9073 32.9666 27.0662C32.9666 26.557 32.8135 26.0828 32.5509 25.6873C33.1427 25.2299 33.5246 24.5133 33.5246 23.7092C33.5246 23.2022 33.3728 22.7299 33.1122 22.3356C33.708 21.8786 34.0929 21.1594 34.0929 20.3521C34.0929 18.9742 32.9719 17.8532 31.594 17.8532H26.5918C27.1897 15.6789 27.0897 13.4067 26.2942 10.7994C25.9979 9.82816 25.1134 9.17563 24.093 9.17563C23.4645 9.17563 22.8557 9.43714 22.4228 9.89302C21.9899 10.349 21.7602 10.9707 21.7928 11.5986C21.9429 14.4885 20.6589 15.4469 18.7151 16.8974C18.2268 17.2617 17.7046 17.652 17.1778 18.1004C17.1634 17.6601 16.8028 17.3072 16.3588 17.3072H7.65692C9.79345 11.0792 15.6928 6.81641 22.362 6.81641ZM19.6963 18.2121C21.7175 16.7036 23.6269 15.2789 23.4312 11.5134C23.4217 11.3301 23.486 11.1558 23.6124 11.0225C23.7388 10.8894 23.9094 10.8161 24.0929 10.8161C24.3821 10.8161 24.642 11.006 24.7248 11.278C25.5442 13.9637 25.5336 16.2188 24.6913 18.3751C24.5928 18.6275 24.6253 18.9123 24.7781 19.1361C24.9309 19.3599 25.1845 19.4937 25.4554 19.4937H31.5938C32.067 19.4937 32.452 19.8787 32.452 20.352C32.452 20.8253 32.067 21.2103 31.5938 21.2103H29.5057C29.0525 21.2103 28.6854 21.5776 28.6854 22.0306C28.6854 22.4836 29.0525 22.8509 29.5057 22.8509H31.0255C31.4986 22.8509 31.8837 23.2359 31.8837 23.7091C31.8837 24.1823 31.4986 24.5673 31.0255 24.5673H29.5057C29.0525 24.5673 28.6854 24.9346 28.6854 25.3876C28.6854 25.8407 29.0525 26.208 29.5057 26.208H30.4674C30.9407 26.208 31.3257 26.593 31.3257 27.0662C31.3257 27.5395 30.9407 27.9245 30.4674 27.9245H28.9475C28.4944 27.9245 28.1272 28.2918 28.1272 28.7448C28.1272 29.1978 28.4944 29.5651 28.9475 29.5651H29.7869C30.2602 29.5651 30.6452 29.9501 30.6452 30.4234C30.6452 30.8967 30.2602 31.2817 29.7869 31.2817H20.784C20.5174 31.2817 20.2499 31.1892 20.0312 31.0216C19.1021 30.3091 18.1283 30.0677 17.1789 29.9625V20.36C17.987 19.4885 18.8547 18.8402 19.6963 18.2121ZM15.5386 20.2327C15.5386 20.2335 15.5385 20.2341 15.5385 20.2348V30.9085C15.5385 30.9092 15.5386 30.9099 15.5386 30.9105V31.7254H9.95292C7.89984 29.0145 6.81648 25.7858 6.81648 22.3618C6.81648 21.2084 6.94434 20.0629 7.19415 18.9476H15.5386V20.2327Z" fill="#303030"/>
</svg>
