<svg width="56" height="56" viewBox="0 0 56 56" fill="none" xmlns="http://www.w3.org/2000/svg">
<path d="M12.5155 0.82019H40.3448C42.1332 0.82019 43.583 2.26996 43.583 4.05835V51.9415C43.583 53.7299 42.1332 55.1797 40.3448 55.1797H4.05835C2.26996 55.1797 0.82019 53.7299 0.82019 51.9415V12.5157C0.82019 11.6568 1.16133 10.8331 1.76869 10.2259L10.2259 1.76869C10.8331 1.16133 11.6567 0.82019 12.5155 0.82019Z" fill="#F4FBFF"/>
<path d="M40.3448 0.82019H33.3915C35.1799 0.82019 36.6297 2.26996 36.6297 4.05835V51.9415C36.6297 53.7299 35.1799 55.1797 33.3915 55.1797H40.3448C42.1332 55.1797 43.583 53.7299 43.583 51.9415V4.05846C43.5831 2.26996 42.1332 0.82019 40.3448 0.82019Z" fill="#E4F6FF"/>
<path d="M1.76871 10.226L10.2259 1.76877C10.5028 1.49183 10.8247 1.27035 11.1744 1.11121V9.16678C11.1744 10.2755 10.2756 11.1744 9.16683 11.1744H1.11115C1.27029 10.8247 1.49177 10.5028 1.76871 10.226Z" fill="#1D9EE1"/>
<path d="M35.6113 11.1744H18.7711C18.2085 11.1744 17.7526 10.7184 17.7526 10.1559V7.49433C17.7526 6.93181 18.2085 6.47583 18.7711 6.47583H35.6113C36.1738 6.47583 36.6298 6.93181 36.6298 7.49433V10.1559C36.6298 10.7184 36.1737 11.1744 35.6113 11.1744Z" fill="#CBE2FF"/>
<path d="M47.0739 48.9874L44.0658 47.1355C43.7698 46.9533 43.3964 46.9533 43.1004 47.1355L40.0923 48.9874C39.4789 49.365 38.689 48.9237 38.689 48.2034V36.2898H48.4773V48.2032C48.4772 48.9236 47.6873 49.3649 47.0739 48.9874Z" fill="#E8AE4D"/>
<path d="M45.5282 19.7676C46.1468 20.5671 47.1918 20.9066 48.1623 20.6234C49.7068 20.1727 51.2609 21.3019 51.3095 22.91C51.3401 23.9206 51.9859 24.8093 52.9375 25.1507C54.4519 25.694 55.0456 27.521 54.1396 28.8505C53.5704 29.686 53.5704 30.7847 54.1396 31.6201C55.0455 32.9497 54.4519 34.7768 52.9375 35.3199C51.9859 35.6613 51.3401 36.5501 51.3095 37.5606C51.2609 39.1687 49.7068 40.2979 48.1623 39.8472C47.1918 39.564 46.1469 39.9035 45.5282 40.7031C44.5436 41.9755 42.6225 41.9755 41.6379 40.7031C41.0193 39.9035 39.9744 39.564 39.0039 39.8472C37.4594 40.2978 35.9053 39.1687 35.8566 37.5606C35.8261 36.5501 35.1802 35.6613 34.2287 35.3199C32.7143 34.7767 32.1206 32.9497 33.0265 31.6201C33.5957 30.7846 33.5957 29.6859 33.0265 28.8505C32.1207 27.521 32.7143 25.6939 34.2287 25.1507C35.1802 24.8093 35.8261 23.9206 35.8566 22.91C35.9053 21.3019 37.4594 20.1727 39.0039 20.6234C39.9744 20.9066 41.0192 20.5671 41.6379 19.7676C42.6225 18.4951 44.5435 18.4951 45.5282 19.7676Z" fill="#FFE07D"/>
<path d="M54.1396 31.6202C53.5705 30.7847 53.5705 29.6861 54.1396 28.8506C55.0456 27.521 54.4519 25.694 52.9375 25.1508C51.9859 24.8095 51.3401 23.9207 51.3096 22.9102C51.2609 21.302 49.7068 20.1728 48.1623 20.6236C47.1918 20.9067 46.147 20.5672 45.5282 19.7677C44.5436 18.4952 42.6226 18.4952 41.638 19.7677C41.4993 19.9469 41.3393 20.1029 41.1634 20.2341C44.96 21.9636 47.5992 25.7913 47.5992 30.2354C47.5992 34.6796 44.96 38.5074 41.1634 40.2368C41.3393 40.3679 41.4994 40.524 41.638 40.7032C42.6226 41.9756 44.5436 41.9756 45.5282 40.7032C46.147 39.9036 47.1918 39.5641 48.1623 39.8473C49.7068 40.298 51.2609 39.1689 51.3096 37.5607C51.3402 36.5502 51.9859 35.6614 52.9375 35.3201C54.4519 34.7768 55.0455 32.9498 54.1396 31.6202Z" fill="#FFD064"/>
<path d="M43.5831 36.2898C46.9269 36.2898 49.6375 33.5791 49.6375 30.2354C49.6375 26.8916 46.9269 24.1809 43.5831 24.1809C40.2393 24.1809 37.5286 26.8916 37.5286 30.2354C37.5286 33.5791 40.2393 36.2898 43.5831 36.2898Z" fill="#E8AE4D"/>
<path d="M49.6374 30.2355C49.6374 27.8007 48.2003 25.7017 46.1279 24.7404C47.0636 26.3567 47.5991 28.2336 47.5991 30.2355C47.5991 32.2374 47.0635 34.1142 46.1279 35.7306C48.2003 34.7693 49.6374 32.6702 49.6374 30.2355Z" fill="#E5A32E"/>
<path d="M1.76871 10.2259L10.2259 1.76865C10.5028 1.49171 10.8247 1.27022 11.1744 1.11108V9.16666C11.1744 10.2754 10.2756 11.1742 9.16683 11.1742H1.11115C1.27029 10.8246 1.49177 10.5027 1.76871 10.2259Z" fill="#1D9EE1"/>
<path d="M27.9977 19.8522H6.99946C6.54643 19.8522 6.17926 20.2195 6.17926 20.6724C6.17926 21.1254 6.54643 21.4926 6.99946 21.4926H27.9978C28.4509 21.4926 28.818 21.1253 28.818 20.6724C28.818 20.2195 28.4509 19.8522 27.9977 19.8522Z" fill="#303030"/>
<path d="M27.9977 25.6158H6.99946C6.54643 25.6158 6.17926 25.9831 6.17926 26.436C6.17926 26.889 6.54643 27.2563 6.99946 27.2563H27.9978C28.4509 27.2563 28.818 26.889 28.818 26.436C28.818 25.9831 28.4509 25.6158 27.9977 25.6158Z" fill="#303030"/>
<path d="M27.9977 31.3794H6.99946C6.54643 31.3794 6.17926 31.7467 6.17926 32.1996C6.17926 32.6525 6.54643 33.0198 6.99946 33.0198H27.9978C28.4509 33.0198 28.818 32.6525 28.818 32.1996C28.818 31.7467 28.4509 31.3794 27.9977 31.3794Z" fill="#303030"/>
<path d="M28.818 37.9633C28.818 37.5102 28.4509 37.1431 27.9978 37.1431H6.99946C6.54643 37.1431 6.17926 37.5103 6.17926 37.9633C6.17926 38.4162 6.54643 38.7835 6.99946 38.7835H27.9978C28.4509 38.7835 28.818 38.4163 28.818 37.9633Z" fill="#303030"/>
<path d="M6.99946 45.5898C6.54643 45.5898 6.17926 45.9571 6.17926 46.41C6.17926 46.863 6.54643 47.2302 6.99946 47.2302H17.5255C17.9785 47.2302 18.3457 46.863 18.3457 46.41C18.3457 45.9571 17.9785 45.5898 17.5255 45.5898H6.99946Z" fill="#303030"/>
<path d="M37.45 10.1559V7.49433C37.45 6.48042 36.6252 5.65552 35.6112 5.65552H18.7711C17.7572 5.65552 16.9324 6.48042 16.9324 7.49433V10.1559C16.9324 11.1698 17.7572 11.9946 18.7711 11.9946H20.1932C20.6462 11.9946 21.0134 11.6273 21.0134 11.1744C21.0134 10.7213 20.6462 10.3542 20.1932 10.3542H18.7711C18.6618 10.3542 18.5729 10.2652 18.5729 10.156V7.49433C18.5729 7.38506 18.6618 7.29603 18.7711 7.29603H35.6112C35.7206 7.29603 35.8095 7.38495 35.8095 7.49433V10.1559C35.8095 10.2651 35.7206 10.354 35.6112 10.354H24.0279C23.5748 10.354 23.2077 10.7213 23.2077 11.1743C23.2077 11.6273 23.5748 11.9945 24.0279 11.9945H35.6113C36.6252 11.9947 37.45 11.1698 37.45 10.1559Z" fill="#303030"/>
<path d="M43.5831 50.0168C43.1301 50.0168 42.7629 50.384 42.7629 50.837V51.9415C42.7629 53.2747 41.6782 54.3595 40.3448 54.3595H4.05836C2.72519 54.3595 1.64041 53.2748 1.64041 51.9415V12.5156C1.64041 12.338 1.66119 12.1639 1.69827 11.9945H9.16672C10.726 11.9945 11.9945 10.726 11.9945 9.16672V1.69837C12.1639 1.6613 12.3379 1.64052 12.5155 1.64052H40.3447C41.678 1.64052 42.7628 2.72519 42.7628 4.05847V14.9787C42.7628 15.4317 43.13 15.7989 43.583 15.7989C44.036 15.7989 44.4032 15.4316 44.4032 14.9787V4.05836C44.4033 1.82066 42.5826 0 40.3448 0H12.5156C11.4315 0 10.4123 0.422188 9.64578 1.18869L1.18858 9.64589C0.422078 10.4124 0 11.4315 0 12.5157V51.9416C0 54.1795 1.82055 56 4.05836 56H40.3448C42.5826 56 44.4033 54.1793 44.4033 51.9416V50.8371C44.4033 50.384 44.0361 50.0168 43.5831 50.0168ZM10.3541 2.80044V9.16672C10.3541 9.82144 9.82144 10.3541 9.16672 10.3541H2.80044L10.3541 2.80044Z" fill="#303030"/>
<path d="M54.8174 29.3124C55.3932 28.4672 55.5421 27.4248 55.2262 26.4522C54.9102 25.4796 54.1768 24.7239 53.2143 24.3787C52.5758 24.1496 52.1498 23.5634 52.1294 22.8853C52.0985 21.8632 51.6062 20.9322 50.7787 20.331C49.9515 19.73 48.9138 19.5497 47.9325 19.836C47.2808 20.0261 46.5921 19.8021 46.1769 19.2656C45.5512 18.4568 44.6057 17.9929 43.5831 17.9929C42.5605 17.9929 41.615 18.4568 40.9891 19.2656C40.5739 19.8022 39.8848 20.0259 39.2337 19.836C38.2522 19.5494 37.2146 19.73 36.3872 20.331C35.5599 20.9322 35.0678 21.863 35.0367 22.8852C35.0163 23.5633 34.5904 24.1494 33.9517 24.3786C32.9892 24.7237 32.2559 25.4796 31.94 26.4521C31.624 27.4247 31.773 28.4672 32.3487 29.3122C32.7307 29.873 32.7307 30.5975 32.3487 31.1582C31.773 32.0033 31.624 33.0458 31.94 34.0183C32.2559 34.9909 32.9892 35.7467 33.9517 36.092C34.5904 36.3211 35.0164 36.9072 35.0367 37.5854C35.0653 38.5256 35.4961 39.409 36.2191 40.0089C36.6961 40.4048 37.2691 40.6526 37.8688 40.7354V48.2033C37.8688 48.8334 38.2106 49.4158 38.7606 49.723C39.31 50.0301 39.9854 50.0164 40.5223 49.6857L43.5307 47.8338C43.5797 47.8035 43.6089 47.8172 43.6359 47.8338L46.644 49.6857C47.1807 50.0161 47.8559 50.0303 48.4059 49.7229C48.956 49.4156 49.2977 48.8332 49.2977 48.2032V40.7352C49.8972 40.6525 50.4702 40.4047 50.9472 40.0089C51.6703 39.409 52.1012 38.5257 52.1297 37.5853C52.1501 36.9071 52.5761 36.3209 53.2146 36.0919C54.1772 35.7467 54.9106 34.9908 55.2265 34.0182C55.5425 33.0457 55.3935 32.0032 54.8177 31.1581C54.4354 30.5976 54.4354 29.8731 54.8174 29.3124ZM47.5038 48.2888L44.4956 46.4369C43.9364 46.0927 43.2302 46.0921 42.6704 46.4369L39.6622 48.2887C39.5937 48.3304 39.5092 48.2824 39.5092 48.2032V40.5796C40.0731 40.5143 40.6322 40.7438 40.9891 41.205C41.6151 42.0137 42.5605 42.4776 43.5832 42.4776C44.6057 42.4776 45.5512 42.0137 46.1769 41.205C46.5339 40.7437 47.0931 40.5143 47.657 40.5796V48.2032C47.657 48.2829 47.5713 48.3305 47.5038 48.2888ZM53.4617 32.0821C53.7496 32.5045 53.824 33.0254 53.666 33.5115C53.5081 33.9975 53.1416 34.3753 52.6604 34.5479C51.3827 35.0062 50.5307 36.179 50.4897 37.5358C50.4751 38.0128 50.2654 38.4428 49.8994 38.7466C49.4878 39.0882 48.9304 39.217 48.3921 39.06C47.0891 38.6798 45.7102 39.1278 44.8794 40.2012C44.5667 40.6053 44.0941 40.8372 43.583 40.8372C43.072 40.8372 42.5994 40.6054 42.2864 40.2012C41.6522 39.3813 40.6983 38.9263 39.7027 38.9263C39.3944 38.9263 39.0821 38.9699 38.7741 39.0599C38.2305 39.2182 37.6747 39.0855 37.2664 38.7465C36.9004 38.4427 36.6907 38.0127 36.6764 37.5358C36.6352 36.179 35.7832 35.0062 34.5054 34.5478C34.0244 34.3752 33.6579 33.9975 33.4999 33.5115C33.342 33.0254 33.4163 32.5044 33.7042 32.082C34.4684 30.9601 34.4684 29.5105 33.7042 28.3887C33.4163 27.9663 33.342 27.4452 33.4999 26.959C33.6578 26.473 34.0244 26.0952 34.5054 25.9227C35.7832 25.4643 36.6352 24.2915 36.6764 22.9347C36.6918 22.4238 36.9377 21.9585 37.3512 21.6582C37.7645 21.3577 38.283 21.2676 38.774 21.4107C40.0766 21.791 41.4558 21.3429 42.2864 20.2695C42.5992 19.8652 43.0717 19.6333 43.583 19.6333C44.0941 19.6333 44.5666 19.8651 44.8794 20.2693C45.7101 21.3429 47.0886 21.7909 48.392 21.4107C48.8826 21.2674 49.4011 21.3576 49.8146 21.6581C50.2282 21.9584 50.4742 22.4238 50.4896 22.9346C50.5307 24.2914 51.3827 25.4643 52.6604 25.9226C53.1416 26.0951 53.508 26.4729 53.666 26.9589C53.824 27.445 53.7496 27.9662 53.4617 28.3885C52.6973 29.5104 52.6973 30.9602 53.4617 32.0821Z" fill="#303030"/>
<path d="M43.5831 23.3606C39.7924 23.3606 36.7084 26.4445 36.7084 30.2353C36.7084 34.026 39.7924 37.1099 43.5831 37.1099C47.3737 37.1099 50.4576 34.026 50.4576 30.2353C50.4576 26.4445 47.3737 23.3606 43.5831 23.3606ZM43.5831 35.4695C40.6969 35.4695 38.3488 33.1214 38.3488 30.2354C38.3488 27.3493 40.6969 25.0011 43.5831 25.0011C46.4693 25.0011 48.8172 27.3492 48.8172 30.2354C48.8172 33.1215 46.4692 35.4695 43.5831 35.4695Z" fill="#303030"/>
</svg>
