<svg width="56" height="55" viewBox="0 0 56 55" fill="none" xmlns="http://www.w3.org/2000/svg">
<path d="M33.3627 44.4691L21.0119 32.1183C20.2377 31.3441 20.2369 30.0918 21.0093 29.3194C21.3148 29.0139 21.6964 28.8289 22.0933 28.7665C22.6978 28.6687 23.3408 28.8537 23.8087 29.3215L20.6282 26.1415C20.2416 25.7544 20.0472 25.2481 20.0476 24.7423C20.0476 24.6372 20.0562 24.5312 20.0728 24.4257C20.1365 24.0284 20.3206 23.6477 20.6261 23.3422C20.9286 23.0397 21.3033 22.8564 21.6946 22.7915C22.2278 22.7026 22.7892 22.8325 23.237 23.1816L22.0266 21.9712C21.64 21.5845 21.4456 21.0761 21.4456 20.5702C21.4451 20.463 21.4541 20.3545 21.472 20.2485C21.5353 19.8542 21.7194 19.4752 22.0236 19.171C22.3291 18.8655 22.7102 18.6809 23.1088 18.6181C23.7134 18.5207 24.3564 18.7057 24.8242 19.1736L26.2102 20.5595C25.7428 20.0921 25.5574 19.4487 25.6548 18.8442C25.7176 18.4472 25.9013 18.0666 26.2076 17.7602C26.9797 16.9886 28.2332 16.9891 29.007 17.7628L37.0332 25.7895L37.0558 25.7574C37.4626 25.3507 37.942 25.0614 38.4534 24.8888C39.7159 24.4637 41.1681 24.7543 42.1751 25.7613L45.9178 29.5039C46.6373 30.2234 47.0406 31.198 47.0423 32.214L47.0444 34.5553C47.0453 35.6495 47.4807 36.6992 48.2557 37.4742L49.0905 38.3086L39.5446 47.8542L38.4782 46.7878C37.7689 46.0785 36.8256 45.6513 35.8254 45.5859C34.8961 45.5248 34.0215 45.1283 33.3627 44.4691Z" fill="#FECBAA"/>
<path d="M38.9243 48.474L49.7588 37.6395C50.116 37.2823 50.6949 37.2823 51.0516 37.6395L54.9105 41.4979C55.2673 41.8551 55.2673 42.4336 54.9105 42.7908L44.0756 53.6257C43.7184 53.9825 43.1399 53.9825 42.7827 53.6257L38.9243 49.7668C38.5671 49.4101 38.5671 48.8312 38.9243 48.474Z" fill="#FDD559"/>
<path d="M22.6355 44.4703L34.9863 32.1195C35.7605 31.3453 35.7609 30.093 34.9885 29.3206C34.683 29.0147 34.3015 28.8301 33.905 28.7673C33.3 28.6699 32.6574 28.8549 32.1891 29.3227L35.3696 26.1423C35.7562 25.7556 35.9506 25.2489 35.9502 24.7431C35.9502 24.6379 35.9421 24.532 35.925 24.4269C35.8613 24.0295 35.6772 23.6489 35.3717 23.3434C35.0696 23.0409 34.6945 22.8576 34.3032 22.7927C33.77 22.7038 33.2086 22.8337 32.7608 23.1823L33.9712 21.9719C34.3578 21.5853 34.5522 21.0773 34.5522 20.5714C34.5527 20.4638 34.5437 20.3557 34.5258 20.2497C34.4625 19.8554 34.2784 19.476 33.9742 19.1722C33.6687 18.8667 33.2876 18.6817 32.8894 18.6193C32.2844 18.5219 31.6418 18.7065 31.1736 19.1743L29.7876 20.5603C30.255 20.0933 30.4404 19.4499 30.343 18.8449C30.2806 18.4484 30.0965 18.0678 29.7902 17.7614C29.0181 16.9894 27.7646 16.9902 26.9913 17.7636L18.9646 25.7902L18.942 25.7586C18.5352 25.3519 18.0558 25.0626 17.5444 24.89C16.2823 24.4645 14.8297 24.7554 13.8227 25.7625L10.0804 29.5051C9.36096 30.2246 8.95721 31.1992 8.95593 32.2152L8.95337 34.5565C8.95294 35.6511 8.51758 36.7004 7.74255 37.4754L6.90771 38.3098L16.4532 47.8554L17.5201 46.7889C18.2293 46.0797 19.1727 45.6525 20.1729 45.5871C21.1017 45.526 21.9763 45.1291 22.6355 44.4703Z" fill="#FECBAA"/>
<path d="M17.0741 48.4754L6.23912 37.6404C5.88194 37.2833 5.30302 37.2833 4.94627 37.6404L1.08739 41.4993C0.730637 41.8561 0.730637 42.435 1.08739 42.7922L11.9223 53.6267C12.2795 53.9839 12.858 53.9839 13.2152 53.6267L17.0741 49.7682C17.4308 49.4111 17.4308 48.8322 17.0741 48.4754Z" fill="#1D9EE1"/>
<path d="M35.8985 14.8704V32.337C35.8985 33.4321 35.0137 34.3177 33.9208 34.3177C33.4888 34.3177 33.0885 34.1789 32.7634 33.9426C32.2669 33.5837 31.9431 32.9988 31.9431 32.337V36.8347C31.9431 37.3815 31.7222 37.8771 31.3646 38.2347C31.2902 38.3091 31.2095 38.3779 31.1227 38.4402C30.7968 38.6765 30.3977 38.8154 29.9658 38.8154C29.5381 38.8154 29.1433 38.6799 28.8203 38.4492C28.3807 38.1352 28.0756 37.6464 28.0056 37.0829V38.7949C28.0056 39.3417 27.7834 39.8382 27.4258 40.1958C27.3506 40.2723 27.2673 40.3423 27.1797 40.4047C26.8558 40.6389 26.4581 40.7769 26.0278 40.7769C25.5959 40.7769 25.1956 40.6376 24.8696 40.4005C24.3731 40.0416 24.0493 39.4567 24.0493 38.7949V36.8347C24.0493 37.4952 23.7254 38.0818 23.2289 38.4402C22.9042 38.6765 22.5048 38.8154 22.072 38.8154C20.9803 38.8154 20.0942 37.9284 20.0942 36.8347V25.4832L20.0558 25.49C19.4807 25.49 18.9368 25.3554 18.4536 25.1157C17.2603 24.524 16.4387 23.2914 16.4387 21.8674V16.5746C16.4387 15.5574 16.8425 14.5828 17.5598 13.8629L19.2137 12.2061C19.987 11.4315 20.4211 10.3813 20.4211 9.2854V8.10535H33.9208V9.61353C33.9208 10.6167 34.2861 11.5857 34.9466 12.3394C35.5605 13.0392 35.8985 13.9385 35.8985 14.8704Z" fill="#FEDFC5"/>
<path d="M34.9885 29.3206C34.683 29.0147 34.3015 28.8301 33.905 28.7673C33.3 28.6699 32.6575 28.8549 32.1896 29.3227L35.3701 26.1423C35.7567 25.7556 35.9507 25.2489 35.9507 24.7431C35.9507 24.6379 35.9421 24.532 35.925 24.4269C35.8618 24.0291 35.6777 23.6489 35.3722 23.3434C35.0697 23.0409 34.6946 22.8576 34.3032 22.7927C33.7704 22.7038 33.209 22.8337 32.7613 23.1823L33.9717 21.9719C34.3583 21.5853 34.5523 21.0773 34.5523 20.5714C34.5532 20.4638 34.5438 20.3557 34.5258 20.2497C34.4626 19.8554 34.2784 19.476 33.9747 19.1722C33.6692 18.8667 33.2877 18.6817 32.8895 18.6193C32.2845 18.5219 31.6419 18.7065 31.1741 19.1743L29.7881 20.5603C30.2551 20.0933 30.4409 19.4499 30.3431 18.8449C30.2807 18.4484 30.0966 18.0678 29.7902 17.7614C29.0182 16.9894 27.7646 16.9902 26.9913 17.7636L18.9647 25.7902L18.942 25.7586C18.5353 25.3519 18.0559 25.0626 17.5445 24.89C16.9391 24.6858 16.2897 24.6486 15.6667 24.7742C16.1688 25.5326 16.8699 26.1615 17.7252 26.5858C17.9623 26.7033 18.2054 26.8019 18.4532 26.8818V36.8345C18.4532 38.8315 20.0764 40.4559 22.0716 40.4559C22.3113 40.4559 22.548 40.4328 22.7783 40.3871C23.0359 40.9135 23.4196 41.3766 23.9036 41.7265C24.204 41.9453 24.5317 42.1127 24.8765 42.2289L34.986 32.119C35.7606 31.3453 35.7614 30.093 34.9885 29.3206Z" fill="#FFAE85"/>
<path d="M37.5378 32.3369V25.3519C37.3682 25.4707 37.2063 25.6061 37.0546 25.7578L37.0324 25.7894L29.0057 17.7627C28.2324 16.9894 26.9785 16.9885 26.2068 17.7606C25.9005 18.0669 25.7164 18.4472 25.6536 18.8441C25.5562 19.449 25.742 20.0925 26.209 20.5595L24.823 19.1735C24.3552 18.7056 23.7126 18.5211 23.1076 18.6185C22.7094 18.6809 22.3279 18.8659 22.0224 19.1713C21.7186 19.4751 21.5345 19.8545 21.4708 20.2488C21.4533 20.3548 21.4439 20.4629 21.4448 20.5706C21.4448 21.0764 21.6387 21.5844 22.0258 21.9711L23.2362 23.1815C22.788 22.8328 22.2266 22.703 21.6938 22.7918C21.3025 22.8568 20.9274 23.04 20.6249 23.3425C20.3194 23.648 20.1353 24.0283 20.072 24.426C20.0549 24.5311 20.0464 24.6371 20.0464 24.7422C20.0464 25.2481 20.2404 25.7548 20.627 26.1414L23.8074 29.3218C23.3396 28.854 22.697 28.669 22.092 28.7664C21.6956 28.8292 21.314 29.0138 21.0085 29.3193C20.2361 30.0922 20.2369 31.3444 21.0111 32.1186L29.2852 40.3926C29.5073 40.4349 29.7346 40.4563 29.9649 40.4563C30.7314 40.4563 31.4645 40.2188 32.0815 39.7714C32.2391 39.6578 32.3878 39.5309 32.5237 39.395C33.2068 38.7123 33.5828 37.8031 33.5828 36.835V35.9433C33.6943 35.9536 33.8067 35.9587 33.9199 35.9587C35.9147 35.9583 37.5378 34.3339 37.5378 32.3369Z" fill="#FFAE85"/>
<path d="M35.8985 14.8704V32.337C35.8985 33.4321 35.0137 34.3177 33.9208 34.3177C33.8913 34.3177 33.8597 34.3177 33.8276 34.3156C33.4329 34.2972 33.0667 34.1627 32.7659 33.9439C32.7646 33.9439 32.7646 33.9426 32.7634 33.9426C32.2669 33.5837 31.9431 32.9988 31.9431 32.337V36.8347C31.9431 37.3815 31.7222 37.8771 31.3646 38.2347C31.2902 38.3091 31.2095 38.3779 31.1227 38.4402C30.7968 38.6765 30.3977 38.8154 29.9658 38.8154C29.5381 38.8154 29.1433 38.6799 28.8203 38.4492C28.3807 38.1352 28.0756 37.6464 28.0056 37.0829V38.7949C28.0056 39.3417 27.7834 39.8382 27.4258 40.1958C27.3506 40.2723 27.2673 40.3423 27.1797 40.4047C26.8558 40.6389 26.4581 40.7769 26.0278 40.7769C25.5959 40.7769 25.1956 40.6376 24.8696 40.4005C24.3731 40.0416 24.0493 39.4567 24.0493 38.7949V36.8347C24.0493 37.4952 23.7254 38.0818 23.2289 38.4402C22.9042 38.6765 22.5048 38.8154 22.072 38.8154C20.9803 38.8154 20.0942 37.9284 20.0942 36.8347V25.4832L20.0558 25.49C19.4807 25.49 18.9368 25.3554 18.4536 25.1157C17.2603 24.524 16.4387 23.2914 16.4387 21.8674V16.5746C16.4387 15.5574 16.8425 14.5828 17.5598 13.8629L19.2137 12.2061C19.6918 11.7267 20.0408 11.1426 20.2365 10.506C20.3591 10.1125 20.4211 9.69769 20.4211 9.2854V8.10535H33.9208V9.61353C33.9208 9.95148 33.9567 10.3082 34.0511 10.6342C34.2083 11.261 34.5146 11.8459 34.9466 12.3394C35.555 13.0341 35.8985 13.9449 35.8985 14.8704Z" fill="#FEDFC5"/>
<path d="M35.8984 14.8704V32.337C35.8984 33.4321 35.0136 34.3177 33.9207 34.3177C33.8912 34.3177 33.8596 34.3177 33.8276 34.3156C33.4328 34.2972 33.0667 34.1627 32.7659 33.9439L32.7996 17.1125C32.7996 17.0109 32.7766 16.8502 32.7338 16.6456C31.9793 12.9695 28.8762 10.506 25.1233 10.506H20.2365C20.3591 10.1125 20.421 9.69769 20.421 9.2854V8.10535H33.9207V9.61353C33.9207 9.95148 33.9566 10.3082 34.051 10.6342C34.2083 11.261 34.5146 11.8459 34.9465 12.3394C35.5549 13.0341 35.8984 13.9449 35.8984 14.8704Z" fill="#FECBAA"/>
<path d="M34.798 8.10571H19.4748C18.9702 8.10571 18.5609 7.69641 18.5609 7.19141V1.73462C18.5609 1.22961 18.9702 0.820312 19.4748 0.820312H34.798C35.3026 0.820312 35.7119 1.22961 35.7119 1.73462V7.19141C35.7119 7.69641 35.3026 8.10571 34.798 8.10571Z" fill="#83D9FF"/>
<path d="M23.008 48.9877L22.8435 49.7913L23.002 48.9868C22.5577 48.8992 22.1262 49.1885 22.0386 49.6328C21.951 50.0776 22.2402 50.5087 22.685 50.5963C22.6863 50.5967 22.6987 50.5988 22.7 50.5993C22.7521 50.6091 22.8038 50.6142 22.8551 50.6142C23.2409 50.6142 23.5848 50.3408 23.6596 49.9477C23.745 49.5025 23.4532 49.0727 23.008 48.9877Z" fill="#303030"/>
<path d="M29.28 49.2512L29.3616 50.0673L29.2774 49.2517C28.8267 49.2978 28.499 49.7007 28.5455 50.1515C28.5887 50.5736 28.945 50.888 29.3603 50.888C29.3885 50.888 29.4171 50.8863 29.4453 50.8838L29.468 50.8812C29.9166 50.8286 30.2349 50.424 30.1849 49.9754C30.1345 49.5272 29.7286 49.2042 29.28 49.2512Z" fill="#303030"/>
<path d="M26.1397 49.3546C26.1397 49.3546 26.1282 49.3541 26.1278 49.3541C25.6757 49.3336 25.2981 49.6848 25.2775 50.1373C25.2575 50.5897 25.6129 50.973 26.0654 50.9935C26.0782 50.9943 26.0906 50.9943 26.1034 50.9943C26.5392 50.9943 26.9024 50.6512 26.922 50.2112C26.9425 49.7587 26.5926 49.3751 26.1397 49.3546Z" fill="#303030"/>
<path d="M19.978 48.154L19.9677 48.1502C19.5413 47.9972 19.0765 48.2202 18.9235 48.6466C18.7702 49.073 18.9966 49.5447 19.423 49.6981C19.5148 49.731 19.6084 49.7464 19.7003 49.7464C20.0365 49.7464 20.3523 49.5383 20.4723 49.2033C20.6257 48.7769 20.4044 48.307 19.978 48.154Z" fill="#303030"/>
<path d="M32.3758 48.677L32.5779 49.4721L32.3733 48.6778C31.9345 48.7906 31.6705 49.238 31.7832 49.6767C31.8785 50.0467 32.2118 50.2928 32.5771 50.2928C32.645 50.2928 32.7138 50.2843 32.7826 50.2663C32.786 50.2655 32.8005 50.2616 32.8044 50.2608C33.2397 50.142 33.4944 49.6947 33.3782 49.2585C33.2619 48.8227 32.8129 48.5633 32.3758 48.677Z" fill="#303030"/>
<path d="M35.3414 47.6426L35.6665 48.3954L35.3388 47.6435C34.9236 47.8246 34.7334 48.3078 34.9142 48.7231C35.0487 49.032 35.3504 49.2162 35.667 49.2162C35.7759 49.2162 35.8874 49.1939 35.9938 49.1478C35.9972 49.1461 36.0105 49.1405 36.0139 49.1388C36.4253 48.953 36.6069 48.471 36.4232 48.0587C36.2395 47.646 35.755 47.461 35.3414 47.6426Z" fill="#303030"/>
<path d="M16.8446 10.2483C16.9762 10.2483 17.1099 10.2167 17.2334 10.1509C17.6333 9.93774 17.7841 9.44085 17.5709 9.04095C17.3578 8.64148 16.8613 8.4898 16.4614 8.70343L16.4516 8.70855C16.0521 8.92175 15.9055 9.41607 16.1187 9.81598C16.2657 10.092 16.5511 10.2483 16.8446 10.2483Z" fill="#303030"/>
<path d="M7.35589 19.4106C7.47766 19.4743 7.60797 19.5046 7.73657 19.5046C8.0318 19.5046 8.3172 19.3448 8.46374 19.065L8.47827 19.0363C8.67822 18.6296 8.51074 18.1378 8.104 17.9383C7.70025 17.7392 7.21234 17.9033 7.00983 18.3045C6.80047 18.7052 6.95514 19.2004 7.35589 19.4106Z" fill="#303030"/>
<path d="M6.20103 22.4967C6.28819 22.5262 6.37663 22.5402 6.46421 22.5402C6.80601 22.5402 7.12516 22.3245 7.24095 21.9827L7.25163 21.9502C7.38493 21.5174 7.14183 21.0581 6.7086 20.9253C6.27922 20.7928 5.82335 21.0312 5.6862 21.4585C5.54222 21.887 5.7725 22.3518 6.20103 22.4967Z" fill="#303030"/>
<path d="M8.97434 16.5408C9.12003 16.6468 9.28879 16.698 9.45627 16.698C9.70963 16.698 9.95999 16.5805 10.1202 16.3601L10.1309 16.3456C10.3941 15.9773 10.3082 15.4663 9.94077 15.2031C9.57291 14.9395 9.06021 15.0241 8.79617 15.3915L9.45712 15.8777L8.79361 15.3949C8.52701 15.7615 8.60819 16.2746 8.97434 16.5408Z" fill="#303030"/>
<path d="M14.0598 12.0201C14.232 12.0201 14.4055 11.9658 14.5537 11.853C14.9195 11.5856 14.9985 11.0725 14.731 10.7067C14.4632 10.341 13.95 10.262 13.5847 10.5294L13.5642 10.5444C13.2036 10.8182 13.1319 11.3339 13.4057 11.695C13.5672 11.9077 13.812 12.0201 14.0598 12.0201Z" fill="#303030"/>
<path d="M5.46875 34.9372C5.57727 35.2897 5.90112 35.5157 6.25147 35.5157C6.33136 35.5157 6.41296 35.5037 6.49329 35.479C6.92395 35.3469 7.16705 34.8906 7.03803 34.4591C6.91455 34.0285 6.46808 33.7755 6.03357 33.8939C5.5965 34.0131 5.33887 34.4642 5.45807 34.9013C5.46063 34.9099 5.46619 34.9287 5.46875 34.9372Z" fill="#303030"/>
<path d="M11.5818 14.182C11.795 14.182 12.0082 14.0995 12.1692 13.9355C12.4892 13.615 12.4892 13.0955 12.1692 12.7755C11.8488 12.455 11.3293 12.455 11.0088 12.7755L10.9952 12.7892C10.6781 13.1126 10.6846 13.6313 11.008 13.9483C11.1673 14.1046 11.3746 14.182 11.5818 14.182Z" fill="#303030"/>
<path d="M6.37537 31.3607C6.31769 30.9151 5.91053 30.5989 5.46448 30.6519C5.01502 30.7057 4.69373 31.1138 4.74713 31.5637L4.75183 31.5966C4.81165 32.0041 5.16156 32.2964 5.56189 32.2964C5.6012 32.2964 5.64136 32.2934 5.68195 32.2874C6.12842 32.2225 6.43817 31.8072 6.37537 31.3607Z" fill="#303030"/>
<path d="M5.3449 29.0113C5.35344 29.0113 5.36156 29.0117 5.36968 29.0117C5.81145 29.0117 6.17632 28.6601 6.18914 28.2153L6.18999 28.1803C6.18999 27.727 5.82256 27.36 5.36968 27.36C4.91979 27.36 4.55492 27.7214 4.54937 28.1696C4.5374 28.6216 4.8933 28.998 5.3449 29.0113Z" fill="#303030"/>
<path d="M5.52477 25.7215C5.57391 25.7301 5.62218 25.7343 5.67046 25.7343C6.06011 25.7343 6.40575 25.4553 6.4771 25.0584C6.47924 25.0465 6.48095 25.0345 6.48266 25.0225C6.54888 24.5744 6.23913 24.1574 5.79052 24.0916C5.34747 24.0258 4.93261 24.3304 4.86126 24.7722C4.7835 25.2174 5.08001 25.6416 5.52477 25.7215Z" fill="#303030"/>
<path d="M44.2204 16.7998C44.3793 17.0305 44.6348 17.154 44.8954 17.154C45.0557 17.154 45.218 17.107 45.3599 17.0091C45.7328 16.7528 45.8273 16.2418 45.5709 15.8684L44.889 16.3247L45.5684 15.8646C45.3137 15.4894 44.8036 15.3916 44.4289 15.6458C44.0538 15.9 43.9559 16.4101 44.2101 16.7853L44.2204 16.7998Z" fill="#303030"/>
<path d="M48.4095 25.0545C47.9592 25.1049 47.6353 25.5112 47.6862 25.9616L47.6904 25.997C47.749 26.4059 48.1002 26.7011 48.5018 26.7011C48.5402 26.7011 48.5795 26.6986 48.6188 26.693C49.0636 26.6293 49.3738 26.2196 49.3161 25.7753C49.2644 25.3262 48.8568 25.0041 48.4095 25.0545Z" fill="#303030"/>
<path d="M47.0252 22.7398L47.0286 22.7504C47.1337 23.108 47.4606 23.3396 47.8152 23.3396C47.8917 23.3396 47.9694 23.3289 48.0468 23.3059C48.4817 23.1781 48.7304 22.7222 48.6026 22.2873L48.5992 22.2766C48.4714 21.8417 48.0156 21.593 47.5806 21.7212C47.1461 21.8489 46.8975 22.3048 47.0252 22.7398Z" fill="#303030"/>
<path d="M45.8666 19.6725C46.0098 19.9635 46.3024 20.1331 46.6066 20.1331C46.7275 20.1331 46.8506 20.1062 46.9664 20.0489C47.3727 19.849 47.5414 19.3602 47.3411 18.9534L46.5977 19.2999L47.3402 18.9517C47.1479 18.5416 46.6596 18.3651 46.2494 18.5574C45.8393 18.7496 45.6624 19.238 45.8547 19.6481L45.8666 19.6725Z" fill="#303030"/>
<path d="M42.1542 14.238C42.3149 14.402 42.5272 14.4841 42.74 14.4841C42.9472 14.4841 43.1544 14.4063 43.3142 14.2495C43.6355 13.9351 43.6428 13.4211 43.333 13.0972C43.0258 12.7661 42.508 12.746 42.1756 13.0528C41.8428 13.36 41.8223 13.8791 42.1294 14.2119L42.1542 14.238Z" fill="#303030"/>
<path d="M48.6761 28.4798C48.2254 28.4682 47.8481 28.8216 47.8323 29.2723C47.8118 29.7213 48.1566 30.1037 48.606 30.1289C48.6218 30.1298 48.6368 30.1302 48.6526 30.1302C49.0845 30.1302 49.4464 29.7923 49.4708 29.3552L49.4721 29.3214C49.4849 28.869 49.1286 28.493 48.6761 28.4798Z" fill="#303030"/>
<path d="M36.9085 10.2099L36.9282 10.2206C37.0504 10.2855 37.1816 10.3163 37.3106 10.3163C37.6024 10.3163 37.8848 10.159 38.0331 9.88347C38.2467 9.4857 38.0963 8.98839 37.6998 8.77305L37.3029 9.49083L37.6972 8.77135C37.2999 8.55345 36.8013 8.69914 36.5834 9.09648C36.3659 9.49339 36.5112 9.99241 36.9085 10.2099Z" fill="#303030"/>
<path d="M39.683 12.0091L39.6958 12.0189C39.8441 12.1313 40.0179 12.1855 40.191 12.1855C40.4388 12.1855 40.6836 12.0736 40.8451 11.8608C41.119 11.4998 41.048 10.9854 40.6874 10.7115L40.6819 10.7077C40.3226 10.4317 39.8077 10.4992 39.5317 10.8585C39.2557 11.2178 39.3237 11.7331 39.683 12.0091Z" fill="#303030"/>
<path d="M55.4937 40.8986L51.6429 37.041C51.3152 36.7128 50.8799 36.5321 50.4163 36.5321C49.9532 36.5321 49.5174 36.7128 49.1901 37.041L49.1008 37.1302L48.8479 36.8773C48.5356 36.5641 48.2938 36.1997 48.1297 35.8028C48.1152 35.7502 48.0959 35.699 48.0712 35.6507C47.9456 35.2978 47.8802 34.9222 47.8802 34.5364V33.4453C47.955 33.4846 48.0366 33.5132 48.1241 33.5281C48.1711 33.5363 48.2177 33.5401 48.2639 33.5401C48.6531 33.5401 48.9974 33.2624 49.0696 32.8676C49.1572 32.4241 48.8697 31.993 48.4258 31.9042C48.2305 31.8653 48.0374 31.899 47.8751 31.9871C47.8246 30.8215 47.3483 29.7329 46.5194 28.9023L42.7836 25.1601C41.9453 24.3206 40.8306 23.8583 39.645 23.8583C38.7273 23.8583 37.8531 24.1364 37.1157 24.6512L36.7192 24.2526V14.8703C36.7192 13.7394 36.3087 12.6482 35.5635 11.7984C35.0333 11.1943 34.7415 10.4184 34.7415 9.61346V8.92603H34.7979C35.7541 8.92603 36.5321 8.14801 36.5321 7.19141V1.73462C36.5321 0.778015 35.7541 0 34.7979 0H19.4747C18.5186 0 17.7405 0.778015 17.7405 1.73462V7.19141C17.7405 8.14801 18.5186 8.92603 19.4747 8.92603H19.6012V9.28577C19.6012 10.1702 19.2573 11.0016 18.6331 11.6266L16.9792 13.2835C16.1016 14.1628 15.6184 15.3313 15.6184 16.5746V21.8669C15.6184 22.5859 15.791 23.2648 16.0948 23.8664C15.007 23.9292 13.9932 24.3825 13.2164 25.1601L9.48059 28.9023C8.60303 29.7816 8.11981 30.9506 8.11981 32.1934V34.5364C8.11981 35.4208 7.77631 36.2523 7.1521 36.8773L6.90216 37.1277C6.90088 37.1285 6.90002 37.1294 6.89917 37.1302L6.8103 37.041C6.4826 36.7128 6.04724 36.5321 5.58368 36.5321C5.12054 36.5321 4.68475 36.7128 4.35748 37.041L0.506287 40.8986C-0.168762 41.5749 -0.168762 42.6755 0.506287 43.3518L1.8252 44.6724C2.1452 44.9933 2.66473 44.9937 2.98517 44.6737C3.3056 44.3533 3.30646 43.8342 2.98602 43.5133L1.66754 42.1923C1.63037 42.1551 1.63037 42.0948 1.66754 42.0577L5.51874 38.2001C5.55463 38.1642 5.61316 38.1638 5.64905 38.2001L6.31854 38.8708H6.31897L15.4608 48.0284L16.4849 49.0547C16.522 49.0919 16.522 49.1521 16.4849 49.1893L12.6341 53.0469C12.5978 53.0832 12.5392 53.0832 12.5034 53.0469L5.30853 45.8397C4.98853 45.5188 4.46899 45.5184 4.14856 45.8384C3.8277 46.1588 3.82727 46.6779 4.14728 46.9988L11.3425 54.206C11.6698 54.5341 12.1056 54.7148 12.5692 54.7148C13.0323 54.7148 13.4677 54.5341 13.7953 54.206L17.6461 50.3484C18.3212 49.6725 18.3212 48.5719 17.6461 47.8956L17.6042 47.8537L18.09 47.3671C18.6574 46.7984 19.4111 46.4566 20.2122 46.4049C21.3397 46.3318 22.4005 45.8508 23.199 45.0505L26.7366 41.5052C27.7569 41.2374 28.5511 40.4064 28.7669 39.3656C29.1305 39.5386 29.5368 39.636 29.9658 39.636C31.5085 39.636 32.7638 38.3795 32.7638 36.8346V34.8868C33.1167 35.0479 33.5085 35.1384 33.9212 35.1384C35.464 35.1384 36.7188 33.8819 36.7188 32.337V26.5786L39.2421 29.1143C39.4023 29.2753 39.613 29.3557 39.8236 29.3557C40.033 29.3557 40.2423 29.2762 40.4025 29.1168C40.7234 28.7972 40.7247 28.2781 40.4051 27.9568L38.3013 25.8428C38.7085 25.6185 39.1674 25.4989 39.645 25.4989C40.3918 25.4989 41.0942 25.7903 41.6223 26.3196L45.3582 30.0615C45.9264 30.631 46.2396 31.3881 46.2396 32.1934V34.5364C46.2396 35.8588 46.7535 37.1016 47.6866 38.0364L47.9413 38.2915L46.7514 39.4835L39.5549 46.6924L39.1537 46.2904C39.1494 46.2866 39.1456 46.2823 39.1413 46.2784L39.0708 46.2075C38.2214 45.3569 37.0931 44.8455 35.8942 44.7677C35.1649 44.7203 34.4788 44.4092 33.9597 43.8897L31.2642 41.2087C30.9429 40.8892 30.4233 40.8904 30.1038 41.2117C29.7846 41.533 29.7859 42.0526 30.1072 42.3717L32.801 45.0505C33.5995 45.8508 34.6603 46.3318 35.7883 46.4049C36.5889 46.4566 37.3426 46.7984 37.91 47.3666L37.9497 47.4064C37.9711 47.4307 37.9937 47.4534 38.0176 47.4747L38.3958 47.8533L38.3539 47.8956C37.6788 48.5719 37.6788 49.6721 38.3539 50.3484L42.2047 54.206C42.5323 54.5341 42.9677 54.7148 43.4313 54.7148C43.8944 54.7148 44.3302 54.5341 44.6579 54.206L55.4937 43.3514C56.1688 42.675 56.1688 41.5749 55.4937 40.8986ZM48.4301 32.7416L48.4147 32.739L48.2651 32.7087L48.4301 32.7416ZM22.0378 43.8914C21.5212 44.4092 20.8351 44.7203 20.1062 44.7677C18.9069 44.8455 17.7786 45.3569 16.9292 46.2075L16.4451 46.6924L16.0093 46.2558C16.0038 46.2502 15.9982 46.2443 15.9927 46.2391L8.05872 38.2915L8.31335 38.0364C9.24646 37.1016 9.76044 35.8588 9.76044 34.5364V32.1934C9.76044 31.3881 10.0732 30.631 10.6418 30.0615L14.3777 26.3196C14.9058 25.7903 15.6082 25.4989 16.355 25.4989C16.8339 25.4989 17.2945 25.6194 17.7029 25.8454L15.5958 27.956C15.2758 28.2764 15.2762 28.796 15.5966 29.116C15.7568 29.2758 15.9666 29.3557 16.1764 29.3557C16.3866 29.3557 16.5968 29.2753 16.757 29.1151L19.2739 26.5935V36.8346C19.2739 38.3795 20.5292 39.636 22.072 39.636C22.5069 39.636 22.9188 39.5361 23.2862 39.3583C23.4528 40.1714 23.9724 40.8567 24.6765 41.2472L22.0378 43.8914ZM35.0786 32.3374C35.0786 32.9774 34.5591 33.4982 33.9212 33.4982C33.2829 33.4982 32.7638 32.9774 32.7638 32.3374V23.1871C32.7638 22.7342 32.3968 22.3668 31.9435 22.3668C31.4902 22.3668 31.1232 22.7342 31.1232 23.1871V36.835C31.1232 37.475 30.6041 37.9954 29.9658 37.9954C29.3928 37.9954 28.9173 37.5759 28.8254 37.0269V23.1777C28.8254 22.7244 28.4584 22.3574 28.0051 22.3574C27.8594 22.3574 27.7223 22.3958 27.6035 22.4625C27.3442 22.6005 27.1677 22.873 27.1677 23.1871V36.8346C27.1677 36.9388 27.1737 37.041 27.1848 37.1422V38.7952C27.1848 39.4352 26.6657 39.9561 26.0274 39.9561C25.3895 39.9561 24.8704 39.4352 24.8704 38.7952V23.1678C24.8704 22.715 24.503 22.3475 24.0501 22.3475C23.5968 22.3475 23.2294 22.715 23.2294 23.1678V36.8346C23.2294 37.4746 22.7103 37.9954 22.0724 37.9954C21.4341 37.9954 20.915 37.4746 20.915 36.8346V21.5755C20.915 21.1222 20.5475 20.7548 20.0947 20.7548C19.6414 20.7548 19.2744 21.1222 19.2744 21.5755V24.3979C19.2056 24.4201 19.1389 24.4513 19.077 24.4923C18.0161 24.0937 17.259 23.0674 17.259 21.8669V16.5746C17.259 15.7692 17.5722 15.0121 18.1404 14.4426L19.7943 12.7858C20.7278 11.851 21.2418 10.6081 21.2418 9.28577V8.92603H22.891C23.3443 8.92603 23.7113 8.55859 23.7113 8.10571C23.7113 7.6524 23.3443 7.2854 22.891 7.2854H19.4747C19.423 7.2854 19.3812 7.2431 19.3812 7.19141V1.73462C19.3812 1.68292 19.423 1.64062 19.4747 1.64062H34.7975C34.8496 1.64062 34.8915 1.68292 34.8915 1.73462V7.19141C34.8915 7.24353 34.8496 7.2854 34.7975 7.2854H26.7422C26.2893 7.2854 25.9219 7.6524 25.9219 8.10571C25.9219 8.55859 26.2893 8.92603 26.7422 8.92603H33.1009V9.61346C33.1009 10.8166 33.5371 11.9766 34.3297 12.8806C34.8124 13.4309 35.0786 14.1376 35.0786 14.8703V32.3374ZM54.3325 42.1923L43.4966 53.0469C43.4787 53.0652 43.4569 53.0742 43.4313 53.0742C43.4061 53.0742 43.3843 53.0652 43.3659 53.0469L39.5151 49.1893C39.478 49.1521 39.478 49.0919 39.5151 49.0547L40.1351 48.4335L40.1355 48.433L46.4258 42.132L50.351 38.2001C50.3868 38.1638 50.4454 38.1638 50.4813 38.2001L54.3325 42.0577C54.3696 42.0948 54.3696 42.1551 54.3325 42.1923Z" fill="#303030"/>
<path d="M22.072 3.58801C21.5905 3.58801 21.1987 3.98065 21.1987 4.46301C21.1987 4.9458 21.5905 5.33801 22.072 5.33801C22.554 5.33801 22.9457 4.9458 22.9457 4.46301C22.9457 3.98065 22.554 3.58801 22.072 3.58801Z" fill="#303030"/>
<path d="M50.6846 40.9814C50.2027 40.9814 49.8109 41.3741 49.8109 41.8564C49.8109 42.3388 50.2027 42.7314 50.6846 42.7314C51.1661 42.7314 51.5579 42.3388 51.5579 41.8564C51.5579 41.3741 51.1661 40.9814 50.6846 40.9814Z" fill="#303030"/>
<path d="M13.6701 49.3503C13.6701 48.868 13.2783 48.4753 12.7968 48.4753C12.3149 48.4753 11.9231 48.868 11.9231 49.3503C11.9231 49.8327 12.3149 50.2253 12.7968 50.2253C13.2783 50.2253 13.6701 49.8327 13.6701 49.3503Z" fill="#303030"/>
</svg>
