<svg width="77" height="95" viewBox="0 0 77 95" fill="none" xmlns="http://www.w3.org/2000/svg">
<path d="M0.362357 84.7665C0.194905 84.2402 0.485799 83.6778 1.01209 83.5103L9.58843 80.7816C10.1147 80.6141 10.6771 80.905 10.8446 81.4313C11.012 81.9576 10.7211 82.52 10.1948 82.6874L2.57141 85.113L4.997 92.7364C5.16445 93.2627 4.87356 93.8251 4.34727 93.9925C3.82098 94.16 3.2586 93.8691 3.09114 93.3428L0.362357 84.7665ZM54.0097 0.111151C67.3151 11.3862 74.1427 24.1306 75.9749 36.5029C77.8061 48.8682 74.6354 60.7872 68.0753 70.3865C54.9486 89.5949 28.2466 99.5193 0.855856 85.3515L1.77471 83.5751C28.2303 97.2592 53.8431 87.6679 66.4241 69.2581C72.7179 60.0483 75.7494 48.6326 73.9965 36.7958C72.2446 24.966 65.7021 12.6408 52.7167 1.63698L54.0097 0.111151Z" fill="#1D9EE1"/>
</svg>
