<svg width="60" height="56" viewBox="0 0 60 56" fill="none" xmlns="http://www.w3.org/2000/svg">
<path d="M54.4337 11.4258V49.8627C54.4337 52.4513 52.3349 54.5501 49.7463 54.5501H10.2547C7.66606 54.5501 5.56726 52.4513 5.56726 49.8627V11.4258H54.4337Z" fill="#F5F5F5"/>
<path d="M12.5984 54.5501H10.2547C7.66606 54.5501 5.56726 52.4513 5.56726 49.8627V11.4258H7.91098V49.8627C7.91098 52.4513 10.0098 54.5501 12.5984 54.5501Z" fill="#E6E6E6"/>
<path d="M54.4337 13.5349V28.8077C54.129 28.8593 53.8161 28.8862 53.4962 28.8862H52.6759C51.122 28.8862 49.7158 28.257 48.6986 27.2386C47.6803 26.2214 47.051 24.8152 47.051 23.2613C47.051 24.8152 46.4217 26.2214 45.4034 27.2386C44.3862 28.257 42.98 28.8862 41.4261 28.8862C38.3195 28.8862 35.8012 26.3679 35.8012 23.2613C35.8012 26.3679 33.2829 28.8862 30.1763 28.8862H30.0591C28.5052 28.8862 27.099 28.257 26.0818 27.2386C25.0635 26.2214 24.4342 24.8152 24.4342 23.2613C24.4342 26.3679 21.9158 28.8862 18.8092 28.8862H18.5749C17.021 28.8862 15.6148 28.257 14.5976 27.2386C13.5792 26.2214 12.95 24.8152 12.95 23.2613C12.95 26.3679 10.4316 28.8862 7.32505 28.8862H6.50475C6.18483 28.8862 5.87194 28.8593 5.56726 28.8077V13.5349H54.4337Z" fill="#E6E6E6"/>
<path d="M14.2132 11.4255L13.0683 19.284C12.9898 19.9039 12.95 20.5273 12.95 21.1519C12.95 21.2504 12.9476 21.3476 12.9429 21.4449C12.7906 24.4156 10.3332 26.7769 7.32504 26.7769H6.50474C4.95085 26.7769 3.54463 26.1476 2.52745 25.1292C1.57356 24.1765 0.96068 22.8828 0.886853 21.4449C0.882165 21.3476 0.879822 21.2504 0.879822 21.1519C0.879822 20.5344 1.01576 19.925 1.27943 19.366L5.56725 11.4255L9.50797 10.2537L14.2132 11.4255Z" fill="#1D9EE1"/>
<path d="M24.4342 11.4255V21.1519C24.4342 21.2504 24.4318 21.3476 24.4271 21.4449C24.2748 24.4156 21.8174 26.7769 18.8092 26.7769H18.5749C17.021 26.7769 15.6148 26.1476 14.5976 25.1292C13.6437 24.1765 13.0308 22.8828 12.957 21.4449C12.9523 21.3476 12.95 21.2504 12.95 21.1519C12.95 20.5273 12.9898 19.9039 13.0683 19.284L14.2132 11.4255L19.1621 10.2537L24.4342 11.4255Z" fill="#FFC682"/>
<path d="M35.8012 11.4255V21.1519C35.8012 21.2504 35.7988 21.3476 35.7941 21.4449C35.6418 24.4156 33.1844 26.7769 30.1762 26.7769H30.0591C27.0509 26.7769 24.5935 24.4156 24.4412 21.4449C24.4365 21.3476 24.4341 21.2504 24.4341 21.1519V11.4255L30.2348 10.2537L35.8012 11.4255Z" fill="#1D9EE1"/>
<path d="M47.051 21.1519C47.051 21.2504 47.0486 21.3476 47.0439 21.4449C46.9701 22.8828 46.3572 24.1765 45.4033 25.1292C44.3862 26.1476 42.9799 26.7769 41.4261 26.7769C38.4179 26.7769 35.9605 24.4156 35.8082 21.4449C35.8035 21.3476 35.8011 21.2504 35.8011 21.1519V11.4255L41.0159 10.2537L45.9049 11.4255L46.9443 19.2828C47.0147 19.9039 47.051 20.5273 47.051 21.1519Z" fill="#FFC682"/>
<path d="M59.1211 21.1519C59.1211 21.2504 59.1188 21.3476 59.1141 21.4449C58.9618 24.4156 56.5044 26.7769 53.4962 26.7769H52.6759C51.122 26.7769 49.7158 26.1476 48.6986 25.1292C47.7448 24.1765 47.1319 22.8828 47.058 21.4449C47.0534 21.3476 47.051 21.2504 47.051 21.1519C47.051 20.5273 47.0147 19.9039 46.9444 19.2828L45.9049 11.4255L50.1589 10.2537L54.4337 11.4255L58.7215 19.366C58.854 19.6449 58.9536 19.9379 59.0204 20.2367C59.0872 20.5367 59.1211 20.8426 59.1211 21.1519Z" fill="#1D9EE1"/>
<path d="M41.4673 33.7477C41.5195 33.4893 41.4528 33.2212 41.2859 33.0173C41.1189 32.8134 40.8693 32.695 40.6058 32.695H20.7952L20.7655 32.5551C20.4522 31.0745 19.1262 29.9998 17.6128 29.9998H16.1138C15.6285 29.9998 15.235 30.3931 15.235 30.8786C15.235 31.3641 15.6285 31.7575 16.1138 31.7575H17.6128C18.3007 31.7575 18.9033 32.246 19.0458 32.919L21.6574 45.2566C21.9041 46.422 22.7793 47.3334 23.8782 47.6697C23.7457 47.9839 23.6723 48.329 23.6723 48.6909C23.6723 50.1447 24.8551 51.3276 26.309 51.3276C27.7629 51.3276 28.9457 50.1447 28.9457 48.6909C28.9457 48.3828 28.892 48.087 28.7945 47.812H32.7296C32.632 48.087 32.5784 48.3828 32.5784 48.6909C32.5784 50.1447 33.7612 51.3276 35.2151 51.3276C36.669 51.3276 37.8518 50.1447 37.8518 48.6909C37.8518 48.3828 37.7981 48.087 37.7006 47.812H37.9104C38.3958 47.812 38.7893 47.4186 38.7893 46.9331C38.7893 46.4476 38.3958 46.0542 37.9104 46.0542H24.8102C24.1223 46.0542 23.5196 45.5658 23.3771 44.8928L23.1517 43.8277H27.5945C27.5954 43.8277 27.5962 43.8278 27.597 43.8278C27.5976 43.8278 27.5982 43.8277 27.5989 43.8277H33.2223C33.2228 43.8277 33.2234 43.8278 33.2241 43.8278C33.225 43.8278 33.2258 43.8277 33.2266 43.8277H38.7144C39.1328 43.8277 39.4932 43.5327 39.576 43.1226L40.4995 38.5452C40.5234 38.4751 40.5386 38.4012 40.544 38.3243L41.4673 33.7477ZM27.188 48.6908C27.188 49.1754 26.7938 49.5697 26.3091 49.5697C25.8244 49.5697 25.4302 49.1754 25.4302 48.6908C25.4302 48.2061 25.8244 47.8119 26.3091 47.8119C26.7938 47.8119 27.188 48.2062 27.188 48.6908ZM36.0941 48.6908C36.0941 49.1754 35.6999 49.5697 35.2152 49.5697C34.7306 49.5697 34.3363 49.1754 34.3363 48.6908C34.3363 48.2061 34.7306 47.8119 35.2152 47.8119C35.6999 47.8119 36.0941 48.2062 36.0941 48.6908ZM38.9408 37.3823H34.8046L35.1708 34.4527H39.5319L38.9408 37.3823ZM28.3739 42.0698L28.0077 39.1401H32.8134L32.4472 42.0698H28.3739ZM27.788 37.3823L27.4218 34.4527H33.3993L33.0331 37.3823H27.788ZM25.6504 34.4527L26.0166 37.3823H21.7874L21.1672 34.4527H25.6504ZM22.1595 39.1401H26.2364L26.6026 42.0698H22.7796L22.1595 39.1401ZM34.2186 42.0698L34.5848 39.1401H38.5861L37.995 42.0698H34.2186Z" fill="#50758D"/>
<path d="M0.886841 21.4451H12.9429C12.7906 24.4157 10.3332 26.777 7.32503 26.777H6.50473C4.95084 26.777 3.54461 26.1477 2.52744 25.1294C1.57355 24.1767 0.960668 22.8829 0.886841 21.4451Z" fill="#1D9EE1"/>
<path d="M12.957 21.4451H24.4271C24.2748 24.4157 21.8174 26.777 18.8092 26.777H18.5749C17.021 26.777 15.6147 26.1477 14.5976 25.1294C13.6437 24.1767 13.0308 22.8829 12.957 21.4451Z" fill="#FFAC5C"/>
<path d="M24.4412 21.4451H35.7941C35.6418 24.4157 33.1844 26.777 30.1763 26.777H30.0591C27.0509 26.777 24.5935 24.4157 24.4412 21.4451Z" fill="#1D9EE1"/>
<path d="M35.8082 21.4451H47.044C46.9701 22.8829 46.3573 24.1767 45.4034 25.1294C44.3862 26.1477 42.98 26.777 41.4261 26.777C38.4179 26.777 35.9605 24.4157 35.8082 21.4451Z" fill="#FFAC5C"/>
<path d="M59.1141 21.4451C58.9618 24.4157 56.5044 26.777 53.4962 26.777H52.6759C51.122 26.777 49.7158 26.1477 48.6986 25.1294C47.7448 24.1767 47.1319 22.8829 47.058 21.4451H59.1141Z" fill="#1D9EE1"/>
<path d="M5.56726 11.4256V5.56634C5.56726 2.97759 7.66594 0.878906 10.2547 0.878906H49.7463C52.335 0.878906 54.4337 2.97759 54.4337 5.56634V11.4256H5.56726Z" fill="#50758D"/>
<path d="M12.9325 7.83374C13.3264 7.37285 13.5653 6.77542 13.5653 6.12304C13.5653 4.66922 12.3825 3.48633 10.9286 3.48633C10.1087 3.48633 9.37512 3.8625 8.89113 4.45137C8.66778 4.71176 8.44453 4.97215 8.22141 5.23265C7.82742 5.69355 7.58871 6.29085 7.58871 6.94335C7.58871 8.39718 8.77149 9.58007 10.2254 9.58007C11.0454 9.58007 11.779 9.20378 12.263 8.61491C12.274 8.60191 12.7206 8.08124 12.9325 7.83374Z" fill="#2B597F"/>
<path d="M19.8757 7.86304C20.2697 7.40214 20.5085 6.80472 20.5085 6.15234C20.5085 4.69851 19.3258 3.51562 17.8718 3.51562C17.052 3.51562 16.3184 3.8918 15.8344 4.48066C15.611 4.74105 15.3878 5.00144 15.1647 5.26195C14.7707 5.72285 14.532 6.32015 14.532 6.97265C14.532 8.42648 15.7148 9.60937 17.1687 9.60937C17.9887 9.60937 18.7222 9.23308 19.2062 8.64421C19.2172 8.6312 19.6638 8.11054 19.8757 7.86304Z" fill="#2B597F"/>
<path d="M26.7897 7.86304C27.1836 7.40214 27.4225 6.80472 27.4225 6.15234C27.4225 4.69851 26.2397 3.51562 24.7858 3.51562C23.9659 3.51562 23.2323 3.8918 22.7483 4.48066C22.525 4.74105 22.3017 5.00144 22.0786 5.26195C21.6846 5.72285 21.4459 6.32015 21.4459 6.97265C21.4459 8.42648 22.6287 9.60937 24.0826 9.60937C24.9026 9.60937 25.6362 9.23308 26.1202 8.64421C26.1312 8.6312 26.5778 8.11054 26.7897 7.86304Z" fill="#2B597F"/>
<path d="M10.9285 8.75976C9.47458 8.75976 8.29181 7.57687 8.29181 6.12304C8.29181 4.66922 9.47458 3.48633 10.9285 3.48633C12.3825 3.48633 13.5652 4.66922 13.5652 6.12304C13.5652 7.57687 12.3824 8.75976 10.9285 8.75976Z" fill="#1D9EE1"/>
<path d="M17.8718 8.78906C16.4178 8.78906 15.2351 7.60617 15.2351 6.15234C15.2351 4.69851 16.4178 3.51562 17.8718 3.51562C19.3257 3.51562 20.5085 4.69851 20.5085 6.15234C20.5085 7.60617 19.3256 8.78906 17.8718 8.78906Z" fill="#FFC682"/>
<path d="M24.7857 8.78906C23.3318 8.78906 22.149 7.60617 22.149 6.15234C22.149 4.69851 23.3318 3.51562 24.7857 3.51562C26.2397 3.51562 27.4224 4.69851 27.4224 6.15234C27.4224 7.60617 26.2396 8.78906 24.7857 8.78906Z" fill="#93DDB7"/>
<path d="M51.1642 7.86298C51.5582 7.40209 51.797 6.80468 51.797 6.1523C51.797 4.6985 50.6143 3.51562 49.1603 3.51562H33.5746C32.7548 3.51562 32.0212 3.89179 31.5372 4.48065C31.3139 4.74104 31.0906 5.00142 30.8675 5.26193C30.4735 5.72282 30.2348 6.32011 30.2348 6.9726C30.2348 8.42641 31.4176 9.60928 32.8715 9.60928H48.4572C49.2772 9.60928 50.0107 9.233 50.4947 8.64414C50.5057 8.63113 50.9523 8.11048 51.1642 7.86298Z" fill="#2B597F"/>
<path d="M49.1603 8.78898H33.5746C32.1207 8.78898 30.938 7.60611 30.938 6.1523C30.938 4.6985 32.1207 3.51562 33.5746 3.51562H49.1603C50.6143 3.51562 51.797 4.6985 51.797 6.1523C51.797 7.60611 50.6141 8.78898 49.1603 8.78898Z" fill="#F5F5F5"/>
<path d="M17.8718 8.78906C16.4178 8.78906 15.2351 7.60617 15.2351 6.15234C15.2351 4.69851 16.4178 3.51562 17.8718 3.51562C19.3257 3.51562 20.5085 4.69851 20.5085 6.15234C20.5085 7.60617 19.3256 8.78906 17.8718 8.78906Z" fill="#FFC682"/>
<path d="M24.7857 8.78906C23.3318 8.78906 22.149 7.60617 22.149 6.15234C22.149 4.69851 23.3318 3.51562 24.7857 3.51562C26.2397 3.51562 27.4224 4.69851 27.4224 6.15234C27.4224 7.60617 26.2396 8.78906 24.7857 8.78906Z" fill="#93DDB7"/>
<path d="M8.29181 6.12304C8.29181 7.57687 9.47458 8.75976 10.9285 8.75976C12.3825 8.75976 13.5652 7.57687 13.5652 6.12304C13.5652 4.66922 12.3825 3.48633 10.9285 3.48633C9.47458 3.48633 8.29181 4.66922 8.29181 6.12304ZM11.8074 6.12304C11.8074 6.60773 11.4132 7.00195 10.9285 7.00195C10.4438 7.00195 10.0496 6.60773 10.0496 6.12304C10.0496 5.63836 10.4438 5.24414 10.9285 5.24414C11.4132 5.24414 11.8074 5.63847 11.8074 6.12304Z" fill="#303030"/>
<path d="M15.235 6.15234C15.235 7.60617 16.4178 8.78906 17.8718 8.78906C19.3257 8.78906 20.5085 7.60617 20.5085 6.15234C20.5085 4.69851 19.3257 3.51562 17.8718 3.51562C16.4178 3.51562 15.235 4.69851 15.235 6.15234ZM18.7507 6.15234C18.7507 6.63703 18.3564 7.03125 17.8718 7.03125C17.3871 7.03125 16.9929 6.63703 16.9929 6.15234C16.9929 5.66765 17.3871 5.27344 17.8718 5.27344C18.3564 5.27344 18.7507 5.66777 18.7507 6.15234Z" fill="#303030"/>
<path d="M22.149 6.15234C22.149 7.60617 23.3318 8.78906 24.7857 8.78906C26.2397 8.78906 27.4224 7.60617 27.4224 6.15234C27.4224 4.69851 26.2397 3.51562 24.7857 3.51562C23.3318 3.51562 22.149 4.69851 22.149 6.15234ZM25.6646 6.15234C25.6646 6.63703 25.2704 7.03125 24.7857 7.03125C24.301 7.03125 23.9068 6.63703 23.9068 6.15234C23.9068 5.66765 24.301 5.27344 24.7857 5.27344C25.2704 5.27344 25.6646 5.66777 25.6646 6.15234Z" fill="#303030"/>
<path d="M30.938 6.1523C30.938 7.60611 32.1207 8.78898 33.5746 8.78898H49.1603C50.6143 8.78898 51.797 7.60611 51.797 6.1523C51.797 4.6985 50.6143 3.51562 49.1603 3.51562H33.5746C32.1207 3.51562 30.938 4.6985 30.938 6.1523ZM50.0392 6.1523C50.0392 6.63698 49.645 7.0312 49.1603 7.0312H33.5746C33.09 7.0312 32.6957 6.63698 32.6957 6.1523C32.6957 5.66762 33.09 5.27341 33.5746 5.27341H49.1603C49.6449 5.27341 50.0392 5.66774 50.0392 6.1523Z" fill="#303030"/>
<path d="M60 21.152C60 20.4101 59.833 19.6633 59.5172 18.9921C59.5103 18.9774 59.503 18.9629 59.4953 18.9487L55.3126 11.2034V5.56632C55.3126 2.49711 52.8155 0 49.7462 0H43.7112C43.2258 0 42.8323 0.393393 42.8323 0.878893C42.8323 1.36439 43.2258 1.75779 43.7112 1.75779H49.7462C51.8462 1.75779 53.5548 3.46624 53.5548 5.56632V10.5467H6.44612V5.56632C6.44612 3.46624 8.15469 1.75779 10.2547 1.75779H39.6097C40.0951 1.75779 40.4886 1.36439 40.4886 0.878893C40.4886 0.393393 40.0951 0 39.6097 0H10.2547C7.18545 0 4.68834 2.49711 4.68834 5.56632V11.2035L2.82883 14.6469C2.59821 15.0741 2.75747 15.6071 3.18449 15.8379C3.31726 15.9095 3.46035 15.9435 3.60132 15.9435C3.91386 15.9435 4.21655 15.7764 4.37545 15.482L6.0914 12.3045H13.1968L12.1981 19.1576C12.1972 19.163 12.1965 19.1685 12.1958 19.1739C12.1129 19.8275 12.0709 20.493 12.0709 21.152C12.0709 23.769 9.94189 25.898 7.3249 25.898C4.44541 26.2246 1.73619 24.1353 1.75858 21.152C1.73115 20.4352 2.05904 19.704 2.42103 19.1008C2.65165 18.6737 2.49239 18.1406 2.06537 17.9098C1.63834 17.6796 1.10515 17.8386 0.874409 18.2656C0.352815 19.1267 -0.0194837 20.1354 0.000789445 21.152C0.000789445 24.1078 1.98345 26.6076 4.68822 27.3958V49.8625C4.68822 52.9317 7.18533 55.4289 10.2545 55.4289H49.7461C52.8153 55.4289 55.3125 52.9317 55.3125 49.8625V46.1712C55.3125 45.6857 54.9189 45.2923 54.4336 45.2923C53.9482 45.2923 53.5547 45.6857 53.5547 46.1712V49.8625C53.5547 51.9626 51.8461 53.6711 49.7461 53.6711H10.2545C8.15457 53.6711 6.446 51.9626 6.446 49.8625V27.6544C6.46557 27.6545 7.3249 27.6559 7.3249 27.6559C9.72486 27.6559 11.8238 26.3483 12.9509 24.409C13.699 25.6991 14.8822 26.7278 16.3388 27.2612C16.7827 27.4272 17.3 27.1983 17.4664 26.7379C17.6333 26.2821 17.399 25.7773 16.9433 25.6105C15.0804 24.9285 13.8287 23.1368 13.8287 21.152C13.8285 20.5668 13.8685 19.981 13.9391 19.4001L14.9731 12.3045H23.5551V21.152C23.5551 23.1368 22.3035 24.9285 20.4406 25.6105C19.9847 25.7773 19.7506 26.2821 19.9174 26.7379C20.0837 27.1982 20.6011 27.4272 21.045 27.2612C22.5017 26.7278 23.6848 25.6989 24.433 24.409C25.5599 26.3483 27.659 27.6559 30.0589 27.6559H30.1761C32.5754 27.6559 34.6737 26.3491 35.801 24.4108C36.9284 26.3491 39.0267 27.6559 41.4259 27.6559C43.8252 27.6559 45.9235 26.3491 47.0509 24.4108C48.1782 26.3491 50.2765 27.6559 52.6758 27.6559C52.6758 27.6559 53.5351 27.6547 53.5547 27.6544V42.0698C53.5547 42.5553 53.9482 42.9487 54.4336 42.9487C54.9189 42.9487 55.3125 42.5553 55.3125 42.0698V27.3959C58.0173 26.6077 60 24.1078 60 21.152ZM30.1762 25.898H30.059C27.4421 25.898 25.313 23.769 25.313 21.152V12.3045H34.9223V21.152C34.9223 23.769 32.7931 25.898 30.1762 25.898ZM41.4261 25.898C38.8091 25.898 36.68 23.769 36.68 21.152V12.3045H45.1346L46.0713 19.389C46.1359 19.9741 46.1723 20.5634 46.1722 21.152C46.1721 23.769 44.0429 25.898 41.4261 25.898ZM54.4435 25.8029C53.9212 25.9032 53.2161 25.9095 52.6759 25.898C50.0589 25.898 47.9299 23.769 47.9299 21.152C47.9299 20.4963 47.8919 19.8338 47.8169 19.1827C47.8163 19.1778 47.8157 19.1729 47.815 19.168L46.9075 12.3045H53.9094L57.9362 19.7613C58.1364 20.1945 58.2421 20.6748 58.2421 21.152C58.2422 23.4448 56.6082 25.3627 54.4435 25.8029Z" fill="#303030"/>
<path d="M27.597 43.8276C27.5976 43.8276 27.5981 43.8274 27.5988 43.8274H33.2222C33.2228 43.8274 33.2234 43.8276 33.2241 43.8276C33.2249 43.8276 33.2257 43.8274 33.2266 43.8274H38.7144C39.1327 43.8274 39.4932 43.5325 39.5759 43.1223L41.4673 33.7475C41.5868 33.2219 41.1445 32.6816 40.6058 32.6948H20.7952C20.5341 31.1543 19.1785 29.9959 17.6127 29.9995H16.1138C15.6284 29.9995 15.2349 30.3929 15.2349 30.8784C15.2349 31.3639 15.6284 31.7573 16.1138 31.7573H17.6127C18.3006 31.7573 18.9033 32.2457 19.0458 32.9187L21.6574 45.2564C21.9041 46.4218 22.7792 47.3332 23.8782 47.6695C23.7457 47.9837 23.6723 48.3288 23.6723 48.6906C23.6723 50.1445 24.8551 51.3273 26.309 51.3273C27.7629 51.3273 28.9457 50.1445 28.9457 48.6906C28.9457 48.3826 28.892 48.0868 28.7945 47.8118H32.7296C32.632 48.0868 32.5784 48.3826 32.5784 48.6906C32.5784 50.1445 33.7612 51.3273 35.2151 51.3273C36.669 51.3273 37.8518 50.1445 37.8518 48.6906C37.8518 48.3826 37.7981 48.0868 37.7006 47.8118H37.9104C38.3958 47.8118 38.7893 47.4184 38.7893 46.9329C38.7893 46.4474 38.3958 46.054 37.9104 46.054H24.8102C24.1223 46.054 23.5196 45.5655 23.3771 44.8925L23.1516 43.8274H27.5945C27.5953 43.8274 27.5961 43.8276 27.597 43.8276ZM27.188 48.6906C27.188 49.1753 26.7938 49.5695 26.3091 49.5695C25.8244 49.5695 25.4302 49.1753 25.4302 48.6906C25.4302 48.206 25.8244 47.8118 26.3091 47.8118C26.7938 47.8118 27.188 48.2061 27.188 48.6906ZM36.0941 48.6906C36.0941 49.1753 35.6999 49.5695 35.2152 49.5695C34.7305 49.5695 34.3363 49.1753 34.3363 48.6906C34.3363 48.206 34.7305 47.8118 35.2152 47.8118C35.6999 47.8118 36.0941 48.2061 36.0941 48.6906ZM32.8134 39.14L32.4472 42.0697H28.3739L28.0077 39.14H32.8134ZM27.788 37.3822L27.4218 34.4526H33.3993L33.0331 37.3822H27.788ZM34.2185 42.0697L34.5848 39.14H38.5861L37.995 42.0697H34.2185ZM38.9408 37.3822H34.8046L35.1708 34.4526H39.5319L38.9408 37.3822ZM25.6504 34.4526L26.0166 37.3822H21.7874L21.1672 34.4526H25.6504ZM22.1594 39.14H26.2363L26.6025 42.0697H22.7796L22.1594 39.14Z" fill="#303030"/>
</svg>
