<svg width="60" height="60" viewBox="0 0 60 60" fill="none" xmlns="http://www.w3.org/2000/svg">
<path d="M0.861084 0.744873H59.0923V8.25861H0.861084V0.744873Z" fill="#FFC682"/>
<path d="M0.861084 0.744873H7.43549V8.25861H0.861084V0.744873Z" fill="#FFAC5C"/>
<path d="M0.861084 8.25854H59.0923V58.976H0.861084V8.25854Z" fill="#F2F2F2"/>
<path d="M4.61792 12.0154H55.3354V55.2191H4.61792V12.0154Z" fill="#D9EEF7"/>
<path d="M4.61792 12.0154H11.1923V55.2191H4.61792V12.0154Z" fill="#AAC4DA"/>
<path d="M45.0042 33.6173C45.0042 41.9166 38.2764 48.6448 29.9767 48.6448C21.6774 48.6448 14.9492 41.9166 14.9492 33.6173C14.9492 25.3181 21.6774 18.5898 29.9767 18.5898C38.2764 18.5898 45.0042 25.3181 45.0042 33.6173Z" fill="#1D9EE1"/>
<path d="M23.4023 33.6173C23.4023 26.787 27.9634 21.0302 34.2032 19.2032C32.8615 18.8105 31.4456 18.5898 29.9767 18.5898C21.6774 18.5898 14.9492 25.3181 14.9492 33.6173C14.9492 41.9166 21.6774 48.6448 29.9767 48.6448C31.4456 48.6448 32.8615 48.4241 34.2032 48.0314C27.9634 46.204 23.4023 40.4476 23.4023 33.6173Z" fill="#1D9EE1"/>
<path d="M43.1488 0V1.7688H58.2312V7.51373H4.64127V9.28253H58.2312V58.2312H1.7688V1.7688H40.3313V0H0V60H60V0H43.1488Z" fill="#303030"/>
<path d="M3.7019 3.75684H5.58057V5.52563H3.7019V3.75684Z" fill="white"/>
<path d="M7.4588 3.75684H9.33746V5.52563H7.4588V3.75684Z" fill="#303030"/>
<path d="M11.2157 3.75684H13.0944V5.52563H11.2157V3.75684Z" fill="white"/>
<path d="M54.4194 3.75684H56.2981V5.52563H54.4194V3.75684Z" fill="white"/>
<path d="M56.2431 11.2705H3.75684V56.243H37.5137V54.4742H5.52563V13.0393H54.4743V54.4742H40.3312V56.243H56.2431V11.2705Z" fill="#303030"/>
<path d="M12.155 15.0273H7.51373V19.6686H9.28253V16.7961H12.155V15.0273Z" fill="#303030"/>
<path d="M47.845 52.4862H52.4862V47.845H50.7174V50.7174H47.845V52.4862Z" fill="#303030"/>
<path d="M50.6625 15.0273H52.5412V16.7961H50.6625V15.0273Z" fill="white"/>
<path d="M50.6625 18.7844H52.5412V20.5532H50.6625V18.7844Z" fill="#303030"/>
<path d="M46.9056 15.0273H48.7843V16.7961H46.9056V15.0273Z" fill="#303030"/>
<path d="M7.4588 50.7175H9.33746V52.4863H7.4588V50.7175Z" fill="#303030"/>
<path d="M11.2157 50.7175H13.0944V52.4863H11.2157V50.7175Z" fill="white"/>
<path d="M22.6103 47.845C24.8199 49.0086 27.334 49.6687 30 49.6687C32.666 49.6687 35.1801 49.0086 37.3897 47.845L37.4588 47.8084C42.4837 45.1305 45.9119 39.8369 45.9119 33.7569C45.9119 27.6768 42.4837 22.3833 37.4588 19.7054L37.3897 19.6687C35.1801 18.5051 32.666 17.8455 30 17.8455C27.334 17.8455 24.8199 18.5051 22.6103 19.6687L22.5412 19.7054C17.5168 22.3833 14.0881 27.6773 14.0881 33.7569C14.0881 39.8369 17.5168 45.1309 22.5412 47.8088V47.8455H22.6103V47.845ZM24.31 46.7033V42.155H29.1156V45.0275H30.8844V42.155H35.69V46.7033C33.9478 47.4719 32.0233 47.8999 30 47.8999C27.9767 47.8999 26.0518 47.4719 24.31 46.7033ZM15.8853 34.6413H22.5412V40.3862H17.5099C16.5866 38.6531 16.0135 36.7067 15.8853 34.6413ZM24.31 34.6413H29.1156V40.3862H24.31V34.6413ZM30.8844 32.8725V27.1275H35.69V32.8725H30.8844ZM35.69 34.6413V40.3862H30.8844V34.6413H35.69ZM30.8844 25.3587V19.6426C32.5845 19.7479 34.2036 20.1549 35.69 20.8104V25.3587H30.8844ZM29.1156 25.3587H24.31V20.8104C25.7959 20.1549 27.4155 19.7479 29.1156 19.6426V25.3587ZM29.1156 27.1275V32.8725H24.31V27.1275H29.1156ZM37.4588 45.7677V42.155H41.3722C40.3088 43.5915 38.9799 44.8196 37.4588 45.7677ZM42.4896 40.3862H37.4588V34.6413H41.2706V32.8725H37.4588V27.1275H42.4896C43.5439 29.106 44.1431 31.3628 44.1431 33.7569C44.1431 36.151 43.5439 38.4077 42.4896 40.3862ZM41.3722 25.3587H37.4588V21.7461C38.9799 22.6941 40.3088 23.9223 41.3722 25.3587ZM22.5412 21.7461V25.3587H20.6076V27.1275H22.5412V32.8725H15.8853C16.1765 28.179 18.7665 24.0985 22.5412 21.7461ZM18.6278 42.155H22.5412V45.7677C21.0201 44.8196 19.6912 43.5915 18.6278 42.155Z" fill="#303030"/>
</svg>
