<svg width="60" height="60" viewBox="0 0 60 60" fill="none" xmlns="http://www.w3.org/2000/svg">
<path fill-rule="evenodd" clip-rule="evenodd" d="M59.1211 36.4814V23.2979C59.1211 22.3312 58.3301 21.54 57.3633 21.54H2.63672C1.66992 21.54 0.878906 22.3311 0.878906 23.2979V36.4814C0.878906 37.4482 1.67004 38.2393 2.63672 38.2393H57.3633C58.33 38.2393 59.1211 37.4482 59.1211 36.4814Z" fill="#FFC277"/>
<path fill-rule="evenodd" clip-rule="evenodd" d="M49.3754 38.2393H10.6248C13.8597 45.7357 21.3166 50.9834 30.0001 50.9834C38.6835 50.9834 46.1405 45.7357 49.3754 38.2393ZM49.3754 21.54H10.6248C13.8597 14.0436 21.3166 8.7959 30.0001 8.7959C38.6835 8.7959 46.1405 14.0436 49.3754 21.54Z" fill="white"/>
<path fill-rule="evenodd" clip-rule="evenodd" d="M49.3754 38.2393H10.6248C11.0193 39.1534 11.4771 40.034 11.9917 40.876H48.0085C48.5232 40.034 48.9808 39.1536 49.3754 38.2393ZM11.9917 18.9033H48.0085C48.5232 19.7452 48.9809 20.6257 49.3755 21.54H10.6248C11.0193 20.6257 11.4771 19.7453 11.9917 18.9033Z" fill="#1D9EE1"/>
<path fill-rule="evenodd" clip-rule="evenodd" d="M30 50.9834C21.3165 50.9834 13.8596 45.7357 10.6246 38.2393H5.18093L5.00854 44.3184L11.8666 48.0228L15.571 54.8808L23.3626 54.6599L30 58.7471L36.6372 54.66L44.4288 54.8809L48.1332 48.0229L54.9912 44.3185L54.8189 38.2394H49.3751C46.1404 45.7357 38.6834 50.9834 30 50.9834ZM30 8.7959C21.3165 8.7959 13.8595 14.0436 10.6246 21.54H5.18104L5.00866 15.4609L11.8667 11.7565L15.5711 4.89848L23.3627 5.11937L30 1.03223L36.6372 5.11926L44.4288 4.89836L48.1332 11.7564L54.9912 15.4608L54.8189 21.5399H49.3751C46.1404 14.0436 38.6835 8.7959 30 8.7959Z" fill="#FFC277"/>
<path fill-rule="evenodd" clip-rule="evenodd" d="M11.9916 40.876C11.4769 40.0341 11.0191 39.1536 10.6246 38.2393H5.18097L5.1062 40.876H11.9916ZM54.8937 40.876L54.8189 38.2393H49.3752C48.9806 39.1534 48.5229 40.034 48.0082 40.876H54.8937ZM5.10632 18.9033H11.9917C11.477 19.7452 11.0192 20.6257 10.6247 21.54H5.18108L5.10632 18.9033ZM48.0084 18.9033H54.8938L54.819 21.54H49.3753C48.9809 20.6257 48.5231 19.7453 48.0084 18.9033Z" fill="#F69500"/>
<path fill-rule="evenodd" clip-rule="evenodd" d="M5.27344 21.54H2.63672C1.66992 21.54 0.878906 22.3311 0.878906 23.2979V36.4814C0.878906 37.4482 1.67004 38.2393 2.63672 38.2393H5.27344C4.30676 38.2393 3.51562 37.4482 3.51562 36.4814V23.2979C3.51562 22.3311 4.30664 21.54 5.27344 21.54Z" fill="#F69500"/>
<path d="M29.1211 37.3604H30.8789V39.1182H29.1211V37.3604Z" fill="#303030"/>
<path d="M57.3633 20.6611H55.7232L55.8852 14.9448L48.7819 11.1079L44.9449 4.00453L36.8748 4.23316L30 0L23.1253 4.23305L15.0551 4.00441L11.2182 11.1079L4.1148 14.9448L4.27688 20.6611H2.63672C1.18277 20.6611 0 21.8439 0 23.2977V36.4814C0 37.9352 1.18277 39.1181 2.63672 39.1181H4.27688L4.1148 44.8344L11.2182 48.6712L15.0552 55.7747L23.1254 55.5459L30 59.7792L36.8746 55.5461L44.9448 55.7748L48.7816 48.6714L55.8851 44.8345L55.7231 39.1182H57.3633C58.8171 39.1182 60 37.9354 60 36.4815V23.2977C60 21.8439 58.8171 20.6611 57.3633 20.6611ZM5.90262 15.977L12.5154 12.4049L16.0873 5.79223L23.6002 6.00504L30 2.06438L36.3998 6.00516L43.9125 5.79234L47.4845 12.405L54.0973 15.9771L53.9646 20.6612H49.944C46.3506 12.9001 38.5862 7.91695 30 7.91695C26.0114 7.91695 22.1048 8.9973 18.7025 11.0413L19.6078 12.548C22.7367 10.6684 26.3303 9.67477 30 9.67477C37.6235 9.67477 44.5429 13.9447 47.9886 20.6611H12.0113C13.47 17.8227 15.5882 15.3579 18.1959 13.4784L17.1681 12.0523C14.0917 14.2696 11.6439 17.2378 10.0574 20.6611H6.03539L5.90262 15.977ZM54.0974 43.8022L47.4846 47.3742L43.9126 53.987L36.4 53.7741L30 57.7148L23.6002 53.7739L16.0873 53.9869L12.5154 47.3741L5.90262 43.8021L6.03539 39.118H10.056C13.6494 46.8791 21.4139 51.8623 30 51.8623C38.5861 51.8623 46.3506 46.8791 49.944 39.1181H53.9646L54.0974 43.8022ZM58.2422 36.4814C58.2422 36.9661 57.848 37.3603 57.3633 37.3603H32.6367V39.1181H47.9888C44.5429 45.8345 37.6234 50.1045 30 50.1045C22.3766 50.1045 15.4571 45.8345 12.0114 39.1181H27.3633V37.3603H2.63672C2.15215 37.3603 1.75781 36.9661 1.75781 36.4814V23.2977C1.75781 22.8131 2.15215 22.4189 2.63672 22.4189H57.3633C57.848 22.4189 58.2422 22.8131 58.2422 23.2977V36.4814Z" fill="#303030"/>
<path d="M35.2733 13.1902H37.0311V14.948H35.2733V13.1902Z" fill="#303030"/>
<path d="M38.7889 14.9482H40.5468V16.7061H38.7889V14.9482Z" fill="#303030"/>
<path d="M28.4029 25.4593L25.202 33.8636L26.8448 34.4893L27.6077 32.4863H30.6887L31.444 34.4876L33.0886 33.867L29.915 25.4575L28.4029 25.4593ZM28.277 30.7285L29.1551 28.4228L30.0252 30.7285H28.277Z" fill="#303030"/>
<path d="M41.5904 30.7783L38.2476 25.4582H36.5707V34.3206H38.3285V28.891L41.6713 34.2109H43.3482V25.4448H41.5904V30.7783Z" fill="#303030"/>
<path d="M49.6056 25.4448H46.7705V34.1099H49.6705L49.6782 34.1098C51.7616 34.0733 53.2739 32.2514 53.2739 29.7774C53.2739 27.186 51.7997 25.4448 49.6056 25.4448ZM49.6543 32.3522H48.5283V27.2028H49.6056C50.5292 27.2028 51.5161 27.8792 51.5161 29.7776C51.5161 31.5197 50.5523 32.3325 49.6543 32.3522Z" fill="#303030"/>
<path d="M11.7801 29.3508C12.0388 28.955 12.1892 28.4825 12.1892 27.9755C12.1892 26.5877 11.0603 25.4587 9.6724 25.4587H6.72607V34.3343H10.0337C11.5747 34.3343 12.8285 33.0769 12.8285 31.531C12.8285 30.6503 12.4189 29.8634 11.7801 29.3508ZM8.48389 27.2166H9.67252C10.091 27.2166 10.4315 27.557 10.4315 27.9755C10.4315 28.395 10.0911 28.7364 9.67264 28.7364H8.79373H8.48389V27.2166ZM10.0337 32.5766H8.48389V30.4942H10.0337C10.6054 30.4942 11.0707 30.9594 11.0707 31.5312C11.0707 32.1076 10.6054 32.5766 10.0337 32.5766Z" fill="#303030"/>
<path d="M21.8567 28.1875C21.8567 26.6828 20.5857 25.4587 19.0234 25.4587H16.252L16.2505 34.3342L18.0083 34.3344L18.0089 31.3864L20.6584 34.5185L22.0004 33.3832L19.82 30.8057C20.9955 30.4733 21.8567 29.4258 21.8567 28.1875ZM18.0095 27.2164H19.0233C19.6063 27.2164 20.0988 27.661 20.0988 28.1873C20.0988 28.7136 19.6063 29.1582 19.0185 29.1582L18.009 29.1637L18.0095 27.2164Z" fill="#303030"/>
</svg>
