<svg width="57" height="60" viewBox="0 0 57 60" fill="none" xmlns="http://www.w3.org/2000/svg">
<path d="M25.9691 31.5279C26.9098 32.2077 28.0665 32.6086 29.3171 32.6086H40.0156V37.796L46.7972 32.6086H49.7229C52.8767 32.6086 55.4334 30.0597 55.4334 26.9155V6.57199C55.4334 3.42775 52.8767 0.878906 49.7229 0.878906H29.3171C26.1633 0.878906 23.6066 3.42775 23.6066 6.57199V31.5279H25.9691Z" fill="#F7F3F1"/>
<path d="M49.7229 0.878906H44.8317C47.9855 0.878906 50.5422 3.42787 50.5422 6.57199V26.9155C50.5422 30.0597 47.9855 32.6086 44.8317 32.6086H41.906L40.0155 34.0546V37.796L46.7972 32.6086H49.7229C52.8767 32.6086 55.4334 30.0597 55.4334 26.9155V6.57199C55.4335 3.42787 52.8768 0.878906 49.7229 0.878906Z" fill="#EBE1DC"/>
<path d="M35.1197 24.264L35.7083 24.7404C36.6415 25.4958 37.8058 25.908 39.0063 25.908H47.362C48.1541 25.908 48.7919 25.2472 48.7542 24.4468C48.7189 23.6972 48.7558 16.8701 48.7558 16.1004C48.7558 15.3308 48.1318 14.7067 47.362 14.7067L41.696 14.6895L42.3897 13.0466C43.1105 11.3394 42.994 9.39355 42.0746 7.78457C41.8146 7.32958 41.2297 7.18026 40.7833 7.45487C40.5091 7.62364 40.3419 7.92263 40.3419 8.24471C40.3419 9.71809 39.804 11.1407 38.8292 12.2455L35.2163 16.3337H33.8991V24.2638H35.1197V24.264Z" fill="#FFD36C"/>
<path d="M34.5557 25.5212H30.7408C30.4887 25.5212 30.2842 25.3168 30.2842 25.0646V15.3397C30.2842 15.0875 30.4886 14.8831 30.7408 14.8831H34.5557C34.8079 14.8831 35.0123 15.0875 35.0123 15.3397V25.0646C35.0122 25.3167 34.8078 25.5212 34.5557 25.5212Z" fill="#1D9EE1"/>
<path d="M25.9773 41.7233V21.1912C25.9773 18.7117 23.9611 16.7017 21.4739 16.7017H5.38225C2.89517 16.7017 0.878906 18.7117 0.878906 21.1912V37.2337C0.878906 39.7132 2.89505 41.7233 5.38225 41.7233H14.2224V45.8524L19.5703 41.7233H25.9773Z" fill="#1D9EE1"/>
<path d="M21.474 16.7017H15.0971C17.5842 16.7017 19.6004 18.7117 19.6004 21.1912V41.7233H25.9774V21.1912C25.9773 18.7117 23.9611 16.7017 21.474 16.7017Z" fill="#1D9EE1"/>
<path d="M34.6885 38.4429H23.2691C21.5041 38.4429 20.0732 39.8692 20.0732 41.6288V53.0134C20.0732 54.7729 21.5041 56.1993 23.2691 56.1993H29.5424V59.1297L33.3376 56.1994H34.6885C36.4535 56.1994 37.8843 54.7731 37.8843 53.0135V41.629C37.8842 39.8694 36.4534 38.4429 34.6885 38.4429Z" fill="#FA9084"/>
<path d="M34.6885 38.4429H29.7659C31.5309 38.4429 32.9617 39.8692 32.9617 41.6288V53.0135C32.9617 54.7731 31.5309 56.1994 29.7659 56.1994H29.5424V59.1297L33.3376 56.1994H34.6885C36.4535 56.1994 37.8843 54.7731 37.8843 53.0135V41.6288C37.8842 39.8694 36.4535 38.4429 34.6885 38.4429Z" fill="#FF6CB5"/>
<path d="M28.9787 51.1893C31.7266 49.7326 33.1503 48.493 33.1503 46.5728C33.1503 43.9241 29.9056 43.2619 28.9787 45.2485C27.9191 43.1958 24.807 43.9242 24.807 46.5728C24.807 48.493 26.2307 49.7325 28.9787 51.1893Z" fill="#F7F3F1"/>
<path d="M49.723 0H47.1433C46.0094 0 46.0094 1.75806 47.1433 1.75806H49.723C52.387 1.75806 54.5545 3.91767 54.5545 6.57211V26.9155C54.5545 29.5701 52.3872 31.7297 49.723 31.7297H46.7972C46.6042 31.7297 46.4165 31.7932 46.2631 31.9105L40.8945 36.0171V32.6087C40.8945 32.1232 40.501 31.7297 40.0154 31.7297H29.317C28.4409 31.7297 27.5989 31.4984 26.8563 31.0588V21.1911C26.8563 19.3428 25.9149 17.7098 24.4854 16.7437V6.57211C24.4854 3.91767 26.6528 1.75806 29.317 1.75806H41.6347C42.7686 1.75806 42.7686 0 41.6347 0H29.317C25.6834 0 22.7273 2.94827 22.7273 6.57211V15.9711C22.3248 15.875 21.9055 15.8226 21.4739 15.8226H5.38226C2.41453 15.8226 0 18.2309 0 21.1911V23.0892C0 24.2231 1.75806 24.2231 1.75806 23.0892V21.1911C1.75806 19.2003 3.38381 17.5806 5.38226 17.5806H21.4741C23.4725 17.5806 25.0984 19.2003 25.0984 21.1911V31.4088C25.0878 31.4864 25.0883 31.5645 25.0984 31.6415V37.2336C25.0984 37.3441 25.0917 37.4542 25.0817 37.5636H23.2689C21.2714 37.5636 19.6062 39.0054 19.2609 40.9002C19.181 40.9303 19.1042 40.9724 19.033 41.0273L15.1014 44.063V41.7231C15.1014 41.2376 14.708 40.8441 14.2224 40.8441H5.38226C3.38381 40.8441 1.75806 39.2244 1.75806 37.2336V28.3634C1.75806 27.2296 0 27.2296 0 28.3634V37.2337C0 40.1939 2.41453 42.6022 5.38226 42.6022H13.3435V45.8523C13.3435 46.5574 14.1997 46.9804 14.7598 46.5482L19.1942 43.1243V53.0134C19.1942 55.2549 21.0222 57.0784 23.269 57.0784H28.6634V59.1296C28.6634 59.8344 29.5195 60.2579 30.0795 59.8254L33.6374 57.0784H34.6885C36.9353 57.0784 38.7633 55.2548 38.7633 53.0134V51.4527C38.7633 50.3189 37.0053 50.3189 37.0053 51.4527V53.0134C37.0053 54.2855 35.966 55.3203 34.6885 55.3203H33.3375C33.143 55.3203 32.9541 55.3848 32.8003 55.5035L30.4213 57.3402V56.1992C30.4213 55.7138 30.0279 55.3202 29.5423 55.3202H23.2689C21.9915 55.3202 20.9521 54.2853 20.9521 53.0133V41.6287C20.9521 40.3566 21.9914 39.3218 23.2689 39.3218H34.6885C35.9659 39.3218 37.0053 40.3567 37.0053 41.6287V45.9441C37.0053 47.0779 38.7633 47.0779 38.7633 45.9441V41.6289C38.7633 39.3873 36.9353 37.5639 34.6885 37.5639H26.8463C26.853 37.454 26.8564 33.0142 26.8564 33.0142C27.6315 33.3259 28.4625 33.4878 29.3171 33.4878H39.1365V37.7963C39.1365 38.4996 39.9891 38.9231 40.5496 38.4945L47.095 33.4878H49.7231C53.3566 33.4878 56.3127 30.5396 56.3127 26.9156V6.57211C56.3126 2.94827 53.3564 0 49.723 0V0Z" fill="#303030"/>
<path d="M41.7164 6.49458C40.6003 6.20966 39.4629 7.09151 39.4629 8.2448C39.4629 9.50486 39.0037 10.7192 38.1705 11.6635L35.7486 14.4041C35.5918 14.1635 35.3208 14.0042 35.0122 14.0042H30.2842C29.7986 14.0042 29.4052 14.3978 29.4052 14.8832V25.5213C29.4052 26.0068 29.7986 26.4003 30.2842 26.4003H35.0122C35.3675 26.4003 35.6727 26.1892 35.8113 25.8862C36.7685 26.471 37.8777 26.7872 39.0063 26.7872H47.362C48.6388 26.7872 49.6922 25.6793 49.6323 24.4057C49.6057 23.8418 49.6347 16.2688 49.6347 16.1006C49.6347 14.8475 48.6152 13.8278 47.3646 13.8278L43.0195 13.8148L43.1994 13.3888C44.0216 11.4417 43.8862 9.18384 42.8377 7.34877C42.593 6.92004 42.1946 6.61683 41.7164 6.49458C42.1946 6.61683 41.238 6.37246 41.7164 6.49458C42.1946 6.61683 40.6004 6.20966 41.7164 6.49458ZM34.1332 24.6423H31.1632V15.7623H34.1332V24.6423ZM47.362 15.5858C47.6459 15.5858 47.8768 15.8167 47.8768 16.1005C47.8768 16.2678 47.875 16.7217 47.8727 17.3372C47.8597 20.7351 47.851 23.9533 47.8761 24.4883C47.8852 24.6813 47.7913 24.81 47.7346 24.8695C47.6364 24.9724 47.5041 25.029 47.362 25.029H39.0063C38.0103 25.029 37.0355 24.6839 36.2613 24.0572L35.8912 23.7576V16.8975L39.4884 12.8271C40.6057 11.5609 41.221 9.93348 41.221 8.24468C41.221 8.19498 41.2889 8.18209 41.3114 8.22077C42.0898 9.58303 42.1901 11.2592 41.5799 12.7047L40.8861 14.3477C40.7716 14.6188 40.8005 14.9291 40.9626 15.1745C41.1249 15.4199 41.3991 15.5678 41.6932 15.5688L47.362 15.5858Z" fill="#303030"/>
<path d="M7.52686 30.5315C7.04128 30.5315 6.64783 30.9251 6.64783 31.4106C6.64783 31.896 7.04128 32.2896 7.52686 32.2896H10.118L9.63396 35.2173C9.55473 35.6962 9.87892 36.1487 10.3578 36.2279C10.4065 36.236 10.4546 36.2399 10.5022 36.2399C10.9246 36.2399 11.2972 35.9345 11.3685 35.5041L11.8999 32.2897H14.0204L13.5364 35.2174C13.4572 35.6963 13.7814 36.1488 14.2602 36.228C14.3089 36.2361 14.3571 36.24 14.4046 36.24C14.827 36.24 15.1996 35.9347 15.2709 35.5042L15.8023 32.2898H19.3293C19.8149 32.2898 20.2084 31.8963 20.2084 31.4108C20.2084 30.9254 19.8149 30.5318 19.3293 30.5318H16.093L16.4475 28.3874H19.3293C19.8149 28.3874 20.2084 27.9938 20.2084 27.5084C20.2084 27.0229 19.8149 26.6293 19.3293 26.6293H16.7382L17.2222 23.7017C17.3015 23.2228 16.9773 22.7703 16.4984 22.691C16.0189 22.6116 15.567 22.936 15.4877 23.4149L14.9563 26.6292H12.8357L13.3198 23.7016C13.399 23.2227 13.0748 22.7702 12.5959 22.6909C12.1159 22.6115 11.6646 22.9359 11.5853 23.4148L11.0539 26.6291H7.52686C7.04128 26.6291 6.64783 27.0227 6.64783 27.5081C6.64783 27.9936 7.04128 28.3872 7.52686 28.3872H10.7632L10.4087 30.5315H7.52686ZM12.5452 28.3872H14.6658L14.3112 30.5315H12.1907L12.5452 28.3872Z" fill="#303030"/>
<path d="M28.9681 43.8573C28.2583 43.2729 27.314 43.0423 26.3667 43.2726C25.1529 43.5674 23.9279 44.7022 23.9279 46.5726C23.9279 47.7368 24.3528 48.7474 25.2268 49.662C25.9407 50.4092 26.9709 51.1197 28.567 51.9659C28.6958 52.0342 28.8373 52.0684 28.9787 52.0684C29.1202 52.0684 29.2617 52.0342 29.3905 51.9659C32.175 50.4897 34.0294 49.0077 34.0294 46.5726C34.0294 44.692 32.7611 43.5688 31.5039 43.29C30.5595 43.0804 29.6439 43.3029 28.9681 43.8573ZM32.2713 46.5726C32.2713 47.886 31.4001 48.8573 28.9786 50.1903C26.5572 48.8572 25.6859 47.8859 25.6859 46.5726C25.6859 45.5954 26.2518 45.1097 26.7814 44.981C26.879 44.9573 26.9836 44.944 27.0911 44.944C27.4894 44.944 27.9274 45.128 28.1975 45.6515C28.3514 45.9495 28.6624 46.1342 28.9961 46.1273C29.3312 46.1206 29.6335 45.9239 29.7752 45.6201C30.0596 45.0104 30.6578 44.9032 31.1229 45.0064C31.6782 45.1294 32.2713 45.6056 32.2713 46.5726Z" fill="#303030"/>
</svg>
