<svg width="60" height="60" viewBox="0 0 60 60" fill="none" xmlns="http://www.w3.org/2000/svg">
<path d="M22.6369 11.7572C22.6369 5.74905 17.7663 0.878906 11.7577 0.878906C5.74951 0.878906 0.878906 5.74905 0.878906 11.7572C0.878906 17.7649 5.74951 22.635 11.7577 22.635C17.7663 22.635 22.6369 17.7649 22.6369 11.7572Z" fill="#64E8FF"/>
<path d="M11.7577 0.878906C11.1255 0.878906 10.5061 0.93338 9.90326 1.03683C15.0279 1.91711 18.9276 6.38168 18.9276 11.7572C18.9276 17.1327 15.0279 21.5968 9.90326 22.4771C10.5061 22.5806 11.1255 22.635 11.7577 22.635C17.7663 22.635 22.6369 17.7649 22.6369 11.7572C22.6369 5.74905 17.7663 0.878906 11.7577 0.878906Z" fill="#0FD9FF"/>
<path d="M59.1037 11.7572C59.1037 5.74905 54.2331 0.878906 48.2249 0.878906C42.2168 0.878906 37.3462 5.74905 37.3462 11.7572C37.3462 17.7649 42.2168 22.635 48.2249 22.635C54.2331 22.635 59.1037 17.7649 59.1037 11.7572Z" fill="#6193FF"/>
<path d="M59.0996 11.4454C58.9275 5.44004 53.9195 0.711341 47.9137 0.88346C47.3415 0.899939 46.7807 0.960364 46.235 1.06107C51.1684 1.97431 54.9687 6.22785 55.1184 11.4454C55.274 16.8786 51.4174 21.4952 46.2341 22.4528C46.9785 22.5906 47.7489 22.6533 48.5362 22.6304C54.5421 22.4588 59.2712 17.4508 59.0996 11.4454Z" fill="#407BFF"/>
<path d="M22.6369 48.2433C22.6369 42.2351 17.7663 37.365 11.7577 37.365C5.74951 37.365 0.878906 42.2351 0.878906 48.2433C0.878906 54.251 5.74951 59.1211 11.7577 59.1211C17.7663 59.1211 22.6369 54.251 22.6369 48.2433Z" fill="#FF6969"/>
<path d="M11.7577 37.365C10.9154 37.365 10.0951 37.4607 9.30774 37.6424C14.1358 38.7534 17.7361 43.0779 17.7361 48.2433C17.7361 53.4082 14.1358 57.7327 9.30774 58.8442C10.0951 59.0255 10.9154 59.1211 11.7577 59.1211C17.7663 59.1211 22.6369 54.251 22.6369 48.2433C22.6369 42.2351 17.7663 37.365 11.7577 37.365Z" fill="#FF4848"/>
<path d="M59.1037 48.2433C59.1037 42.2351 54.2331 37.365 48.2249 37.365C42.2168 37.365 37.3462 42.2351 37.3462 48.2433C37.3462 54.251 42.2168 59.1211 48.2249 59.1211C54.2331 59.1211 59.1037 54.251 59.1037 48.2433Z" fill="#FF95C2"/>
<path d="M48.2249 37.365C47.4738 37.365 46.7404 37.441 46.0323 37.5861C50.9894 38.6005 54.7179 42.9863 54.7179 48.2433C54.7179 53.4998 50.9894 57.8856 46.0318 58.9C46.7404 59.0451 47.4738 59.1211 48.2249 59.1211C54.2331 59.1211 59.1037 54.251 59.1037 48.2433C59.1037 42.2356 54.2331 37.365 48.2249 37.365Z" fill="#FF758E"/>
<path d="M16.8993 7.52331C16.4841 7.77325 16.0391 7.971 15.574 8.11108C14.7084 7.1159 13.2001 7.01062 12.2049 7.87625C11.6748 8.33721 11.3745 9.00784 11.3841 9.71005V10.2433C9.57413 10.29 7.85614 9.47247 6.75156 8.05203C6.67648 7.95544 6.52405 7.9797 6.48376 8.09506C6.12167 9.13189 5.13199 12.9277 9.2514 14.7583C8.32764 15.3854 7.25464 15.7498 6.14731 15.8175C5.98526 15.8276 5.94223 16.046 6.08963 16.1137C10.7689 18.2753 16.1815 15.5836 16.1815 9.69448C16.181 9.54571 16.1668 9.39785 16.1389 9.25183C16.5802 8.81695 16.9162 8.28915 17.1236 7.70916C17.1725 7.57366 17.0224 7.4487 16.8993 7.52331Z" fill="white"/>
<path d="M9.43311 48.1238V44.6686C9.43311 44.4141 9.70868 44.2552 9.92886 44.3825L12.9203 46.1101L15.9114 47.8381C16.1316 47.9654 16.1316 48.2831 15.9114 48.4103L12.9203 50.1384L9.92886 51.866C9.70868 51.9932 9.43311 51.8339 9.43311 51.5794V48.1238Z" fill="white"/>
<path d="M27.6736 32.0952H23.6494C23.161 32.0952 22.7655 31.6992 22.7655 31.2112V26.5951C22.7655 26.1071 23.161 25.7112 23.6494 25.7112H27.6736C27.7496 25.7112 27.8114 25.773 27.8114 25.849V31.9574C27.8114 32.0334 27.7496 32.0952 27.6736 32.0952Z" fill="#FF95C2"/>
<path d="M36.3519 35.1649C35.1553 34.432 33.6648 33.6451 31.8882 32.9621C30.3978 32.3894 29.0153 32.0081 27.8114 31.7499C27.8114 29.8521 27.8114 27.9542 27.8114 26.0563C29.0185 25.7995 30.4088 25.4177 31.9093 24.84C33.6795 24.1579 35.1631 23.3719 36.3519 22.6414V35.1649Z" fill="#E5F4FF"/>
<path d="M52.3622 37.2382C53.1184 34.904 53.5025 32.4696 53.5025 29.989C53.5025 27.5175 53.1212 25.0919 52.3695 22.765C54.0225 22.1443 55.5254 21.1505 56.7732 19.8289C58.9297 17.5461 60.0677 14.5596 59.978 11.4207C59.7922 4.94019 54.3695 -0.179901 47.888 0.00503541C44.7487 0.0947571 41.8327 1.40167 39.6762 3.685C38.5872 4.8381 37.7586 6.17065 37.2162 7.61169C34.8889 6.8605 32.4632 6.47919 29.9908 6.47919C27.5171 6.47919 25.0896 6.86142 22.7609 7.61353C21.0814 3.1691 16.783 0 11.7577 0C5.27435 0 0 5.27435 0 11.7572C0 16.7821 3.16956 21.08 7.61398 22.7591C6.86142 25.0882 6.47964 27.5157 6.47964 29.989C6.47964 32.4696 6.86371 34.904 7.61993 37.2382C3.1723 38.9159 0 43.2156 0 48.2428C0 50.0125 0.383606 51.714 1.14029 53.2997C1.34949 53.7378 1.87408 53.9236 2.31216 53.7144C2.74979 53.5052 2.93564 52.9807 2.7269 52.5426C2.08374 51.1949 1.75781 49.7484 1.75781 48.2428C1.75781 42.7295 6.2439 38.2439 11.7577 38.2439C17.2719 38.2439 21.758 42.7295 21.758 48.2428C21.758 53.7566 17.2719 58.2422 11.7577 58.2422C9.24271 58.2422 6.83899 57.3051 4.98962 55.6036C4.63211 55.275 4.07593 55.2983 3.74771 55.6554C3.41904 56.0129 3.44193 56.5686 3.79944 56.8973C5.97427 58.8982 8.80051 60 11.7577 60C16.7903 60 21.0942 56.8213 22.7682 52.3668C25.0941 53.1175 27.5194 53.4988 29.9908 53.4988C32.4628 53.4988 34.8885 53.1175 37.2144 52.3672C38.8884 56.8217 43.1923 60 48.2249 60C54.7083 60 59.9826 54.7256 59.9826 48.2428C59.9826 43.2156 56.8103 38.9154 52.3622 37.2382ZM40.9543 4.89166C42.7881 2.94983 45.2687 1.83838 47.9388 1.76193C48.0359 1.75919 48.132 1.75781 48.2291 1.75781C53.6115 1.75781 58.0659 6.05667 58.2207 11.4706C58.2971 14.1403 57.3294 16.68 55.4956 18.6223C53.6618 20.5641 51.1812 21.6756 48.511 21.752C48.414 21.7548 48.3174 21.7561 48.2208 21.7561C42.8384 21.7561 38.3839 17.4573 38.2292 12.0433C38.1523 9.37363 39.1205 6.8335 40.9543 4.89166ZM29.9908 51.741C27.6869 51.741 25.4269 51.3831 23.2613 50.679C23.4274 49.8926 23.5158 49.0782 23.5158 48.2433C23.5158 41.7604 18.241 36.4861 11.7577 36.4861C10.9177 36.4861 10.0983 36.5753 9.30771 36.7438C8.59772 34.5699 8.23746 32.3016 8.23746 29.989C8.23746 27.6842 8.59589 25.4228 9.3013 23.2553C10.0937 23.4242 10.9154 23.5139 11.7577 23.5139C13.7718 23.5139 15.759 22.9962 17.5053 22.0157C17.9283 21.7781 18.0789 21.2425 17.8413 20.8191C17.6038 20.3961 17.0682 20.2455 16.6447 20.4831C15.1607 21.3158 13.4706 21.7561 11.7577 21.7561C6.24344 21.7561 1.75781 17.2705 1.75781 11.7572C1.75781 6.24344 6.2439 1.75781 11.7577 1.75781C17.2719 1.75781 21.758 6.24344 21.758 11.7572C21.758 14.0639 20.9537 16.3142 19.4934 18.0945C19.1853 18.4694 19.2403 19.0233 19.6156 19.3314C19.9905 19.639 20.5444 19.5845 20.8525 19.2091C22.5696 17.1158 23.5158 14.469 23.5158 11.7567C23.5158 10.9149 23.4256 10.0932 23.2567 9.30084C25.4242 8.59543 27.6855 8.237 29.9908 8.237C32.2957 8.237 34.5561 8.59497 36.7227 9.29947C36.5309 10.2068 36.4449 11.1429 36.4719 12.0937C36.6545 18.4598 41.8913 23.5144 48.2204 23.5139C48.3334 23.5139 48.4474 23.5126 48.5614 23.5089C49.2819 23.4883 49.9905 23.4027 50.6813 23.2567C51.3863 25.4237 51.7447 27.6846 51.7447 29.989C51.7447 32.3016 51.384 34.5699 50.6744 36.7433C49.8839 36.5749 49.0645 36.4861 48.2249 36.4861C41.7416 36.4861 36.4673 41.7599 36.4673 48.2428C36.4673 49.0778 36.5552 49.8926 36.7218 50.679C34.5557 51.3835 32.2957 51.741 29.9908 51.741ZM48.2249 58.2422C42.7107 58.2422 38.2251 53.7566 38.2251 48.2433C38.2251 42.7295 42.7107 38.2439 48.2249 38.2439C53.7392 38.2439 58.2248 42.7295 58.2248 48.2433C58.2248 53.7566 53.7392 58.2422 48.2249 58.2422Z" fill="#303030"/>
<path d="M17.7425 6.56887C17.4394 6.36288 17.0407 6.36608 16.7413 6.57757C16.442 6.7886 16.1215 6.96483 15.7846 7.10445C14.577 6.15963 12.827 6.17061 11.6281 7.21294C11.0051 7.75493 10.6156 8.50429 10.5249 9.31362C9.23539 9.12182 8.06993 8.41183 7.30546 7.32326C7.12327 7.06417 6.81565 6.92364 6.50117 6.95385C6.18577 6.98452 5.91157 7.18227 5.78294 7.47158C5.75776 7.52834 5.16633 8.87966 5.24186 10.5336C5.29954 11.7993 5.75227 13.4307 7.40342 14.6905C6.80879 14.8823 6.18074 14.9711 5.55497 14.9459C5.14756 14.9299 4.78364 15.195 4.67378 15.5868C4.56391 15.9787 4.73741 16.3948 5.09309 16.5925C6.47187 17.3584 7.94908 17.742 9.39241 17.742C10.779 17.742 12.134 17.3877 13.3397 16.6786C14.8517 15.7891 15.9503 14.4273 16.5468 12.7642C16.5656 12.7221 16.5811 12.6782 16.5935 12.6329C16.9002 11.7297 17.0609 10.7405 17.0609 9.69128C17.0609 9.6455 17.0595 9.59926 17.0577 9.55349C17.5594 8.96206 17.9173 8.26122 18.1023 7.50362C18.1883 7.14748 18.0455 6.77486 17.7425 6.56887ZM12.4484 15.1634C11.3855 15.7887 10.1656 16.0556 8.92228 15.9654C9.20701 15.8244 9.48213 15.6642 9.74534 15.4852C10.009 15.3062 10.1555 14.9977 10.1271 14.68C10.0987 14.3618 9.90007 14.0844 9.60847 13.9549C7.96739 13.2252 7.08985 12.0657 7.00059 10.5075C6.98228 10.1889 6.9983 9.88216 7.03263 9.60201C8.24159 10.6123 9.7902 11.163 11.4066 11.1218C11.8831 11.1094 12.263 10.7194 12.263 10.2429V9.71004C12.263 9.70638 12.263 9.70226 12.263 9.69814C12.2571 9.25365 12.4457 8.83114 12.7817 8.53954C13.4097 7.99343 14.3646 8.05981 14.9107 8.68786C15.0206 8.81374 15.1607 8.90301 15.3136 8.95016C15.26 9.0971 15.2454 9.25823 15.276 9.41662C15.2934 9.50863 15.3026 9.60293 15.3026 9.69402C15.3026 10.5555 15.1744 11.353 14.9304 12.0744C14.9172 12.1074 14.9062 12.1417 14.897 12.1765C14.4406 13.4541 13.6098 14.4799 12.4484 15.1634Z" fill="#303030"/>
<path d="M45.3328 12.4503H46.5788V17.6912C46.5788 18.1765 46.9725 18.5701 47.4577 18.5701C47.9434 18.5701 48.3366 18.1765 48.3366 17.6912V12.4503H49.6939C50.1791 12.4503 50.5728 12.0566 50.5728 11.5714C50.5728 11.0862 50.1791 10.6925 49.6939 10.6925H48.3366V8.23337C48.3366 7.38925 49.0237 6.70215 49.8683 6.70215H51.0063C51.4915 6.70215 51.8852 6.30847 51.8852 5.82324C51.8852 5.33755 51.4915 4.94434 51.0063 4.94434H49.8683C48.0546 4.94434 46.5788 6.41971 46.5788 8.23337V10.6925H45.3328C44.8475 10.6925 44.4539 11.0862 44.4539 11.5714C44.4539 12.0566 44.8475 12.4503 45.3328 12.4503Z" fill="#303030"/>
<path d="M9.76361 52.7884C9.97281 52.7884 10.182 52.7343 10.3683 52.6268L16.3508 49.1711C16.7239 48.956 16.9555 48.5545 16.9555 48.1237C16.9555 47.6934 16.7239 47.292 16.3508 47.0768L10.3683 43.6212C9.9957 43.4056 9.53244 43.4056 9.15936 43.6212C8.78629 43.8363 8.5542 44.2378 8.5542 44.6685V51.5794C8.5542 52.0102 8.78629 52.4116 9.15936 52.6268C9.34567 52.7348 9.55441 52.7884 9.76361 52.7884ZM10.312 45.6189L14.6498 48.1242L10.312 50.6295V45.6189Z" fill="#303030"/>
<path d="M52.0441 42.0181H44.4058C43.0792 42.0181 41.9998 43.0975 41.9998 44.4245V52.0614C41.9998 53.3885 43.0792 54.4679 44.4058 54.4679H52.0441C53.3707 54.4679 54.4501 53.3885 54.4501 52.0614V44.4245C54.4501 43.0975 53.3707 42.0181 52.0441 42.0181ZM52.6923 52.0614C52.6923 52.4194 52.4016 52.7101 52.0441 52.7101H44.4058C44.0483 52.7101 43.7576 52.4194 43.7576 52.0614V44.4245C43.7576 44.067 44.0483 43.7759 44.4058 43.7759H52.0441C52.4016 43.7759 52.6923 44.067 52.6923 44.4245V52.0614Z" fill="#303030"/>
<path d="M48.2249 45.5864C46.7601 45.5864 45.5681 46.7784 45.5681 48.2433C45.5681 49.7081 46.7601 50.8997 48.2249 50.8997C49.6898 50.8997 50.8818 49.7081 50.8818 48.2433C50.8818 46.7784 49.6898 45.5864 48.2249 45.5864ZM48.2249 49.1419C47.7292 49.1419 47.3259 48.7386 47.3259 48.2433C47.3259 47.7475 47.7292 47.3442 48.2249 47.3442C48.7207 47.3442 49.124 47.7475 49.124 48.2433C49.124 48.7386 48.7207 49.1419 48.2249 49.1419Z" fill="#303030"/>
<path d="M37.2308 36.0571V21.7493C37.2308 21.264 36.8372 20.8704 36.3519 20.8704C35.8662 20.8704 35.473 21.264 35.473 21.7493V22.1434C34.2343 22.8735 32.932 23.5039 31.593 24.0198C30.5209 24.4327 29.4136 24.776 28.2935 25.0447C28.1213 24.9124 27.9071 24.8323 27.6736 24.8323H23.6494C22.6772 24.8323 21.8866 25.6233 21.8866 26.5952V31.2108C21.8866 32.1831 22.6772 32.9736 23.6494 32.9736H24.4537L24.7586 38.8339C24.7829 39.3031 25.1711 39.6671 25.6357 39.6671C25.6508 39.6671 25.6664 39.6666 25.6819 39.6657C26.1667 39.6405 26.5393 39.2271 26.5141 38.7424L26.2138 32.9736H27.6736C27.9066 32.9736 28.1213 32.894 28.293 32.7617C29.0062 32.9338 29.7157 33.1361 30.4092 33.3664C30.8702 33.5188 31.3673 33.2693 31.5202 32.8088C31.6731 32.3479 31.4232 31.8503 30.9627 31.6978C30.2179 31.4507 29.4562 31.2332 28.6899 31.0487V26.7581C29.8901 26.4706 31.0762 26.1021 32.2247 25.6599C33.3353 25.2319 34.4229 24.7307 35.4726 24.1631V33.6452C35.0862 33.4364 34.6957 33.2373 34.3025 33.0482C33.8649 32.8377 33.3398 33.0217 33.1297 33.4593C32.9192 33.8969 33.1032 34.422 33.5408 34.6326C34.1954 34.9475 34.8427 35.2945 35.4726 35.6644V36.0567C35.4726 36.5424 35.8662 36.9356 36.3515 36.9356C36.8367 36.9356 37.2308 36.5424 37.2308 36.0571ZM23.6444 31.2112L23.6494 26.5901H26.9325V31.2154L23.6444 31.2112Z" fill="#303030"/>
</svg>
