<svg width="60" height="60" viewBox="0 0 60 60" fill="none" xmlns="http://www.w3.org/2000/svg">
<path d="M52.2581 17.4195L45.4162 24.2615C44.6033 22.0744 43.3452 20.1098 41.7388 18.4744C41.7001 18.4356 41.671 18.4066 41.6323 18.3679L47.4194 12.5808L52.2581 17.4195Z" fill="#5CD6B3"/>
<path d="M23.4193 46.2581L15.4839 54.1936L10.6451 49.3549L19.1226 40.8774C20.758 42.4742 22.3839 44.071 23.4193 46.2581Z" fill="#5CD6B3"/>
<path d="M19.1226 40.8774L10.6452 49.3548L5.80652 44.5161L14.7775 35.5452C15.5904 37.1806 16.7323 38.4871 17.9517 39.7258C18.3388 40.1129 18.7259 40.5 19.1226 40.8774Z" fill="#FF826E"/>
<path d="M47.4194 12.5807L41.6323 18.3677C39.9775 16.7129 37.9743 15.4065 35.7388 14.5839L42.5807 7.74194L47.4194 12.5807Z" fill="#FF826E"/>
<path d="M59.0323 7.80971C59.0323 9.62906 58.3161 11.3613 57.029 12.6484L55.1613 14.5162L45.4839 4.83874L47.3516 2.971C48.6387 1.6839 50.371 0.967773 52.1903 0.967773C54.0774 0.967773 55.7903 1.73229 57.029 2.971C58.2678 4.20971 59.0323 5.92261 59.0323 7.80971Z" fill="#AAB2BD"/>
<path d="M15.4839 54.1935L3.1839 58.9258C3.00003 58.9935 2.79681 59.0322 2.60326 59.0322C1.70326 59.0322 0.967773 58.2968 0.967773 57.3968C0.967773 57.2032 1.00648 57 1.07422 56.8161L5.80648 44.5161L10.6452 49.3548L15.4839 54.1935Z" fill="#CCD1D9"/>
<path d="M55.1613 14.5163L52.2581 17.4195L47.4194 12.5808L42.5807 7.74209L45.4839 4.83887L55.1613 14.5163Z" fill="#E6E9ED"/>
<path d="M48.3871 31.0161C48.3871 32.1677 49.0742 33.1935 50.129 33.629C50.1387 33.629 50.158 33.6387 50.1677 33.6387C51.2226 34.0839 52.4419 33.8516 53.2548 33.0387L53.9806 32.3129L56.7193 35.0516L55.9935 35.7774C55.1806 36.5903 54.9484 37.8097 55.3935 38.8645C55.3935 38.8742 55.4032 38.8935 55.4032 38.9032C55.8387 39.9581 56.8645 40.6452 58.0161 40.6452H59.0322V44.5161H58.0161C56.8645 44.5161 55.8387 45.2032 55.4032 46.2581C55.4032 46.2677 55.3935 46.2871 55.3935 46.2968C54.9484 47.3516 55.1806 48.571 55.9935 49.3839L56.7193 50.1097L53.9806 52.8484L53.2548 52.1226C52.4419 51.3097 51.2226 51.0774 50.1677 51.5226C50.158 51.5226 50.1387 51.5323 50.129 51.5323C49.0742 51.9677 48.3871 52.9935 48.3871 54.1452V55.1613H44.5161V54.1452C44.5161 52.9935 43.829 51.9677 42.7742 51.5323C42.7645 51.5323 42.7451 51.5226 42.7355 51.5226C41.6806 51.0774 40.4613 51.3097 39.6484 52.1226L38.9226 52.8484L36.4742 50.4C36.6677 50.1 36.7742 49.7419 36.7742 49.3548C36.7742 48.7161 36.4548 48.1355 35.9709 47.7871C36.9097 44.7677 38.9032 42.8032 40.9064 40.8581C40.7419 41.4097 40.6451 41.9806 40.6451 42.5806C40.6451 45.7839 43.2484 48.3871 46.4516 48.3871C49.6548 48.3871 52.258 45.7839 52.258 42.5806C52.258 39.3774 49.6548 36.7742 46.4516 36.7742C45.658 36.7742 44.9032 36.9387 44.2161 37.2194C45.5226 35.3903 46.4516 33.1548 46.4516 30H48.3871V31.0161Z" fill="#FFC729"/>
<path d="M46.4516 36.7744C49.6548 36.7744 52.258 39.3776 52.258 42.5809C52.258 45.7841 49.6548 48.3873 46.4516 48.3873C43.2484 48.3873 40.6451 45.7841 40.6451 42.5809C40.6451 41.9809 40.7419 41.4099 40.9064 40.8583V40.8486C42.0774 39.7163 43.2484 38.5744 44.2161 37.2196C44.9032 36.9389 45.658 36.7744 46.4516 36.7744ZM48.3871 42.5809C48.3871 41.5163 47.5161 40.6454 46.4516 40.6454C45.3871 40.6454 44.5161 41.5163 44.5161 42.5809C44.5161 43.6454 45.3871 44.5163 46.4516 44.5163C47.5161 44.5163 48.3871 43.6454 48.3871 42.5809Z" fill="#FCD770"/>
<path d="M30.0001 59.0323C27.7259 59.0323 25.742 57.484 25.1904 55.2775L25.1614 55.1614H34.8388L34.8098 55.2775C34.5291 56.3807 33.9001 57.3194 33.0485 57.9872C32.2065 58.6452 31.142 59.0323 30.0001 59.0323Z" fill="#AAB2BD"/>
<path d="M34.8387 51.2903C35.9032 51.2903 36.7742 52.1613 36.7742 53.2258C36.7742 53.758 36.5613 54.2419 36.2032 54.5903C35.8549 54.9483 35.371 55.1613 34.8387 55.1613H25.1613C24.0968 55.1613 23.2258 54.2903 23.2258 53.2258C23.2258 52.6935 23.4387 52.2096 23.7968 51.8613C24.1452 51.5032 24.6291 51.2903 25.1613 51.2903H34.8387Z" fill="#CCD1D9"/>
<path d="M36.7742 49.3549C36.7742 49.742 36.6678 50.1001 36.4742 50.4001C36.3968 50.5162 36.3 50.6227 36.2032 50.7194C35.8549 51.0775 35.371 51.2904 34.8387 51.2904H25.1613C24.0968 51.2904 23.2258 50.4194 23.2258 49.3549C23.2258 48.8227 23.4387 48.3388 23.7968 47.9904C23.8645 47.913 23.942 47.8452 24.0291 47.7872C24.3484 47.5549 24.7355 47.4194 25.1613 47.4194H30H34.8387C35.2645 47.4194 35.6516 47.5549 35.971 47.7872C36.4549 48.1356 36.7742 48.7162 36.7742 49.3549Z" fill="#CCD1D9"/>
<path d="M45.4162 24.2612C44.6033 22.0741 43.3452 20.1096 41.7388 18.4741C41.7001 18.4354 41.671 18.4064 41.6323 18.3677C39.9775 16.7129 37.9743 15.4064 35.7388 14.5838C34.0452 13.9451 32.2259 13.587 30.3194 13.5483H30.3098C30.7356 14.429 30.9678 15.4064 30.9678 16.4516C30.9678 17.2064 30.842 17.9419 30.6098 18.6193V18.629C31.0259 18.4741 31.471 18.387 31.9356 18.387C34.0743 18.387 35.8065 20.1193 35.8065 22.258C35.8065 24.3967 34.0743 26.129 31.9356 26.129H26.1291H14.0033C13.7033 27.3677 13.5485 28.6645 13.5485 30C13.5485 32.2645 14.0227 34.0451 14.7775 35.5451C15.5904 37.1806 16.7323 38.487 17.9517 39.7258C18.3388 40.1129 18.7259 40.5 19.1227 40.8774C20.7581 42.4741 22.3839 44.0709 23.4194 46.258C23.6614 46.7322 23.8646 47.2451 24.0291 47.7871C24.3485 47.5548 24.7356 47.4193 25.1614 47.4193H30.0001H34.8388C35.2646 47.4193 35.6517 47.5548 35.971 47.7871C36.9097 44.7677 38.9033 42.8032 40.9065 40.858V40.8483C42.0775 39.7161 43.2485 38.5741 44.2162 37.2193C45.5227 35.3903 46.4517 33.1548 46.4517 30C46.4517 27.9774 46.0839 26.0419 45.4162 24.2612Z" fill="#FFEAA7"/>
<path d="M21.5807 10.2002C22.3839 9.86145 23.2645 9.67758 24.1936 9.67758C26.9033 9.67758 29.2258 11.255 30.3097 13.5485C30.7355 14.4292 30.9678 15.4066 30.9678 16.4518C30.9678 17.2066 30.842 17.9421 30.6097 18.6195V18.6292C31.0258 18.4744 31.471 18.3873 31.9355 18.3873C34.0742 18.3873 35.8065 20.1195 35.8065 22.2582C35.8065 24.3969 34.0742 26.1292 31.9355 26.1292H26.1291H14.0033H5.80648C3.13552 26.1292 0.967773 23.9614 0.967773 21.2905C0.967773 18.7744 2.8839 16.7131 5.34197 16.4808V16.4711C5.01293 15.5614 4.83874 14.5744 4.83874 13.5485C4.83874 8.73887 8.73874 4.83887 13.5484 4.83887C17.1581 4.83887 20.2549 7.03564 21.571 10.1614L21.5807 10.2002Z" fill="#E6E9ED"/>
<path d="M46.4516 45.4839C48.0522 45.4839 49.3548 44.1814 49.3548 42.5807C49.3548 40.9801 48.0522 39.6775 46.4516 39.6775C44.8509 39.6775 43.5483 40.9801 43.5483 42.5807C43.5483 44.1814 44.8509 45.4839 46.4516 45.4839ZM46.4516 41.613C46.9848 41.613 47.4193 42.0465 47.4193 42.5807C47.4193 43.1149 46.9848 43.5485 46.4516 43.5485C45.9183 43.5485 45.4838 43.1149 45.4838 42.5807C45.4838 42.0465 45.9183 41.613 46.4516 41.613Z" fill="#303030"/>
<path d="M56.2839 38.4948C55.9906 37.7923 56.1465 36.9939 56.6797 36.4597L58.0877 35.0506L53.9806 30.9435L52.5706 32.3526C52.0374 32.8868 51.2381 33.0416 50.4987 32.7319C49.8039 32.4455 49.3548 31.7739 49.3548 31.021V29.0323H47.37C47.2819 27.4713 46.9926 25.9626 46.5126 24.5332L57.7113 13.3345C59.1871 11.8587 60 9.8971 60 7.81065C60 3.50419 56.4958 0 52.1894 0C50.1029 0 48.1413 0.812903 46.6665 2.28774L35.4794 13.4758C34.0326 12.99 32.4987 12.7074 30.9145 12.6232C29.579 10.29 27.0697 8.70968 24.1935 8.70968C23.4571 8.70968 22.7468 8.82 22.0703 9.01258C20.4 5.87226 17.1552 3.87097 13.5484 3.87097C8.21226 3.87097 3.87097 8.21226 3.87097 13.5484C3.87097 14.2897 3.96194 15.0194 4.12742 15.7335C1.74194 16.4555 0 18.6726 0 21.2903C0 24.4926 2.60419 27.0968 5.80645 27.0968H12.8265C12.6658 28.0539 12.5806 29.0255 12.5806 30C12.5806 32.13 12.9745 33.8632 13.6103 35.3439L4.9771 43.9781L0.173226 56.4677C0.0580645 56.7658 0 57.0794 0 57.3997C0 58.8339 1.1671 60 2.60032 60C2.92064 60 3.23419 59.941 3.53323 59.8268L16.0229 55.0229L22.3355 48.7094C22.2881 48.9174 22.2581 49.1323 22.2581 49.3548C22.2581 50.101 22.5494 50.7755 23.0129 51.2903C22.5484 51.8052 22.2581 52.4797 22.2581 53.2258C22.2581 54.571 23.1823 55.6955 24.4258 56.0226C25.2503 58.3839 27.4587 60 30 60C32.5413 60 34.7497 58.3839 35.5742 56.0226C36.8177 55.6955 37.7419 54.571 37.7419 53.2258C37.7419 53.1532 37.7255 53.0855 37.7206 53.0148L38.9226 54.2168L40.3326 52.8077C40.8658 52.2735 41.6623 52.1177 42.4035 52.4264C43.0984 52.7158 43.5484 53.3874 43.5484 54.1403V56.129H49.3548V54.1403C49.3548 53.3874 49.8048 52.7148 50.5374 52.4119C51.24 52.1197 52.0384 52.2735 52.5716 52.8077L53.9806 54.2168L58.0877 50.1097L56.6797 48.7006C56.1465 48.1665 55.9906 47.3681 56.2994 46.6287C56.5868 45.9339 57.2584 45.4839 58.0113 45.4839H60V39.6774H58.0113C57.2584 39.6774 56.5868 39.2274 56.2839 38.4948ZM41.7832 41.3477C42.839 40.3171 43.8968 39.2642 44.8094 38.0468C45.3358 37.8552 45.8835 37.7419 46.4516 37.7419C49.1197 37.7419 51.2903 39.9126 51.2903 42.5806C51.2903 45.2487 49.1197 47.4194 46.4516 47.4194C43.7835 47.4194 41.6129 45.2487 41.6129 42.5806C41.6129 42.1616 41.6777 41.7494 41.7832 41.3477ZM42.9455 18.4239L47.4194 13.949L50.8897 17.4194L45.721 22.5881C44.9961 21.0668 44.0594 19.6674 42.9455 18.4239ZM43.949 7.74194L45.4839 6.2071L53.7929 14.5161L52.2581 16.051L43.949 7.74194ZM52.1894 1.93548C55.4284 1.93548 58.0645 4.57161 58.0645 7.81065C58.0645 9.37935 57.4539 10.8552 56.3439 11.9652L55.1613 13.1477L46.8523 4.83871L48.0348 3.65613C49.1448 2.5471 50.6197 1.93548 52.1894 1.93548ZM42.5806 9.11032L46.051 12.5806L41.579 17.0526C40.3364 15.9377 38.9381 15 37.4168 14.2742L42.5806 9.11032ZM45.4839 30C45.4839 35.0352 42.9484 37.5087 40.2639 40.1264C38.4155 41.9294 36.5168 43.7932 35.4116 46.5097C35.2268 46.4719 35.0352 46.4516 34.8387 46.4516H30.9677V41.6129C30.9677 40.0123 29.6652 38.7097 28.0645 38.7097H26.129C25.5958 38.7097 25.1613 38.2761 25.1613 37.7419C25.1613 37.2077 25.5958 36.7742 26.129 36.7742H35.8064C37.4071 36.7742 38.7097 35.4716 38.7097 33.871C38.7097 32.2703 37.4071 30.9677 35.8064 30.9677H28.0645C27.5313 30.9677 27.0968 30.5342 27.0968 30V27.0968H31.9355C34.6035 27.0968 36.7742 24.9261 36.7742 22.2581C36.7742 19.59 34.6035 17.4194 31.9355 17.4194C31.9084 17.4194 31.8832 17.4271 31.8561 17.4271C31.8977 17.1039 31.9355 16.7806 31.9355 16.4516C31.9355 15.8187 31.8503 15.2061 31.7071 14.6168C39.4219 15.4761 45.4839 22.0974 45.4839 30ZM24.1935 49.3548C24.1935 48.8206 24.6281 48.3871 25.1613 48.3871H34.8387C35.3719 48.3871 35.8064 48.8206 35.8064 49.3548C35.8064 49.889 35.3719 50.3226 34.8387 50.3226H25.1613C24.6281 50.3226 24.1935 49.889 24.1935 49.3548ZM12.0135 49.3548L19.1274 42.241C20.3177 43.4216 21.4229 44.6158 22.2377 46.0703L15.4839 52.8252L12.0135 49.3548ZM1.93548 21.2903C1.93548 19.1555 3.67161 17.4194 5.80645 17.4194C7.94129 17.4194 9.67742 19.1555 9.67742 21.2903H11.6129C11.6129 18.1723 9.14032 15.6271 6.05419 15.4965C5.88968 14.8635 5.80645 14.2103 5.80645 13.5484C5.80645 9.27968 9.27968 5.80645 13.5484 5.80645C16.379 5.80645 18.9339 7.34516 20.2926 9.77516C18.2294 10.9858 16.7719 13.1177 16.5 15.6058C14.8103 16.0219 13.5484 17.5384 13.5484 19.3548H15.4839C15.4839 18.2874 16.3519 17.4194 17.4194 17.4194C18.4868 17.4194 19.3548 18.2874 19.3548 19.3548H21.2903C21.2903 17.579 20.0826 16.0955 18.45 15.6406C18.8468 12.8226 21.2671 10.6452 24.1935 10.6452C27.3958 10.6452 30 13.2494 30 16.4516C30 16.9606 29.9168 17.459 29.7871 17.9448C28.2 18.7394 27.0968 20.3652 27.0968 22.2581H29.0323C29.0323 20.6574 30.3348 19.3548 31.9355 19.3548C33.5361 19.3548 34.8387 20.6574 34.8387 22.2581C34.8387 23.8587 33.5361 25.1613 31.9355 25.1613H5.80645C3.67161 25.1613 1.93548 23.4252 1.93548 21.2903ZM25.1613 27.0968V30C25.1613 31.6006 26.4639 32.9032 28.0645 32.9032H35.8064C36.3397 32.9032 36.7742 33.3368 36.7742 33.871C36.7742 34.4052 36.3397 34.8387 35.8064 34.8387H26.129C24.5284 34.8387 23.2258 36.1413 23.2258 37.7419C23.2258 39.3426 24.5284 40.6452 26.129 40.6452H28.0645C28.5977 40.6452 29.0323 41.0787 29.0323 41.6129V46.4516H25.1613C24.9648 46.4516 24.7732 46.4719 24.5884 46.5097C23.4832 43.7932 21.5845 41.9294 19.7361 40.1264C17.0516 37.5087 14.5161 35.0352 14.5161 30C14.5161 29.0216 14.6332 28.0519 14.8142 27.0968H25.1613ZM17.7455 40.8861L10.6452 47.9865L7.17484 44.5161L14.5587 37.1323C15.4674 38.5587 16.5939 39.749 17.7455 40.8861ZM6.17516 46.2532L13.7468 53.8248L7.33645 56.2906L3.70935 52.6635L6.17516 46.2532ZM2.83935 58.02C2.42032 58.1826 1.93548 57.8487 1.93548 57.3997C1.93548 57.3174 1.95097 57.2371 1.97903 57.1616L2.94871 54.6397L5.35935 57.0503L2.83935 58.02ZM30 58.0645C28.5706 58.0645 27.2961 57.3039 26.5897 56.129H33.4103C32.7039 57.3039 31.4294 58.0645 30 58.0645ZM34.8387 54.1935H25.1613C24.6281 54.1935 24.1935 53.76 24.1935 53.2258C24.1935 52.6916 24.6281 52.2581 25.1613 52.2581H34.8387C35.3719 52.2581 35.8064 52.6916 35.8064 53.2258C35.8064 53.76 35.3719 54.1935 34.8387 54.1935ZM58.0645 43.5484H58.0113C56.4716 43.5484 55.0974 44.4677 54.4974 45.9213C53.9013 47.3506 54.2206 48.9784 55.3103 50.069L55.351 50.1097L53.9806 51.48L53.94 51.4394C52.8484 50.3477 51.2187 50.0274 49.7603 50.639C48.3387 51.2274 47.4194 52.6006 47.4194 54.1403V54.1935H45.4839V54.1403C45.4839 52.6006 44.5645 51.2264 43.111 50.6255C41.6797 50.0284 40.0519 50.3487 38.9623 51.4394L38.9216 51.48L37.6103 50.1687C37.6877 49.9084 37.7419 49.6394 37.7419 49.3548C37.7419 48.6677 37.4923 48.0445 37.0916 47.5461C37.6935 45.9213 38.6371 44.6216 39.7355 43.4216C40.1516 46.7603 43.0016 49.3548 46.4516 49.3548C50.1871 49.3548 53.2258 46.3152 53.2258 42.5806C53.2258 38.8461 50.1871 35.8064 46.4516 35.8064C46.3568 35.8064 46.2648 35.8161 46.171 35.82C46.8261 34.4603 47.2761 32.8839 47.3894 30.9677H47.4194V31.021C47.4194 32.5606 48.3387 33.9358 49.7913 34.5348C51.2197 35.1329 52.8494 34.8135 53.94 33.7219L53.9806 33.6813L55.351 35.0516L55.3103 35.0923C54.2206 36.1829 53.9013 37.8116 54.51 39.271C55.0974 40.6936 56.4716 41.6129 58.0113 41.6129H58.0645V43.5484Z" fill="#303030"/>
</svg>
