<svg width="261" height="186" viewBox="0 0 261 186" fill="none" xmlns="http://www.w3.org/2000/svg">
<path d="M260.062 35.0278C244.849 47.207 230.359 45.6027 219.785 44.4124C210.281 43.3601 205.83 43.1013 199.81 47.8626C193.79 52.6238 193.066 57.0918 192.031 66.5799C190.858 77.172 189.288 91.6628 174.057 103.859C158.826 116.056 144.354 114.503 133.78 113.313C124.293 112.26 119.842 112.002 113.805 116.763C107.768 121.524 107.078 126.061 106.008 135.549C104.853 146.124 103.266 160.615 88.0519 172.811C72.838 185.008 58.3485 183.386 47.7746 182.213C38.2875 181.144 33.8372 180.885 27.7999 185.663L10.5505 164.117C25.7817 151.989 40.2712 153.594 50.8105 154.784C60.2977 155.836 64.748 156.095 70.7853 151.334C76.8226 146.573 77.5643 142.036 78.5992 132.548C79.755 121.955 81.3419 107.465 96.5558 95.2855C111.77 83.1063 126.259 84.7106 136.833 85.97C146.337 87.0223 150.788 87.2983 156.808 82.5198C162.828 77.7412 163.552 73.1525 164.656 63.6472C165.812 53.0724 167.399 38.5815 182.613 26.3851C197.827 14.1887 212.247 15.8102 222.838 16.9661C232.325 18.0356 236.776 18.2944 242.813 13.5159L260.062 35.0278Z" fill="#1D9EE1"/>
<path d="M251.477 23.4775C236.246 35.7429 221.757 34.0178 211.183 32.8792C201.696 31.8269 197.245 31.5682 191.208 36.3294C185.171 41.0907 184.464 45.5587 183.429 55.0467C182.273 65.6216 180.686 80.1297 165.472 92.3089C150.258 104.488 135.821 103.022 125.195 101.78C115.691 100.727 111.24 100.451 105.22 105.23C99.2001 110.008 98.4757 114.459 97.4407 123.964C96.285 134.539 94.698 149.03 79.4841 161.226C64.2702 173.423 49.7807 171.853 39.2241 170.663C29.7197 169.61 25.2694 169.352 19.2494 174.113L2 152.567C17.2139 140.37 31.6861 141.992 42.2772 143.165C51.7644 144.234 56.2147 144.493 62.2348 139.715C68.2548 134.936 68.9793 130.485 70.0142 120.997C71.1872 110.405 72.7741 95.9143 87.988 83.7351C103.202 71.5559 117.691 73.1603 128.265 74.3333C137.752 75.3856 142.203 75.6444 148.223 70.8831C154.243 66.1219 154.95 61.6194 156.002 52.1141C157.158 41.5392 158.745 27.0484 173.959 14.852C189.173 2.65554 203.662 4.27713 214.236 5.45019C223.74 6.5025 228.191 6.77852 234.211 2L251.477 23.4775Z" stroke="#303030" stroke-width="2" stroke-miterlimit="10"/>
</svg>
