<svg width="204" height="164" viewBox="0 0 204 164" fill="none" xmlns="http://www.w3.org/2000/svg">
<g clip-path="url(#clip0_2_1921)">
<path d="M79.7375 139.687L156.63 139.687C157.12 139.683 157.601 139.551 158.024 139.303C158.447 139.056 158.798 138.701 159.042 138.276C159.286 137.85 159.413 137.368 159.412 136.878C159.411 136.387 159.282 135.906 159.037 135.481L120.604 68.9313L82.1709 2.35492C81.9293 1.9256 81.5778 1.56829 81.1525 1.31964C80.7271 1.07098 80.2434 0.939934 79.7507 0.939934C79.258 0.939934 78.7742 1.07098 78.3489 1.31964C77.9236 1.56829 77.5721 1.9256 77.3305 2.35492L38.8976 68.9313L0.464771 135.481C0.219562 135.906 0.0900303 136.387 0.0890842 136.878C0.0881534 137.368 0.215854 137.85 0.459445 138.276C0.703021 138.701 1.05397 139.056 1.47727 139.303C1.90056 139.551 2.3814 139.683 2.87177 139.687L79.7375 139.687Z" fill="#1D9EE1"/>
<path d="M121.609 161.297L198.474 161.297C198.98 161.311 199.48 161.186 199.92 160.936C200.36 160.687 200.723 160.322 200.971 159.881C201.219 159.44 201.341 158.939 201.326 158.434C201.31 157.928 201.156 157.437 200.881 157.012L162.449 90.5413L124.016 23.9649C123.769 23.5424 123.415 23.1919 122.991 22.9484C122.566 22.7048 122.085 22.5767 121.596 22.5767C121.106 22.5767 120.625 22.7048 120.201 22.9484C119.776 23.1919 119.422 23.5424 119.175 23.9649L80.7425 90.5413L42.3097 157.012C42.0699 157.438 41.9456 157.919 41.9492 158.408C41.9527 158.896 42.084 159.376 42.3299 159.798C42.5759 160.221 42.9279 160.571 43.3512 160.816C43.7745 161.06 44.2544 161.189 44.7431 161.191L121.609 161.297Z" stroke="#303030" stroke-width="2.90492" stroke-miterlimit="10"/>
</g>
<defs>
<clipPath id="clip0_2_1921">
<rect width="203.062" height="162.222" fill="white" transform="matrix(-1 -8.74228e-08 -8.74228e-08 1 203.156 0.953125)"/>
</clipPath>
</defs>
</svg>
