<svg width="265" height="312" viewBox="0 0 265 312" fill="none" xmlns="http://www.w3.org/2000/svg">
<g clip-path="url(#clip0_2_1589)">
<path d="M223.413 186.106L157.883 251.635C157.462 252.05 156.94 252.347 156.368 252.497C155.796 252.647 155.195 252.644 154.625 252.489C154.055 252.334 153.535 252.032 153.118 251.613C152.701 251.194 152.401 250.673 152.248 250.102L128.286 160.634L104.301 71.1422C104.141 70.5703 104.136 69.9663 104.287 69.3919C104.437 68.8175 104.738 68.2936 105.158 67.8737C105.578 67.4538 106.102 67.1532 106.676 67.0027C107.251 66.8521 107.855 66.8571 108.426 67.017L197.918 91.0016L287.387 114.964C287.958 115.117 288.478 115.417 288.897 115.834C289.316 116.251 289.618 116.77 289.773 117.341C289.928 117.911 289.931 118.512 289.781 119.084C289.631 119.656 289.334 120.178 288.92 120.599L223.413 186.106Z" fill="#1D9EE1"/>
<path d="M206.146 240.206L140.639 305.713C140.22 306.156 139.687 306.476 139.1 306.638C138.512 306.8 137.891 306.799 137.304 306.634C136.717 306.469 136.187 306.147 135.769 305.703C135.352 305.259 135.064 304.709 134.936 304.113L111.041 214.712L87.0568 125.22C86.9073 124.649 86.9098 124.05 87.0641 123.48C87.2184 122.911 87.5191 122.392 87.9362 121.974C88.3534 121.557 88.8725 121.257 89.4419 121.102C90.0114 120.948 90.6113 120.945 91.182 121.095L180.673 145.08L270.075 168.974C270.642 169.133 271.158 169.437 271.571 169.856C271.985 170.276 272.281 170.796 272.432 171.366C272.582 171.935 272.581 172.534 272.429 173.103C272.276 173.672 271.977 174.191 271.562 174.609L206.146 240.206Z" stroke="#303030" stroke-width="4.55871" stroke-miterlimit="10"/>
</g>
<defs>
<clipPath id="clip0_2_1589">
<rect width="244.736" height="195.514" fill="white" transform="translate(0 173.054) rotate(-45)"/>
</clipPath>
</defs>
</svg>
