<svg width="99" height="99" viewBox="0 0 99 99" fill="none" xmlns="http://www.w3.org/2000/svg">
<path d="M69.1321 87.4042L63.0269 64.85C62.717 63.6998 62.6371 62.4997 62.7918 61.3185C62.9465 60.1373 63.3327 58.9982 63.9284 57.9666C64.524 56.9349 65.3173 56.0309 66.2629 55.3063C67.2085 54.5818 68.2878 54.0509 69.4389 53.7442L92.0661 47.6812C93.2212 47.3761 94.3044 46.8455 95.2535 46.12C96.2025 45.3944 96.9986 44.4883 97.5959 43.4537C98.1933 42.4191 98.58 41.2766 98.7338 40.0919C98.8876 38.9072 98.8055 37.7038 98.4922 36.551C98.1871 35.396 97.6565 34.3127 96.931 33.3637C96.2054 32.4146 95.2992 31.6185 94.2647 31.0212C93.2301 30.4239 92.0875 30.0371 90.9029 29.8833C89.7182 29.7295 88.5148 29.8116 87.3619 30.1249L64.85 36.157C63.6997 36.4669 62.4996 36.5468 61.3184 36.3921C60.1372 36.2374 58.9982 35.8512 57.9665 35.2556C56.9348 34.6599 56.0308 33.8666 55.3063 32.921C54.5817 31.9754 54.0508 30.8961 53.7441 29.745L47.5378 7.19739C46.9052 4.90455 45.396 2.95263 43.3361 1.76338C41.2763 0.574136 38.8313 0.243048 36.5293 0.841658C34.2365 1.47422 32.2846 2.98346 31.0953 5.0433C29.9061 7.10314 29.575 9.54818 30.1736 11.8501L36.2365 34.4773C36.5464 35.6276 36.6263 36.8277 36.4716 38.0089C36.317 39.1901 35.9307 40.3291 35.3351 41.3608C34.7395 42.3925 33.9461 43.2965 33.0005 44.0211C32.0549 44.7456 30.9757 45.2765 29.8245 45.5832L7.19732 51.6462C6.0423 51.9512 4.95906 52.4818 4.01 53.2074C3.06094 53.9329 2.26482 54.8391 1.6675 55.8737C1.07019 56.9083 0.683487 58.0508 0.529671 59.2355C0.375853 60.4202 0.45797 61.6236 0.771279 62.7764C1.07635 63.9314 1.60694 65.0147 2.3325 65.9637C3.05805 66.9128 3.96421 67.7089 4.99879 68.3062C6.03337 68.9035 7.17591 69.2902 8.3606 69.444C9.54528 69.5979 10.7487 69.5157 11.9015 69.2024L34.5287 63.1395C35.679 62.8296 36.8791 62.7497 38.0603 62.9044C39.2415 63.0591 40.3805 63.4453 41.4122 64.0409C42.4439 64.6366 43.3479 65.4299 44.0724 66.3755C44.797 67.3211 45.3279 68.4004 45.6346 69.5515L51.6976 92.1787C52.0026 93.3337 52.5332 94.417 53.2588 95.366C53.9843 96.3151 54.8905 97.1112 55.9251 97.7085C56.9596 98.3058 58.1022 98.6925 59.2869 98.8463C60.4716 99.0002 61.675 98.918 62.8278 98.6047C63.9795 98.2871 65.057 97.7447 65.9982 97.0088C66.9393 96.2728 67.7255 95.358 68.3115 94.3168C68.8976 93.2757 69.2717 92.1289 69.4126 90.9425C69.5534 89.7561 69.458 88.5536 69.1321 87.4042Z" fill="#1D9EE1"/>
</svg>
