<svg width="88" height="89" viewBox="0 0 88 89" fill="none" xmlns="http://www.w3.org/2000/svg">
<path d="M74.616 89H13.6087V0H74.616V89ZM16.0033 86.6091H72.2214V2.39094H16.0033V86.6091Z" fill="#303030"/>
<path d="M74.7468 24.5513C70.2688 16.3393 62.5619 10.5569 53.6797 8.83912C49.3669 8.00587 44.9637 7.73631 40.5812 8.03724C36.0057 7.30156 30.8757 7.36594 25.3755 8.56508C10.5621 11.8039 4.36186 20.5584 7.13592 24.8621C-0.897067 35.1615 5.37681 36.3092 12.1959 31.5475C29.6729 19.3464 44.9836 18.7523 53.1161 24.0289C61.6409 29.5612 57.9421 38.884 52.9061 42.053C49.5371 44.1699 49.7747 44.3225 53.3261 46.5921C56.8775 48.8616 59.3678 58.51 50.132 64.3255C40.8962 70.141 27.2562 65.3187 25.2649 63.0491C23.2737 60.7795 23.1319 50.2741 23.2756 40.486C23.4193 30.6978 36.0444 34.2622 35.2099 42.4778C34.0403 54.0021 33.239 56.8235 36.212 57.5904C44.5176 59.733 45.8807 51.8687 41.2812 49.2203C37.8551 47.2468 36.492 45.0324 43.3074 38.7903C50.1228 32.5481 43.4142 26.3335 29.3818 30.1295C22.828 31.897 16.0254 36.8738 12.4685 44.1404C7.4067 50.2925 4.1795 58.5799 6.71963 66.2107C8.24665 70.7865 12.8701 73.72 18.7332 74.956C31.9735 85.1966 59.0934 83.1201 71.5361 64.7651C81.7372 60.5037 88.9928 53.0918 87.8895 42.7923C87.0256 34.7109 82.019 28.5681 74.7468 24.5513Z" fill="white"/>
<path d="M4.73029 47.4804C8.8398 41.6226 10.8089 38.6836 6.33283 40.6864C-2.68747 44.7327 -1.00019 55.6501 4.73029 47.4804Z" fill="white"/>
<path d="M72.4516 67.4668C70.7331 69.4292 77.4858 75.5592 79.4513 71.0551C81.4167 66.5509 73.6545 66.0948 72.4516 67.4668Z" fill="white"/>
<path d="M70.1491 71.4523C68.3992 72.188 69.6223 75.7689 71.1309 75.4673C74.8149 74.7316 71.7701 70.7718 70.1491 71.4523Z" fill="white"/>
<path d="M12.1959 31.5475C5.27184 36.3809 -1.09045 35.1284 7.51356 24.3839C16.8912 12.6793 34.9116 5.22145 53.6853 8.84832C73.1111 12.6021 86.9317 35.8034 73.579 61.3387C60.2263 86.8739 20.9455 86.2578 12.6896 67.373C4.139 47.8188 17.1804 33.4253 29.3874 30.1222C43.4198 26.3261 50.1321 32.5407 43.3129 38.7829C36.4938 45.0251 37.8588 47.2431 41.2867 49.2129C45.8918 51.8613 44.5231 59.7257 36.2175 57.583C33.2445 56.8161 34.0458 53.9948 35.2155 42.4705C36.0499 34.2548 23.4266 30.6886 23.2811 40.4786C23.1356 50.2686 23.2811 60.7722 25.2705 63.0417C27.2599 65.3113 40.8981 70.1355 50.1376 64.3181C59.3771 58.5008 56.883 48.8561 53.3316 46.5847C49.7802 44.3133 49.5426 44.1625 52.9116 42.0456C57.9477 38.8841 61.6464 29.5612 53.1216 24.0216C44.9855 18.7597 29.6729 19.3464 12.1959 31.5475Z" fill="url(#paint0_linear_2_3279)"/>
<g style="mix-blend-mode:multiply">
<path d="M72.4516 67.4668C73.6545 66.0948 81.4167 66.5472 79.4513 71.0551C77.4858 75.5629 70.7331 69.4292 72.4516 67.4668Z" fill="#27AAFF"/>
</g>
<g style="mix-blend-mode:multiply">
<path d="M70.1491 71.4523C71.7701 70.7718 74.8149 74.7316 71.1309 75.4673C69.6278 75.7744 68.3992 72.188 70.1491 71.4523Z" fill="#1D9EE1"/>
</g>
<g style="mix-blend-mode:multiply">
<path d="M6.33284 40.6864C-2.69299 44.7327 -1.00019 55.6501 4.73029 47.4804C8.84165 41.6226 10.7997 38.6836 6.33284 40.6864Z" fill="#7BDFF6"/>
</g>
<g style="mix-blend-mode:multiply">
<path d="M87.8895 42.7831C87.0256 34.7109 82.019 28.5681 74.7468 24.5513C80.0665 34.299 80.8254 47.4749 73.5771 61.335C72.9618 62.5116 72.2804 63.6525 71.5361 64.7522C81.7372 60.4945 88.9928 53.0826 87.8895 42.7831Z" fill="#1DA5E1"/>
</g>
<g style="mix-blend-mode:multiply">
<path d="M74.7468 24.5513C61.3646 17.1578 40.3013 16.961 23.2406 25.1748C35.9928 19.3666 46.752 19.9 53.1143 24.0289C61.6391 29.5612 57.9403 38.884 52.9043 42.053C49.5352 44.1699 49.7729 44.3225 53.3242 46.5921C56.8756 48.8616 59.366 58.51 50.1302 64.3255C44.0332 68.1657 36.0149 67.3675 30.6989 65.7288C42.088 70.472 59.0253 69.9865 71.5343 64.7632C72.2786 63.6635 72.96 62.5226 73.5753 61.346C80.8272 47.4749 80.0665 34.299 74.7468 24.5513Z" fill="#1D9EE1"/>
</g>
<g style="mix-blend-mode:multiply">
<path d="M12.6896 67.373C8.73295 58.3224 9.39423 50.3808 12.4685 44.1404C7.40671 50.2925 4.17951 58.5799 6.71964 66.2107C8.24666 70.7866 12.8701 73.72 18.7332 74.956C16.0899 72.9016 13.9992 70.3672 12.6896 67.373Z" fill="#9AE193"/>
</g>
<g style="mix-blend-mode:multiply">
<path d="M55.6286 58.2231C54.6929 60.4007 52.9669 62.5378 50.1394 64.3181C40.9036 70.1355 27.2635 65.3113 25.2723 63.0417C23.2811 60.7722 23.1393 50.2668 23.283 40.4786C23.329 37.2177 24.7566 35.4393 26.6225 34.8213C22.1594 35.373 16.6849 39.0146 12.4722 44.1312C9.4053 50.3845 8.73665 58.3224 12.6933 67.373C13.9993 70.3672 16.0899 72.9016 18.7332 74.9468C31.5333 77.6449 50.2499 72.2597 55.6286 58.2231Z" fill="#9CD4C7"/>
</g>
<g style="mix-blend-mode:multiply">
<path d="M40.5905 8.04643C36.0149 7.31076 30.8849 7.37513 25.3847 8.57428C10.5621 11.8039 4.36188 20.5584 7.13595 24.8621C7.25752 24.7058 7.38462 24.5458 7.50435 24.3839C14.6734 15.4492 26.8675 8.98994 40.5905 8.04643Z" fill="#7BE1F6"/>
</g>
<g style="mix-blend-mode:multiply">
<path d="M40.5904 8.04643C26.8675 8.98993 14.6734 15.4492 7.51354 24.3839C7.3846 24.5458 7.2575 24.7058 7.14514 24.8621C8.89689 27.5841 14.235 28.5276 23.2498 25.1748C36.002 19.3685 46.7612 19.9018 53.1216 24.0308C57.8721 27.1133 58.8318 31.3728 57.8685 35.0861C67.83 26.1587 58.4229 10.934 40.5904 8.04643Z" fill="#7BDFF6"/>
</g>
<path d="M16.0033 33.0851H13.6087V87.8027H16.0033V33.0851Z" fill="#303030"/>
<defs>
<linearGradient id="paint0_linear_2_3279" x1="14.6698" y1="16.9187" x2="67.4212" y2="69.7492" gradientUnits="userSpaceOnUse">
<stop stop-color="#5DEAF3"/>
<stop offset="1" stop-color="#008BD5"/>
</linearGradient>
</defs>
</svg>
